%TF.GenerationSoftware,KiCad,Pcbnew,10.0.3*%
%TF.CreationDate,2026-06-08T19:47:06-04:00*%
%TF.ProjectId,Hackpad,4861636b-7061-4642-9e6b-696361645f70,rev?*%
%TF.SameCoordinates,Original*%
%TF.FileFunction,Paste,Bot*%
%TF.FilePolarity,Positive*%
%FSLAX46Y46*%
G04 Gerber Fmt 4.6, Leading zero omitted, Abs format (unit mm)*
G04 Created by KiCad (PCBNEW 10.0.3) date 2026-06-08 19:47:06*
%MOMM*%
%LPD*%
G01*
G04 APERTURE LIST*
G04 Aperture macros list*
%AMRoundRect*
0 Rectangle with rounded corners*
0 $1 Rounding radius*
0 $2 $3 $4 $5 $6 $7 $8 $9 X,Y pos of 4 corners*
0 Add a 4 corners polygon primitive as box body*
4,1,4,$2,$3,$4,$5,$6,$7,$8,$9,$2,$3,0*
0 Add four circle primitives for the rounded corners*
1,1,$1+$1,$2,$3*
1,1,$1+$1,$4,$5*
1,1,$1+$1,$6,$7*
1,1,$1+$1,$8,$9*
0 Add four rect primitives between the rounded corners*
20,1,$1+$1,$2,$3,$4,$5,0*
20,1,$1+$1,$4,$5,$6,$7,0*
20,1,$1+$1,$6,$7,$8,$9,0*
20,1,$1+$1,$8,$9,$2,$3,0*%
G04 Aperture macros list end*
%ADD10RoundRect,0.082000X-0.718000X0.328000X-0.718000X-0.328000X0.718000X-0.328000X0.718000X0.328000X0*%
G04 APERTURE END LIST*
D10*
%TO.C,RGB8*%
X87887501Y-75347158D03*
X87887501Y-76847158D03*
X93087501Y-76847158D03*
X93087501Y-75347158D03*
%TD*%
%TO.C,RGB5*%
X25975001Y-75347158D03*
X25975001Y-76847158D03*
X31175001Y-76847158D03*
X31175001Y-75347158D03*
%TD*%
%TO.C,RGB1*%
X30737501Y-37247158D03*
X30737501Y-38747158D03*
X35937501Y-38747158D03*
X35937501Y-37247158D03*
%TD*%
%TO.C,RGB6*%
X49787501Y-75347158D03*
X49787501Y-76847158D03*
X54987501Y-76847158D03*
X54987501Y-75347158D03*
%TD*%
%TO.C,RGB10*%
X33118751Y-113447158D03*
X33118751Y-114947158D03*
X38318751Y-114947158D03*
X38318751Y-113447158D03*
%TD*%
%TO.C,RGB3*%
X68837501Y-56297158D03*
X68837501Y-57797158D03*
X74037501Y-57797158D03*
X74037501Y-56297158D03*
%TD*%
%TO.C,RGB2*%
X49787501Y-56443750D03*
X49787501Y-57943750D03*
X54987501Y-57943750D03*
X54987501Y-56443750D03*
%TD*%
%TO.C,RGB12*%
X73600001Y-94397158D03*
X73600001Y-95897158D03*
X78800001Y-95897158D03*
X78800001Y-94397158D03*
%TD*%
%TO.C,RGB13*%
X92650001Y-94397158D03*
X92650001Y-95897158D03*
X97850001Y-95897158D03*
X97850001Y-94397158D03*
%TD*%
%TO.C,RGB14*%
X23593751Y-132497158D03*
X23593751Y-133997158D03*
X28793751Y-133997158D03*
X28793751Y-132497158D03*
%TD*%
%TO.C,RGB4*%
X87887501Y-56297158D03*
X87887501Y-57797158D03*
X93087501Y-57797158D03*
X93087501Y-56297158D03*
%TD*%
%TO.C,RGB15*%
X95031251Y-132497158D03*
X95031251Y-133997158D03*
X100231251Y-133997158D03*
X100231251Y-132497158D03*
%TD*%
%TO.C,RGB7*%
X68837501Y-75347158D03*
X68837501Y-76847158D03*
X74037501Y-76847158D03*
X74037501Y-75347158D03*
%TD*%
%TO.C,RGB11*%
X54550001Y-94397158D03*
X54550001Y-95897158D03*
X59750001Y-95897158D03*
X59750001Y-94397158D03*
%TD*%
%TO.C,RGB9*%
X106937501Y-75347158D03*
X106937501Y-76847158D03*
X112137501Y-76847158D03*
X112137501Y-75347158D03*
%TD*%
M02*
