%TF.GenerationSoftware,KiCad,Pcbnew,10.0.3*%
%TF.CreationDate,2026-06-08T19:47:06-04:00*%
%TF.ProjectId,Hackpad,4861636b-7061-4642-9e6b-696361645f70,rev?*%
%TF.SameCoordinates,Original*%
%TF.FileFunction,Legend,Bot*%
%TF.FilePolarity,Positive*%
%FSLAX46Y46*%
G04 Gerber Fmt 4.6, Leading zero omitted, Abs format (unit mm)*
G04 Created by KiCad (PCBNEW 10.0.3) date 2026-06-08 19:47:06*
%MOMM*%
%LPD*%
G01*
G04 APERTURE LIST*
%ADD10C,0.100000*%
G04 APERTURE END LIST*
D10*
%TO.C,RGB8*%
X94687501Y-77097158D02*
X93787501Y-77997158D01*
X94687501Y-77997158D01*
X94687501Y-77097158D01*
G36*
X94687501Y-77997158D02*
G01*
X93787501Y-77997158D01*
X94687501Y-77097158D01*
X94687501Y-77997158D01*
G37*
%TO.C,RGB5*%
X32775001Y-77097158D02*
X31875001Y-77997158D01*
X32775001Y-77997158D01*
X32775001Y-77097158D01*
G36*
X32775001Y-77997158D02*
G01*
X31875001Y-77997158D01*
X32775001Y-77097158D01*
X32775001Y-77997158D01*
G37*
%TO.C,RGB1*%
X37537501Y-38997158D02*
X36637501Y-39897158D01*
X37537501Y-39897158D01*
X37537501Y-38997158D01*
G36*
X37537501Y-39897158D02*
G01*
X36637501Y-39897158D01*
X37537501Y-38997158D01*
X37537501Y-39897158D01*
G37*
%TO.C,RGB6*%
X56587501Y-77097158D02*
X55687501Y-77997158D01*
X56587501Y-77997158D01*
X56587501Y-77097158D01*
G36*
X56587501Y-77997158D02*
G01*
X55687501Y-77997158D01*
X56587501Y-77097158D01*
X56587501Y-77997158D01*
G37*
%TO.C,RGB10*%
X39918751Y-115197158D02*
X39018751Y-116097158D01*
X39918751Y-116097158D01*
X39918751Y-115197158D01*
G36*
X39918751Y-116097158D02*
G01*
X39018751Y-116097158D01*
X39918751Y-115197158D01*
X39918751Y-116097158D01*
G37*
%TO.C,RGB3*%
X75637501Y-58047158D02*
X74737501Y-58947158D01*
X75637501Y-58947158D01*
X75637501Y-58047158D01*
G36*
X75637501Y-58947158D02*
G01*
X74737501Y-58947158D01*
X75637501Y-58047158D01*
X75637501Y-58947158D01*
G37*
%TO.C,RGB2*%
X56587501Y-58193750D02*
X55687501Y-59093750D01*
X56587501Y-59093750D01*
X56587501Y-58193750D01*
G36*
X56587501Y-59093750D02*
G01*
X55687501Y-59093750D01*
X56587501Y-58193750D01*
X56587501Y-59093750D01*
G37*
%TO.C,RGB12*%
X80400001Y-96147158D02*
X79500001Y-97047158D01*
X80400001Y-97047158D01*
X80400001Y-96147158D01*
G36*
X80400001Y-97047158D02*
G01*
X79500001Y-97047158D01*
X80400001Y-96147158D01*
X80400001Y-97047158D01*
G37*
%TO.C,RGB13*%
X99450001Y-96147158D02*
X98550001Y-97047158D01*
X99450001Y-97047158D01*
X99450001Y-96147158D01*
G36*
X99450001Y-97047158D02*
G01*
X98550001Y-97047158D01*
X99450001Y-96147158D01*
X99450001Y-97047158D01*
G37*
%TO.C,RGB14*%
X30393751Y-134247158D02*
X29493751Y-135147158D01*
X30393751Y-135147158D01*
X30393751Y-134247158D01*
G36*
X30393751Y-135147158D02*
G01*
X29493751Y-135147158D01*
X30393751Y-134247158D01*
X30393751Y-135147158D01*
G37*
%TO.C,RGB4*%
X94687501Y-58047158D02*
X93787501Y-58947158D01*
X94687501Y-58947158D01*
X94687501Y-58047158D01*
G36*
X94687501Y-58947158D02*
G01*
X93787501Y-58947158D01*
X94687501Y-58047158D01*
X94687501Y-58947158D01*
G37*
%TO.C,RGB15*%
X101831251Y-134247158D02*
X100931251Y-135147158D01*
X101831251Y-135147158D01*
X101831251Y-134247158D01*
G36*
X101831251Y-135147158D02*
G01*
X100931251Y-135147158D01*
X101831251Y-134247158D01*
X101831251Y-135147158D01*
G37*
%TO.C,RGB7*%
X75637501Y-77097158D02*
X74737501Y-77997158D01*
X75637501Y-77997158D01*
X75637501Y-77097158D01*
G36*
X75637501Y-77997158D02*
G01*
X74737501Y-77997158D01*
X75637501Y-77097158D01*
X75637501Y-77997158D01*
G37*
%TO.C,RGB11*%
X61350001Y-96147158D02*
X60450001Y-97047158D01*
X61350001Y-97047158D01*
X61350001Y-96147158D01*
G36*
X61350001Y-97047158D02*
G01*
X60450001Y-97047158D01*
X61350001Y-96147158D01*
X61350001Y-97047158D01*
G37*
%TO.C,RGB9*%
X113737501Y-77097158D02*
X112837501Y-77997158D01*
X113737501Y-77997158D01*
X113737501Y-77097158D01*
G36*
X113737501Y-77997158D02*
G01*
X112837501Y-77997158D01*
X113737501Y-77097158D01*
X113737501Y-77997158D01*
G37*
%TD*%
M02*
