%TF.GenerationSoftware,KiCad,Pcbnew,10.0.3*%
%TF.CreationDate,2026-06-08T19:47:06-04:00*%
%TF.ProjectId,Hackpad,4861636b-7061-4642-9e6b-696361645f70,rev?*%
%TF.SameCoordinates,Original*%
%TF.FileFunction,Soldermask,Bot*%
%TF.FilePolarity,Negative*%
%FSLAX46Y46*%
G04 Gerber Fmt 4.6, Leading zero omitted, Abs format (unit mm)*
G04 Created by KiCad (PCBNEW 10.0.3) date 2026-06-08 19:47:06*
%MOMM*%
%LPD*%
G01*
G04 APERTURE LIST*
G04 Aperture macros list*
%AMRoundRect*
0 Rectangle with rounded corners*
0 $1 Rounding radius*
0 $2 $3 $4 $5 $6 $7 $8 $9 X,Y pos of 4 corners*
0 Add a 4 corners polygon primitive as box body*
4,1,4,$2,$3,$4,$5,$6,$7,$8,$9,$2,$3,0*
0 Add four circle primitives for the rounded corners*
1,1,$1+$1,$2,$3*
1,1,$1+$1,$4,$5*
1,1,$1+$1,$6,$7*
1,1,$1+$1,$8,$9*
0 Add four rect primitives between the rounded corners*
20,1,$1+$1,$2,$3,$4,$5,0*
20,1,$1+$1,$4,$5,$6,$7,0*
20,1,$1+$1,$6,$7,$8,$9,0*
20,1,$1+$1,$8,$9,$2,$3,0*%
G04 Aperture macros list end*
%ADD10RoundRect,0.250000X0.550000X-0.550000X0.550000X0.550000X-0.550000X0.550000X-0.550000X-0.550000X0*%
%ADD11C,1.600000*%
%ADD12RoundRect,0.082000X-0.718000X0.328000X-0.718000X-0.328000X0.718000X-0.328000X0.718000X0.328000X0*%
%ADD13C,1.700000*%
%ADD14C,4.000000*%
%ADD15C,2.200000*%
%ADD16C,3.200000*%
%ADD17C,3.050000*%
%ADD18R,1.700000X3.500000*%
%ADD19O,1.700000X3.600000*%
%ADD20O,1.700000X3.700000*%
%ADD21C,0.600000*%
G04 APERTURE END LIST*
D10*
%TO.C,D6*%
X66581250Y-38417500D03*
D11*
X66581250Y-28257500D03*
%TD*%
D12*
%TO.C,RGB8*%
X87887501Y-75347158D03*
X87887501Y-76847158D03*
X93087501Y-76847158D03*
X93087501Y-75347158D03*
%TD*%
%TO.C,RGB5*%
X25975001Y-75347158D03*
X25975001Y-76847158D03*
X31175001Y-76847158D03*
X31175001Y-75347158D03*
%TD*%
D13*
%TO.C,ESC1*%
X28257500Y-33337500D03*
D14*
X33337500Y-33337500D03*
D13*
X38417500Y-33337500D03*
D15*
X35877500Y-28257500D03*
X29527500Y-30797500D03*
%TD*%
D12*
%TO.C,RGB1*%
X30737501Y-37247158D03*
X30737501Y-38747158D03*
X35937501Y-38747158D03*
X35937501Y-37247158D03*
%TD*%
D16*
%TO.C,REF\u002A\u002A*%
X16943750Y-27781250D03*
%TD*%
%TO.C,REF\u002A\u002A*%
X107156250Y-27781250D03*
%TD*%
D12*
%TO.C,RGB6*%
X49787501Y-75347158D03*
X49787501Y-76847158D03*
X54987501Y-76847158D03*
X54987501Y-75347158D03*
%TD*%
D13*
%TO.C,R1*%
X104457500Y-71437500D03*
D14*
X109537500Y-71437500D03*
D13*
X114617500Y-71437500D03*
D15*
X112077500Y-66357500D03*
X105727500Y-68897500D03*
%TD*%
D17*
%TO.C,SPACE1*%
X47631250Y-121587500D03*
D14*
X47631250Y-136827500D03*
D13*
X92551250Y-128587500D03*
D14*
X97631250Y-128587500D03*
D13*
X102711250Y-128587500D03*
D17*
X147631250Y-121587500D03*
D14*
X147631250Y-136827500D03*
D15*
X100171250Y-123507500D03*
X93821250Y-126047500D03*
%TD*%
D10*
%TO.C,D8*%
X73681250Y-38417500D03*
D11*
X73681250Y-28257500D03*
%TD*%
D10*
%TO.C,D3*%
X55931250Y-38417500D03*
D11*
X55931250Y-28257500D03*
%TD*%
D13*
%TO.C,D16*%
X90170000Y-90487500D03*
D14*
X95250000Y-90487500D03*
D13*
X100330000Y-90487500D03*
D15*
X97790000Y-85407500D03*
X91440000Y-87947500D03*
%TD*%
D16*
%TO.C,REF\u002A\u002A*%
X155575000Y-136525000D03*
%TD*%
%TO.C,REF\u002A\u002A*%
X15875000Y-136525000D03*
%TD*%
D10*
%TO.C,D13*%
X91431250Y-38417500D03*
D11*
X91431250Y-28257500D03*
%TD*%
D12*
%TO.C,RGB10*%
X33118751Y-113447158D03*
X33118751Y-114947158D03*
X38318751Y-114947158D03*
X38318751Y-113447158D03*
%TD*%
%TO.C,RGB3*%
X68837501Y-56297158D03*
X68837501Y-57797158D03*
X74037501Y-57797158D03*
X74037501Y-56297158D03*
%TD*%
D10*
%TO.C,D1*%
X48831250Y-38417500D03*
D11*
X48831250Y-28257500D03*
%TD*%
D12*
%TO.C,RGB2*%
X49787501Y-56443750D03*
X49787501Y-57943750D03*
X54987501Y-57943750D03*
X54987501Y-56443750D03*
%TD*%
D13*
%TO.C,N3*%
X85407500Y-52387500D03*
D14*
X90487500Y-52387500D03*
D13*
X95567500Y-52387500D03*
D15*
X93027500Y-47307500D03*
X86677500Y-49847500D03*
%TD*%
D10*
%TO.C,D9*%
X77231250Y-38417500D03*
D11*
X77231250Y-28257500D03*
%TD*%
D10*
%TO.C,D15*%
X98531250Y-38417500D03*
D11*
X98531250Y-28257500D03*
%TD*%
D10*
%TO.C,D14*%
X94981250Y-38417500D03*
D11*
X94981250Y-28257500D03*
%TD*%
D13*
%TO.C,N2*%
X66357500Y-52387500D03*
D14*
X71437500Y-52387500D03*
D13*
X76517500Y-52387500D03*
D15*
X73977500Y-47307500D03*
X67627500Y-49847500D03*
%TD*%
D17*
%TO.C,SHIFT1*%
X23818750Y-102537500D03*
D14*
X23818750Y-117777500D03*
D13*
X30638750Y-109537500D03*
D14*
X35718750Y-109537500D03*
D13*
X40798750Y-109537500D03*
D17*
X47618750Y-102537500D03*
D14*
X47618750Y-117777500D03*
D15*
X38258750Y-104457500D03*
X31908750Y-106997500D03*
%TD*%
D12*
%TO.C,RGB12*%
X73600001Y-94397158D03*
X73600001Y-95897158D03*
X78800001Y-95897158D03*
X78800001Y-94397158D03*
%TD*%
D10*
%TO.C,D12*%
X87881250Y-38417500D03*
D11*
X87881250Y-28257500D03*
%TD*%
D13*
%TO.C,TAB1*%
X23495000Y-71437500D03*
D14*
X28575000Y-71437500D03*
D13*
X33655000Y-71437500D03*
D15*
X31115000Y-66357500D03*
X24765000Y-68897500D03*
%TD*%
D12*
%TO.C,RGB13*%
X92650001Y-94397158D03*
X92650001Y-95897158D03*
X97850001Y-95897158D03*
X97850001Y-94397158D03*
%TD*%
%TO.C,RGB14*%
X23593751Y-132497158D03*
X23593751Y-133997158D03*
X28793751Y-133997158D03*
X28793751Y-132497158D03*
%TD*%
%TO.C,RGB4*%
X87887501Y-56297158D03*
X87887501Y-57797158D03*
X93087501Y-57797158D03*
X93087501Y-56297158D03*
%TD*%
%TO.C,RGB15*%
X95031251Y-132497158D03*
X95031251Y-133997158D03*
X100231251Y-133997158D03*
X100231251Y-132497158D03*
%TD*%
D10*
%TO.C,D7*%
X70131250Y-38417500D03*
D11*
X70131250Y-28257500D03*
%TD*%
D13*
%TO.C,N1*%
X47307500Y-52387500D03*
D14*
X52387500Y-52387500D03*
D13*
X57467500Y-52387500D03*
D15*
X54927500Y-47307500D03*
X48577500Y-49847500D03*
%TD*%
D13*
%TO.C,W1*%
X66357500Y-71437500D03*
D14*
X71437500Y-71437500D03*
D13*
X76517500Y-71437500D03*
D15*
X73977500Y-66357500D03*
X67627500Y-68897500D03*
%TD*%
D10*
%TO.C,D10*%
X80781250Y-38417500D03*
D11*
X80781250Y-28257500D03*
%TD*%
D12*
%TO.C,RGB7*%
X68837501Y-75347158D03*
X68837501Y-76847158D03*
X74037501Y-76847158D03*
X74037501Y-75347158D03*
%TD*%
D18*
%TO.C,U1*%
X16827500Y-60700000D03*
D19*
X19367500Y-60700000D03*
X21907500Y-60700000D03*
X24447500Y-60700000D03*
X26987500Y-60700000D03*
X29527500Y-60700000D03*
X32067500Y-60700000D03*
X32067500Y-43450000D03*
X29527500Y-43450000D03*
X26987500Y-43450000D03*
D20*
X24447500Y-43450000D03*
X21907500Y-43450000D03*
X19367500Y-43450000D03*
X16827500Y-43450000D03*
%TD*%
D13*
%TO.C,CTRL1*%
X21113750Y-128587500D03*
D14*
X26193750Y-128587500D03*
D13*
X31273750Y-128587500D03*
D15*
X28733750Y-123507500D03*
X22383750Y-126047500D03*
%TD*%
D13*
%TO.C,Q1*%
X47307500Y-71437500D03*
D14*
X52387500Y-71437500D03*
D13*
X57467500Y-71437500D03*
D15*
X54927500Y-66357500D03*
X48577500Y-68897500D03*
%TD*%
D13*
%TO.C,A1*%
X52070000Y-90487500D03*
D14*
X57150000Y-90487500D03*
D13*
X62230000Y-90487500D03*
D15*
X59690000Y-85407500D03*
X53340000Y-87947500D03*
%TD*%
D12*
%TO.C,RGB11*%
X54550001Y-94397158D03*
X54550001Y-95897158D03*
X59750001Y-95897158D03*
X59750001Y-94397158D03*
%TD*%
D10*
%TO.C,D5*%
X63031250Y-38417500D03*
D11*
X63031250Y-28257500D03*
%TD*%
D10*
%TO.C,D11*%
X84331250Y-38417500D03*
D11*
X84331250Y-28257500D03*
%TD*%
D10*
%TO.C,D2*%
X52381250Y-38417500D03*
D11*
X52381250Y-28257500D03*
%TD*%
D10*
%TO.C,D4*%
X59481250Y-38417500D03*
D11*
X59481250Y-28257500D03*
%TD*%
D12*
%TO.C,RGB9*%
X106937501Y-75347158D03*
X106937501Y-76847158D03*
X112137501Y-76847158D03*
X112137501Y-75347158D03*
%TD*%
D13*
%TO.C,S1*%
X71120000Y-90487500D03*
D14*
X76200000Y-90487500D03*
D13*
X81280000Y-90487500D03*
D15*
X78740000Y-85407500D03*
X72390000Y-87947500D03*
%TD*%
D13*
%TO.C,E1*%
X85407500Y-71437500D03*
D14*
X90487500Y-71437500D03*
D13*
X95567500Y-71437500D03*
D15*
X93027500Y-66357500D03*
X86677500Y-68897500D03*
%TD*%
D21*
X130300000Y-103700000D03*
X129900000Y-102100000D03*
X137200000Y-106700000D03*
X125200000Y-109900000D03*
X127500000Y-115700000D03*
X127000000Y-104000000D03*
X131600000Y-104100000D03*
X126900000Y-105300000D03*
X131300000Y-108400000D03*
X140500000Y-109800000D03*
X135700000Y-105100000D03*
X136900000Y-108500000D03*
X127100000Y-104600000D03*
X140600000Y-111200000D03*
X125500000Y-107300000D03*
X126000000Y-109600000D03*
X140600000Y-110600000D03*
X129500000Y-107200000D03*
X125800000Y-115300000D03*
X129700000Y-108800000D03*
X126200000Y-116000000D03*
X133000000Y-112900000D03*
X130000000Y-101600000D03*
X129000000Y-103200000D03*
X124600000Y-110500000D03*
X128600000Y-111800000D03*
X130300000Y-114900000D03*
X136700000Y-105200000D03*
X127000000Y-110300000D03*
X126800000Y-116000000D03*
X136100000Y-102100000D03*
X126300000Y-107200000D03*
X136800000Y-102300000D03*
X138400000Y-110300000D03*
X128300000Y-114200000D03*
X134900000Y-103300000D03*
X127400000Y-107600000D03*
X134900000Y-105900000D03*
X136500000Y-110700000D03*
X131800000Y-100800000D03*
X135700000Y-108800000D03*
X132000000Y-114300000D03*
X135500000Y-103600000D03*
X127100000Y-106000000D03*
X129400000Y-108900000D03*
X126900000Y-108700000D03*
X124800000Y-112300000D03*
X132000000Y-108700000D03*
X133600000Y-114100000D03*
X136500000Y-113300000D03*
X129700000Y-105800000D03*
X125900000Y-108800000D03*
X139700000Y-107200000D03*
X127800000Y-101300000D03*
X127834642Y-105123577D03*
X128700000Y-105300000D03*
X127200000Y-113200000D03*
X133300000Y-109600000D03*
X125200000Y-105900000D03*
X137200000Y-103700000D03*
X135900000Y-107100000D03*
X138400000Y-104200000D03*
X132100000Y-110600000D03*
X137600000Y-103400000D03*
X134800000Y-107400000D03*
X131400000Y-109900000D03*
X140100000Y-108500000D03*
X129500000Y-115100000D03*
X127500000Y-104500000D03*
X125700000Y-108000000D03*
X130200000Y-110200000D03*
X139900000Y-107800000D03*
X129600000Y-103400000D03*
X128900000Y-109000000D03*
X136800000Y-104200000D03*
X131200000Y-100500000D03*
X137700000Y-111700000D03*
X127500000Y-108300000D03*
X132700000Y-108000000D03*
X131400000Y-114600000D03*
X138000000Y-106500000D03*
X134100000Y-105000000D03*
X132300000Y-111900000D03*
X133200000Y-111600000D03*
X131200000Y-112100000D03*
X128300000Y-103000000D03*
X134400000Y-113800000D03*
X131500000Y-102200000D03*
X127900000Y-110100000D03*
X129400000Y-110700000D03*
X134200000Y-110200000D03*
X133300000Y-101200000D03*
X132000000Y-102100000D03*
X139100000Y-106300000D03*
X126600000Y-109600000D03*
X126300000Y-103800000D03*
X135800000Y-107800000D03*
X127900000Y-109300000D03*
X133200000Y-110400000D03*
X126700000Y-104500000D03*
X127400000Y-101700000D03*
X134300000Y-111300000D03*
X134000000Y-108400000D03*
X134900000Y-106400000D03*
X137200000Y-113100000D03*
X128100000Y-115500000D03*
X139100000Y-112500000D03*
X136300000Y-104600000D03*
X132800000Y-114200000D03*
X134500000Y-109200000D03*
X139500000Y-106700000D03*
X135400000Y-110900000D03*
X127100000Y-102800000D03*
X125600000Y-114700000D03*
X127400000Y-106900000D03*
X133100000Y-108600000D03*
X133500000Y-104800000D03*
X125200000Y-105100000D03*
X137600000Y-107400000D03*
X125300000Y-104400000D03*
X130600000Y-105800000D03*
X130600000Y-100400000D03*
X138400000Y-105500000D03*
X131000000Y-111100000D03*
X125800000Y-103900000D03*
X126800000Y-112200000D03*
X128700000Y-100600000D03*
X135900000Y-113500000D03*
X133100000Y-105900000D03*
X125400000Y-114000000D03*
X140400000Y-111900000D03*
X136000000Y-105700000D03*
X126200000Y-106400000D03*
X125700000Y-110700000D03*
X138300000Y-102900000D03*
X126100000Y-104800000D03*
X133400000Y-103200000D03*
X134800000Y-108100000D03*
X136900000Y-105100000D03*
X133900000Y-101400000D03*
X129500000Y-111600000D03*
X136600000Y-109700000D03*
X129900000Y-100200000D03*
X126900000Y-103400000D03*
X135800000Y-105800000D03*
X138600000Y-111400000D03*
X138600000Y-107200000D03*
X134900000Y-105400000D03*
X127000000Y-114600000D03*
X128400000Y-109200000D03*
X134600000Y-101600000D03*
X138400000Y-104800000D03*
X137700000Y-104300000D03*
X128700000Y-107300000D03*
X127100000Y-102200000D03*
X138500000Y-103600000D03*
X129500000Y-106500000D03*
X132900000Y-104600000D03*
X127700000Y-102800000D03*
X127300000Y-109400000D03*
X135400000Y-101800000D03*
X125300000Y-106600000D03*
X133300000Y-102700000D03*
X128100000Y-106200000D03*
X132100000Y-109600000D03*
X136500000Y-106900000D03*
X129700000Y-113900000D03*
X127834642Y-105123577D03*
X128200000Y-101000000D03*
X134300000Y-107600000D03*
X139900000Y-112200000D03*
X139400000Y-111100000D03*
X133700000Y-107700000D03*
X133300000Y-107900000D03*
X136500000Y-112000000D03*
X132600000Y-101000000D03*
X130200000Y-109400000D03*
X135300000Y-109700000D03*
X135000000Y-113600000D03*
X131700000Y-105800000D03*
X129500000Y-101700000D03*
X131800000Y-102600000D03*
X128000000Y-107500000D03*
X130900000Y-114700000D03*
X131300000Y-109000000D03*
X138500000Y-112700000D03*
X132400000Y-105800000D03*
X135000000Y-103800000D03*
X134400000Y-105900000D03*
X138000000Y-103100000D03*
X135300000Y-107300000D03*
X132200000Y-104300000D03*
X140300000Y-109200000D03*
X138500000Y-106100000D03*
X138400000Y-108200000D03*
X136600000Y-107700000D03*
X132100000Y-108200000D03*
X137500000Y-102500000D03*
X129300000Y-109700000D03*
X129400000Y-112700000D03*
X128800000Y-115300000D03*
X138000000Y-109100000D03*
X134900000Y-106900000D03*
X126000000Y-105300000D03*
X130200000Y-108700000D03*
X126100000Y-111300000D03*
X127000000Y-107700000D03*
X133800000Y-105800000D03*
X128500000Y-110700000D03*
X131000000Y-104000000D03*
X129300000Y-100200000D03*
X124600000Y-111400000D03*
X130700000Y-108500000D03*
X125100000Y-113100000D03*
X129000000Y-103200000D03*
X130200000Y-112500000D03*
X137900000Y-112900000D03*
X133900000Y-103000000D03*
M02*
