%TF.GenerationSoftware,KiCad,Pcbnew,10.0.3*%
%TF.CreationDate,2026-06-08T19:47:06-04:00*%
%TF.ProjectId,Hackpad,4861636b-7061-4642-9e6b-696361645f70,rev?*%
%TF.SameCoordinates,Original*%
%TF.FileFunction,Profile,NP*%
%FSLAX46Y46*%
G04 Gerber Fmt 4.6, Leading zero omitted, Abs format (unit mm)*
G04 Created by KiCad (PCBNEW 10.0.3) date 2026-06-08 19:47:06*
%MOMM*%
%LPD*%
G01*
G04 APERTURE LIST*
%TA.AperFunction,Profile*%
%ADD10C,0.050000*%
%TD*%
%TA.AperFunction,Profile*%
%ADD11C,0.100000*%
%TD*%
G04 APERTURE END LIST*
D10*
X12700000Y-23812500D02*
X12700000Y-140493750D01*
X12700000Y-140493750D02*
X159543750Y-140493750D01*
X109537500Y-23812500D02*
X12700000Y-23812500D01*
X159543750Y-118268750D02*
X109537500Y-23812500D01*
X159543750Y-140493750D02*
X159543750Y-118268750D01*
%TO.C,RGB8*%
D11*
X88787502Y-76800000D02*
X88787502Y-75394316D01*
X89693049Y-74597159D02*
X91281954Y-74597159D01*
X91281953Y-77597158D02*
X89693049Y-77597158D01*
X92187500Y-75394316D02*
X92187500Y-76800000D01*
X88738017Y-75177438D02*
G75*
G02*
X88787502Y-75394316I-450505J-216876D01*
G01*
X88738017Y-75177438D02*
G75*
G02*
X89440790Y-74528859I450515J216878D01*
G01*
X88787502Y-76800001D02*
G75*
G02*
X88738017Y-77016878I-499990J-1D01*
G01*
X89440790Y-77665455D02*
G75*
G02*
X88738017Y-77016878I-252258J431700D01*
G01*
X89440791Y-77665457D02*
G75*
G02*
X89693049Y-77597158I252261J-431710D01*
G01*
X89693048Y-74597158D02*
G75*
G02*
X89440790Y-74528859I3J500009D01*
G01*
X91281953Y-77597158D02*
G75*
G02*
X91534212Y-77665457I-3J-500012D01*
G01*
X91534212Y-74528860D02*
G75*
G02*
X91281954Y-74597160I-252262J431710D01*
G01*
X91534212Y-74528860D02*
G75*
G02*
X92236984Y-75177438I252258J-431700D01*
G01*
X92187500Y-75394315D02*
G75*
G02*
X92236979Y-75177435I500000J15D01*
G01*
X92236985Y-77016877D02*
G75*
G02*
X91534212Y-77665457I-450514J-216880D01*
G01*
X92236985Y-77016878D02*
G75*
G02*
X92187500Y-76800000I450515J216878D01*
G01*
%TO.C,RGB5*%
X26875002Y-76800000D02*
X26875002Y-75394316D01*
X27780549Y-74597159D02*
X29369454Y-74597159D01*
X29369453Y-77597158D02*
X27780549Y-77597158D01*
X30275000Y-75394316D02*
X30275000Y-76800000D01*
X26825517Y-75177438D02*
G75*
G02*
X26875002Y-75394316I-450505J-216876D01*
G01*
X26825517Y-75177438D02*
G75*
G02*
X27528290Y-74528859I450515J216878D01*
G01*
X26875002Y-76800001D02*
G75*
G02*
X26825517Y-77016878I-499990J-1D01*
G01*
X27528290Y-77665455D02*
G75*
G02*
X26825517Y-77016878I-252258J431700D01*
G01*
X27528291Y-77665457D02*
G75*
G02*
X27780549Y-77597158I252261J-431710D01*
G01*
X27780548Y-74597158D02*
G75*
G02*
X27528290Y-74528859I3J500009D01*
G01*
X29369453Y-77597158D02*
G75*
G02*
X29621712Y-77665457I-3J-500012D01*
G01*
X29621712Y-74528860D02*
G75*
G02*
X29369454Y-74597160I-252262J431710D01*
G01*
X29621712Y-74528860D02*
G75*
G02*
X30324484Y-75177438I252258J-431700D01*
G01*
X30275000Y-75394315D02*
G75*
G02*
X30324479Y-75177435I500000J15D01*
G01*
X30324485Y-77016877D02*
G75*
G02*
X29621712Y-77665457I-450514J-216880D01*
G01*
X30324485Y-77016878D02*
G75*
G02*
X30275000Y-76800000I450515J216878D01*
G01*
%TO.C,RGB1*%
X31637502Y-38700000D02*
X31637502Y-37294316D01*
X32543049Y-36497159D02*
X34131954Y-36497159D01*
X34131953Y-39497158D02*
X32543049Y-39497158D01*
X35037500Y-37294316D02*
X35037500Y-38700000D01*
X31588017Y-37077438D02*
G75*
G02*
X31637502Y-37294316I-450505J-216876D01*
G01*
X31588017Y-37077438D02*
G75*
G02*
X32290790Y-36428859I450515J216878D01*
G01*
X31637502Y-38700001D02*
G75*
G02*
X31588017Y-38916878I-499990J-1D01*
G01*
X32290790Y-39565455D02*
G75*
G02*
X31588017Y-38916878I-252258J431700D01*
G01*
X32290791Y-39565457D02*
G75*
G02*
X32543049Y-39497158I252261J-431710D01*
G01*
X32543048Y-36497158D02*
G75*
G02*
X32290790Y-36428859I3J500009D01*
G01*
X34131953Y-39497158D02*
G75*
G02*
X34384212Y-39565457I-3J-500012D01*
G01*
X34384212Y-36428860D02*
G75*
G02*
X34131954Y-36497160I-252262J431710D01*
G01*
X34384212Y-36428860D02*
G75*
G02*
X35086984Y-37077438I252258J-431700D01*
G01*
X35037500Y-37294315D02*
G75*
G02*
X35086979Y-37077435I500000J15D01*
G01*
X35086985Y-38916877D02*
G75*
G02*
X34384212Y-39565457I-450514J-216880D01*
G01*
X35086985Y-38916878D02*
G75*
G02*
X35037500Y-38700000I450515J216878D01*
G01*
%TO.C,RGB6*%
X50687502Y-76800000D02*
X50687502Y-75394316D01*
X51593049Y-74597159D02*
X53181954Y-74597159D01*
X53181953Y-77597158D02*
X51593049Y-77597158D01*
X54087500Y-75394316D02*
X54087500Y-76800000D01*
X50638017Y-75177438D02*
G75*
G02*
X50687502Y-75394316I-450505J-216876D01*
G01*
X50638017Y-75177438D02*
G75*
G02*
X51340790Y-74528859I450515J216878D01*
G01*
X50687502Y-76800001D02*
G75*
G02*
X50638017Y-77016878I-499990J-1D01*
G01*
X51340790Y-77665455D02*
G75*
G02*
X50638017Y-77016878I-252258J431700D01*
G01*
X51340791Y-77665457D02*
G75*
G02*
X51593049Y-77597158I252261J-431710D01*
G01*
X51593048Y-74597158D02*
G75*
G02*
X51340790Y-74528859I3J500009D01*
G01*
X53181953Y-77597158D02*
G75*
G02*
X53434212Y-77665457I-3J-500012D01*
G01*
X53434212Y-74528860D02*
G75*
G02*
X53181954Y-74597160I-252262J431710D01*
G01*
X53434212Y-74528860D02*
G75*
G02*
X54136984Y-75177438I252258J-431700D01*
G01*
X54087500Y-75394315D02*
G75*
G02*
X54136979Y-75177435I500000J15D01*
G01*
X54136985Y-77016877D02*
G75*
G02*
X53434212Y-77665457I-450514J-216880D01*
G01*
X54136985Y-77016878D02*
G75*
G02*
X54087500Y-76800000I450515J216878D01*
G01*
%TO.C,RGB10*%
X34018752Y-114900000D02*
X34018752Y-113494316D01*
X34924299Y-112697159D02*
X36513204Y-112697159D01*
X36513203Y-115697158D02*
X34924299Y-115697158D01*
X37418750Y-113494316D02*
X37418750Y-114900000D01*
X33969267Y-113277438D02*
G75*
G02*
X34018752Y-113494316I-450505J-216876D01*
G01*
X33969267Y-113277438D02*
G75*
G02*
X34672040Y-112628859I450515J216878D01*
G01*
X34018752Y-114900001D02*
G75*
G02*
X33969267Y-115116878I-499990J-1D01*
G01*
X34672040Y-115765455D02*
G75*
G02*
X33969267Y-115116878I-252258J431700D01*
G01*
X34672041Y-115765457D02*
G75*
G02*
X34924299Y-115697158I252261J-431710D01*
G01*
X34924298Y-112697158D02*
G75*
G02*
X34672040Y-112628859I3J500009D01*
G01*
X36513203Y-115697158D02*
G75*
G02*
X36765462Y-115765457I-3J-500012D01*
G01*
X36765462Y-112628860D02*
G75*
G02*
X36513204Y-112697160I-252262J431710D01*
G01*
X36765462Y-112628860D02*
G75*
G02*
X37468234Y-113277438I252258J-431700D01*
G01*
X37418750Y-113494315D02*
G75*
G02*
X37468229Y-113277435I500000J15D01*
G01*
X37468235Y-115116877D02*
G75*
G02*
X36765462Y-115765457I-450514J-216880D01*
G01*
X37468235Y-115116878D02*
G75*
G02*
X37418750Y-114900000I450515J216878D01*
G01*
%TO.C,RGB3*%
X69737502Y-57750000D02*
X69737502Y-56344316D01*
X70643049Y-55547159D02*
X72231954Y-55547159D01*
X72231953Y-58547158D02*
X70643049Y-58547158D01*
X73137500Y-56344316D02*
X73137500Y-57750000D01*
X69688017Y-56127438D02*
G75*
G02*
X69737502Y-56344316I-450505J-216876D01*
G01*
X69688017Y-56127438D02*
G75*
G02*
X70390790Y-55478859I450515J216878D01*
G01*
X69737502Y-57750001D02*
G75*
G02*
X69688017Y-57966878I-499990J-1D01*
G01*
X70390790Y-58615455D02*
G75*
G02*
X69688017Y-57966878I-252258J431700D01*
G01*
X70390791Y-58615457D02*
G75*
G02*
X70643049Y-58547158I252261J-431710D01*
G01*
X70643048Y-55547158D02*
G75*
G02*
X70390790Y-55478859I3J500009D01*
G01*
X72231953Y-58547158D02*
G75*
G02*
X72484212Y-58615457I-3J-500012D01*
G01*
X72484212Y-55478860D02*
G75*
G02*
X72231954Y-55547160I-252262J431710D01*
G01*
X72484212Y-55478860D02*
G75*
G02*
X73186984Y-56127438I252258J-431700D01*
G01*
X73137500Y-56344315D02*
G75*
G02*
X73186979Y-56127435I500000J15D01*
G01*
X73186985Y-57966877D02*
G75*
G02*
X72484212Y-58615457I-450514J-216880D01*
G01*
X73186985Y-57966878D02*
G75*
G02*
X73137500Y-57750000I450515J216878D01*
G01*
%TO.C,RGB2*%
X50687502Y-57896592D02*
X50687502Y-56490908D01*
X51593049Y-55693751D02*
X53181954Y-55693751D01*
X53181953Y-58693750D02*
X51593049Y-58693750D01*
X54087500Y-56490908D02*
X54087500Y-57896592D01*
X50638017Y-56274030D02*
G75*
G02*
X50687502Y-56490908I-450505J-216876D01*
G01*
X50638017Y-56274030D02*
G75*
G02*
X51340790Y-55625451I450515J216878D01*
G01*
X50687502Y-57896593D02*
G75*
G02*
X50638017Y-58113470I-499990J-1D01*
G01*
X51340790Y-58762047D02*
G75*
G02*
X50638017Y-58113470I-252258J431700D01*
G01*
X51340791Y-58762049D02*
G75*
G02*
X51593049Y-58693750I252261J-431710D01*
G01*
X51593048Y-55693750D02*
G75*
G02*
X51340790Y-55625451I3J500009D01*
G01*
X53181953Y-58693750D02*
G75*
G02*
X53434212Y-58762049I-3J-500012D01*
G01*
X53434212Y-55625452D02*
G75*
G02*
X53181954Y-55693752I-252262J431710D01*
G01*
X53434212Y-55625452D02*
G75*
G02*
X54136984Y-56274030I252258J-431700D01*
G01*
X54087500Y-56490907D02*
G75*
G02*
X54136979Y-56274027I500000J15D01*
G01*
X54136985Y-58113469D02*
G75*
G02*
X53434212Y-58762049I-450514J-216880D01*
G01*
X54136985Y-58113470D02*
G75*
G02*
X54087500Y-57896592I450515J216878D01*
G01*
%TO.C,RGB12*%
X74500002Y-95850000D02*
X74500002Y-94444316D01*
X75405549Y-93647159D02*
X76994454Y-93647159D01*
X76994453Y-96647158D02*
X75405549Y-96647158D01*
X77900000Y-94444316D02*
X77900000Y-95850000D01*
X74450517Y-94227438D02*
G75*
G02*
X74500002Y-94444316I-450505J-216876D01*
G01*
X74450517Y-94227438D02*
G75*
G02*
X75153290Y-93578859I450515J216878D01*
G01*
X74500002Y-95850001D02*
G75*
G02*
X74450517Y-96066878I-499990J-1D01*
G01*
X75153290Y-96715455D02*
G75*
G02*
X74450517Y-96066878I-252258J431700D01*
G01*
X75153291Y-96715457D02*
G75*
G02*
X75405549Y-96647158I252261J-431710D01*
G01*
X75405548Y-93647158D02*
G75*
G02*
X75153290Y-93578859I3J500009D01*
G01*
X76994453Y-96647158D02*
G75*
G02*
X77246712Y-96715457I-3J-500012D01*
G01*
X77246712Y-93578860D02*
G75*
G02*
X76994454Y-93647160I-252262J431710D01*
G01*
X77246712Y-93578860D02*
G75*
G02*
X77949484Y-94227438I252258J-431700D01*
G01*
X77900000Y-94444315D02*
G75*
G02*
X77949479Y-94227435I500000J15D01*
G01*
X77949485Y-96066877D02*
G75*
G02*
X77246712Y-96715457I-450514J-216880D01*
G01*
X77949485Y-96066878D02*
G75*
G02*
X77900000Y-95850000I450515J216878D01*
G01*
%TO.C,RGB13*%
X93550002Y-95850000D02*
X93550002Y-94444316D01*
X94455549Y-93647159D02*
X96044454Y-93647159D01*
X96044453Y-96647158D02*
X94455549Y-96647158D01*
X96950000Y-94444316D02*
X96950000Y-95850000D01*
X93500517Y-94227438D02*
G75*
G02*
X93550002Y-94444316I-450505J-216876D01*
G01*
X93500517Y-94227438D02*
G75*
G02*
X94203290Y-93578859I450515J216878D01*
G01*
X93550002Y-95850001D02*
G75*
G02*
X93500517Y-96066878I-499990J-1D01*
G01*
X94203290Y-96715455D02*
G75*
G02*
X93500517Y-96066878I-252258J431700D01*
G01*
X94203291Y-96715457D02*
G75*
G02*
X94455549Y-96647158I252261J-431710D01*
G01*
X94455548Y-93647158D02*
G75*
G02*
X94203290Y-93578859I3J500009D01*
G01*
X96044453Y-96647158D02*
G75*
G02*
X96296712Y-96715457I-3J-500012D01*
G01*
X96296712Y-93578860D02*
G75*
G02*
X96044454Y-93647160I-252262J431710D01*
G01*
X96296712Y-93578860D02*
G75*
G02*
X96999484Y-94227438I252258J-431700D01*
G01*
X96950000Y-94444315D02*
G75*
G02*
X96999479Y-94227435I500000J15D01*
G01*
X96999485Y-96066877D02*
G75*
G02*
X96296712Y-96715457I-450514J-216880D01*
G01*
X96999485Y-96066878D02*
G75*
G02*
X96950000Y-95850000I450515J216878D01*
G01*
%TO.C,RGB14*%
X24493752Y-133950000D02*
X24493752Y-132544316D01*
X25399299Y-131747159D02*
X26988204Y-131747159D01*
X26988203Y-134747158D02*
X25399299Y-134747158D01*
X27893750Y-132544316D02*
X27893750Y-133950000D01*
X24444267Y-132327438D02*
G75*
G02*
X24493752Y-132544316I-450505J-216876D01*
G01*
X24444267Y-132327438D02*
G75*
G02*
X25147040Y-131678859I450515J216878D01*
G01*
X24493752Y-133950001D02*
G75*
G02*
X24444267Y-134166878I-499990J-1D01*
G01*
X25147040Y-134815455D02*
G75*
G02*
X24444267Y-134166878I-252258J431700D01*
G01*
X25147041Y-134815457D02*
G75*
G02*
X25399299Y-134747158I252261J-431710D01*
G01*
X25399298Y-131747158D02*
G75*
G02*
X25147040Y-131678859I3J500009D01*
G01*
X26988203Y-134747158D02*
G75*
G02*
X27240462Y-134815457I-3J-500012D01*
G01*
X27240462Y-131678860D02*
G75*
G02*
X26988204Y-131747160I-252262J431710D01*
G01*
X27240462Y-131678860D02*
G75*
G02*
X27943234Y-132327438I252258J-431700D01*
G01*
X27893750Y-132544315D02*
G75*
G02*
X27943229Y-132327435I500000J15D01*
G01*
X27943235Y-134166877D02*
G75*
G02*
X27240462Y-134815457I-450514J-216880D01*
G01*
X27943235Y-134166878D02*
G75*
G02*
X27893750Y-133950000I450515J216878D01*
G01*
%TO.C,RGB4*%
X88787502Y-57750000D02*
X88787502Y-56344316D01*
X89693049Y-55547159D02*
X91281954Y-55547159D01*
X91281953Y-58547158D02*
X89693049Y-58547158D01*
X92187500Y-56344316D02*
X92187500Y-57750000D01*
X88738017Y-56127438D02*
G75*
G02*
X88787502Y-56344316I-450505J-216876D01*
G01*
X88738017Y-56127438D02*
G75*
G02*
X89440790Y-55478859I450515J216878D01*
G01*
X88787502Y-57750001D02*
G75*
G02*
X88738017Y-57966878I-499990J-1D01*
G01*
X89440790Y-58615455D02*
G75*
G02*
X88738017Y-57966878I-252258J431700D01*
G01*
X89440791Y-58615457D02*
G75*
G02*
X89693049Y-58547158I252261J-431710D01*
G01*
X89693048Y-55547158D02*
G75*
G02*
X89440790Y-55478859I3J500009D01*
G01*
X91281953Y-58547158D02*
G75*
G02*
X91534212Y-58615457I-3J-500012D01*
G01*
X91534212Y-55478860D02*
G75*
G02*
X91281954Y-55547160I-252262J431710D01*
G01*
X91534212Y-55478860D02*
G75*
G02*
X92236984Y-56127438I252258J-431700D01*
G01*
X92187500Y-56344315D02*
G75*
G02*
X92236979Y-56127435I500000J15D01*
G01*
X92236985Y-57966877D02*
G75*
G02*
X91534212Y-58615457I-450514J-216880D01*
G01*
X92236985Y-57966878D02*
G75*
G02*
X92187500Y-57750000I450515J216878D01*
G01*
%TO.C,RGB15*%
X95931252Y-133950000D02*
X95931252Y-132544316D01*
X96836799Y-131747159D02*
X98425704Y-131747159D01*
X98425703Y-134747158D02*
X96836799Y-134747158D01*
X99331250Y-132544316D02*
X99331250Y-133950000D01*
X95881767Y-132327438D02*
G75*
G02*
X95931252Y-132544316I-450505J-216876D01*
G01*
X95881767Y-132327438D02*
G75*
G02*
X96584540Y-131678859I450515J216878D01*
G01*
X95931252Y-133950001D02*
G75*
G02*
X95881767Y-134166878I-499990J-1D01*
G01*
X96584540Y-134815455D02*
G75*
G02*
X95881767Y-134166878I-252258J431700D01*
G01*
X96584541Y-134815457D02*
G75*
G02*
X96836799Y-134747158I252261J-431710D01*
G01*
X96836798Y-131747158D02*
G75*
G02*
X96584540Y-131678859I3J500009D01*
G01*
X98425703Y-134747158D02*
G75*
G02*
X98677962Y-134815457I-3J-500012D01*
G01*
X98677962Y-131678860D02*
G75*
G02*
X98425704Y-131747160I-252262J431710D01*
G01*
X98677962Y-131678860D02*
G75*
G02*
X99380734Y-132327438I252258J-431700D01*
G01*
X99331250Y-132544315D02*
G75*
G02*
X99380729Y-132327435I500000J15D01*
G01*
X99380735Y-134166877D02*
G75*
G02*
X98677962Y-134815457I-450514J-216880D01*
G01*
X99380735Y-134166878D02*
G75*
G02*
X99331250Y-133950000I450515J216878D01*
G01*
%TO.C,RGB7*%
X69737502Y-76800000D02*
X69737502Y-75394316D01*
X70643049Y-74597159D02*
X72231954Y-74597159D01*
X72231953Y-77597158D02*
X70643049Y-77597158D01*
X73137500Y-75394316D02*
X73137500Y-76800000D01*
X69688017Y-75177438D02*
G75*
G02*
X69737502Y-75394316I-450505J-216876D01*
G01*
X69688017Y-75177438D02*
G75*
G02*
X70390790Y-74528859I450515J216878D01*
G01*
X69737502Y-76800001D02*
G75*
G02*
X69688017Y-77016878I-499990J-1D01*
G01*
X70390790Y-77665455D02*
G75*
G02*
X69688017Y-77016878I-252258J431700D01*
G01*
X70390791Y-77665457D02*
G75*
G02*
X70643049Y-77597158I252261J-431710D01*
G01*
X70643048Y-74597158D02*
G75*
G02*
X70390790Y-74528859I3J500009D01*
G01*
X72231953Y-77597158D02*
G75*
G02*
X72484212Y-77665457I-3J-500012D01*
G01*
X72484212Y-74528860D02*
G75*
G02*
X72231954Y-74597160I-252262J431710D01*
G01*
X72484212Y-74528860D02*
G75*
G02*
X73186984Y-75177438I252258J-431700D01*
G01*
X73137500Y-75394315D02*
G75*
G02*
X73186979Y-75177435I500000J15D01*
G01*
X73186985Y-77016877D02*
G75*
G02*
X72484212Y-77665457I-450514J-216880D01*
G01*
X73186985Y-77016878D02*
G75*
G02*
X73137500Y-76800000I450515J216878D01*
G01*
%TO.C,RGB11*%
X55450002Y-95850000D02*
X55450002Y-94444316D01*
X56355549Y-93647159D02*
X57944454Y-93647159D01*
X57944453Y-96647158D02*
X56355549Y-96647158D01*
X58850000Y-94444316D02*
X58850000Y-95850000D01*
X55400517Y-94227438D02*
G75*
G02*
X55450002Y-94444316I-450505J-216876D01*
G01*
X55400517Y-94227438D02*
G75*
G02*
X56103290Y-93578859I450515J216878D01*
G01*
X55450002Y-95850001D02*
G75*
G02*
X55400517Y-96066878I-499990J-1D01*
G01*
X56103290Y-96715455D02*
G75*
G02*
X55400517Y-96066878I-252258J431700D01*
G01*
X56103291Y-96715457D02*
G75*
G02*
X56355549Y-96647158I252261J-431710D01*
G01*
X56355548Y-93647158D02*
G75*
G02*
X56103290Y-93578859I3J500009D01*
G01*
X57944453Y-96647158D02*
G75*
G02*
X58196712Y-96715457I-3J-500012D01*
G01*
X58196712Y-93578860D02*
G75*
G02*
X57944454Y-93647160I-252262J431710D01*
G01*
X58196712Y-93578860D02*
G75*
G02*
X58899484Y-94227438I252258J-431700D01*
G01*
X58850000Y-94444315D02*
G75*
G02*
X58899479Y-94227435I500000J15D01*
G01*
X58899485Y-96066877D02*
G75*
G02*
X58196712Y-96715457I-450514J-216880D01*
G01*
X58899485Y-96066878D02*
G75*
G02*
X58850000Y-95850000I450515J216878D01*
G01*
%TO.C,RGB9*%
X107837502Y-76800000D02*
X107837502Y-75394316D01*
X108743049Y-74597159D02*
X110331954Y-74597159D01*
X110331953Y-77597158D02*
X108743049Y-77597158D01*
X111237500Y-75394316D02*
X111237500Y-76800000D01*
X107788017Y-75177438D02*
G75*
G02*
X107837502Y-75394316I-450505J-216876D01*
G01*
X107788017Y-75177438D02*
G75*
G02*
X108490790Y-74528859I450515J216878D01*
G01*
X107837502Y-76800001D02*
G75*
G02*
X107788017Y-77016878I-499990J-1D01*
G01*
X108490790Y-77665455D02*
G75*
G02*
X107788017Y-77016878I-252258J431700D01*
G01*
X108490791Y-77665457D02*
G75*
G02*
X108743049Y-77597158I252261J-431710D01*
G01*
X108743048Y-74597158D02*
G75*
G02*
X108490790Y-74528859I3J500009D01*
G01*
X110331953Y-77597158D02*
G75*
G02*
X110584212Y-77665457I-3J-500012D01*
G01*
X110584212Y-74528860D02*
G75*
G02*
X110331954Y-74597160I-252262J431710D01*
G01*
X110584212Y-74528860D02*
G75*
G02*
X111286984Y-75177438I252258J-431700D01*
G01*
X111237500Y-75394315D02*
G75*
G02*
X111286979Y-75177435I500000J15D01*
G01*
X111286985Y-77016877D02*
G75*
G02*
X110584212Y-77665457I-450514J-216880D01*
G01*
X111286985Y-77016878D02*
G75*
G02*
X111237500Y-76800000I450515J216878D01*
G01*
%TD*%
M02*
