%TF.GenerationSoftware,KiCad,Pcbnew,10.0.3*%
%TF.CreationDate,2026-06-08T19:47:06-04:00*%
%TF.ProjectId,Hackpad,4861636b-7061-4642-9e6b-696361645f70,rev?*%
%TF.SameCoordinates,Original*%
%TF.FileFunction,Legend,Top*%
%TF.FilePolarity,Positive*%
%FSLAX46Y46*%
G04 Gerber Fmt 4.6, Leading zero omitted, Abs format (unit mm)*
G04 Created by KiCad (PCBNEW 10.0.3) date 2026-06-08 19:47:06*
%MOMM*%
%LPD*%
G01*
G04 APERTURE LIST*
%ADD10C,1.000000*%
%ADD11C,0.250000*%
%ADD12C,0.150000*%
%ADD13C,0.200000*%
%ADD14C,0.101600*%
%ADD15C,0.120000*%
%ADD16C,0.127000*%
%ADD17C,0.254000*%
%ADD18C,0.025400*%
G04 APERTURE END LIST*
D10*
X85211397Y-108276837D02*
G75*
G02*
X89693749Y-107156250I2101103J1120587D01*
G01*
X89693751Y-107156250D02*
G75*
G02*
X94176103Y-108276837I2381249J0D01*
G01*
X89693750Y-113506250D02*
X85211397Y-108276837D01*
X94176103Y-108276837D02*
X89693750Y-113506250D01*
D11*
X64934413Y-110073488D02*
X64934413Y-108073488D01*
X64934413Y-108073488D02*
X65601080Y-109502059D01*
X65601080Y-109502059D02*
X66267746Y-108073488D01*
X66267746Y-108073488D02*
X66267746Y-110073488D01*
X68077270Y-110073488D02*
X68077270Y-109025869D01*
X68077270Y-109025869D02*
X67982032Y-108835392D01*
X67982032Y-108835392D02*
X67791556Y-108740154D01*
X67791556Y-108740154D02*
X67410603Y-108740154D01*
X67410603Y-108740154D02*
X67220127Y-108835392D01*
X68077270Y-109978250D02*
X67886794Y-110073488D01*
X67886794Y-110073488D02*
X67410603Y-110073488D01*
X67410603Y-110073488D02*
X67220127Y-109978250D01*
X67220127Y-109978250D02*
X67124889Y-109787773D01*
X67124889Y-109787773D02*
X67124889Y-109597297D01*
X67124889Y-109597297D02*
X67220127Y-109406821D01*
X67220127Y-109406821D02*
X67410603Y-109311583D01*
X67410603Y-109311583D02*
X67886794Y-109311583D01*
X67886794Y-109311583D02*
X68077270Y-109216345D01*
X69886794Y-110073488D02*
X69886794Y-108073488D01*
X69886794Y-109978250D02*
X69696318Y-110073488D01*
X69696318Y-110073488D02*
X69315365Y-110073488D01*
X69315365Y-110073488D02*
X69124889Y-109978250D01*
X69124889Y-109978250D02*
X69029651Y-109883011D01*
X69029651Y-109883011D02*
X68934413Y-109692535D01*
X68934413Y-109692535D02*
X68934413Y-109121107D01*
X68934413Y-109121107D02*
X69029651Y-108930630D01*
X69029651Y-108930630D02*
X69124889Y-108835392D01*
X69124889Y-108835392D02*
X69315365Y-108740154D01*
X69315365Y-108740154D02*
X69696318Y-108740154D01*
X69696318Y-108740154D02*
X69886794Y-108835392D01*
X71601080Y-109978250D02*
X71410604Y-110073488D01*
X71410604Y-110073488D02*
X71029651Y-110073488D01*
X71029651Y-110073488D02*
X70839175Y-109978250D01*
X70839175Y-109978250D02*
X70743937Y-109787773D01*
X70743937Y-109787773D02*
X70743937Y-109025869D01*
X70743937Y-109025869D02*
X70839175Y-108835392D01*
X70839175Y-108835392D02*
X71029651Y-108740154D01*
X71029651Y-108740154D02*
X71410604Y-108740154D01*
X71410604Y-108740154D02*
X71601080Y-108835392D01*
X71601080Y-108835392D02*
X71696318Y-109025869D01*
X71696318Y-109025869D02*
X71696318Y-109216345D01*
X71696318Y-109216345D02*
X70743937Y-109406821D01*
X73886795Y-108740154D02*
X74267747Y-110073488D01*
X74267747Y-110073488D02*
X74648700Y-109121107D01*
X74648700Y-109121107D02*
X75029652Y-110073488D01*
X75029652Y-110073488D02*
X75410604Y-108740154D01*
X76172509Y-110073488D02*
X76172509Y-108740154D01*
X76172509Y-108073488D02*
X76077271Y-108168726D01*
X76077271Y-108168726D02*
X76172509Y-108263964D01*
X76172509Y-108263964D02*
X76267747Y-108168726D01*
X76267747Y-108168726D02*
X76172509Y-108073488D01*
X76172509Y-108073488D02*
X76172509Y-108263964D01*
X76839176Y-108740154D02*
X77601080Y-108740154D01*
X77124890Y-108073488D02*
X77124890Y-109787773D01*
X77124890Y-109787773D02*
X77220128Y-109978250D01*
X77220128Y-109978250D02*
X77410604Y-110073488D01*
X77410604Y-110073488D02*
X77601080Y-110073488D01*
X78267747Y-110073488D02*
X78267747Y-108073488D01*
X79124890Y-110073488D02*
X79124890Y-109025869D01*
X79124890Y-109025869D02*
X79029652Y-108835392D01*
X79029652Y-108835392D02*
X78839176Y-108740154D01*
X78839176Y-108740154D02*
X78553461Y-108740154D01*
X78553461Y-108740154D02*
X78362985Y-108835392D01*
X78362985Y-108835392D02*
X78267747Y-108930630D01*
X101446913Y-109279738D02*
X101446913Y-107279738D01*
X101446913Y-108041642D02*
X101637389Y-107946404D01*
X101637389Y-107946404D02*
X102018342Y-107946404D01*
X102018342Y-107946404D02*
X102208818Y-108041642D01*
X102208818Y-108041642D02*
X102304056Y-108136880D01*
X102304056Y-108136880D02*
X102399294Y-108327357D01*
X102399294Y-108327357D02*
X102399294Y-108898785D01*
X102399294Y-108898785D02*
X102304056Y-109089261D01*
X102304056Y-109089261D02*
X102208818Y-109184500D01*
X102208818Y-109184500D02*
X102018342Y-109279738D01*
X102018342Y-109279738D02*
X101637389Y-109279738D01*
X101637389Y-109279738D02*
X101446913Y-109184500D01*
X103065961Y-107946404D02*
X103542151Y-109279738D01*
X104018342Y-107946404D02*
X103542151Y-109279738D01*
X103542151Y-109279738D02*
X103351675Y-109755928D01*
X103351675Y-109755928D02*
X103256437Y-109851166D01*
X103256437Y-109851166D02*
X103065961Y-109946404D01*
X107161200Y-109184500D02*
X106970724Y-109279738D01*
X106970724Y-109279738D02*
X106589771Y-109279738D01*
X106589771Y-109279738D02*
X106399295Y-109184500D01*
X106399295Y-109184500D02*
X106304057Y-109089261D01*
X106304057Y-109089261D02*
X106208819Y-108898785D01*
X106208819Y-108898785D02*
X106208819Y-108327357D01*
X106208819Y-108327357D02*
X106304057Y-108136880D01*
X106304057Y-108136880D02*
X106399295Y-108041642D01*
X106399295Y-108041642D02*
X106589771Y-107946404D01*
X106589771Y-107946404D02*
X106970724Y-107946404D01*
X106970724Y-107946404D02*
X107161200Y-108041642D01*
X108018343Y-109279738D02*
X108018343Y-107946404D01*
X108018343Y-108327357D02*
X108113581Y-108136880D01*
X108113581Y-108136880D02*
X108208819Y-108041642D01*
X108208819Y-108041642D02*
X108399295Y-107946404D01*
X108399295Y-107946404D02*
X108589772Y-107946404D01*
X109065962Y-109279738D02*
X110113581Y-107946404D01*
X109065962Y-107946404D02*
X110113581Y-109279738D01*
X111923105Y-109279738D02*
X110780248Y-109279738D01*
X111351676Y-109279738D02*
X111351676Y-107279738D01*
X111351676Y-107279738D02*
X111161200Y-107565452D01*
X111161200Y-107565452D02*
X110970724Y-107755928D01*
X110970724Y-107755928D02*
X110780248Y-107851166D01*
X112589772Y-109279738D02*
X113637391Y-107946404D01*
X112589772Y-107946404D02*
X113637391Y-109279738D01*
X115446915Y-109279738D02*
X114304058Y-109279738D01*
X114875486Y-109279738D02*
X114875486Y-107279738D01*
X114875486Y-107279738D02*
X114685010Y-107565452D01*
X114685010Y-107565452D02*
X114494534Y-107755928D01*
X114494534Y-107755928D02*
X114304058Y-107851166D01*
D12*
X64916069Y-34075594D02*
X63916069Y-34075594D01*
X63916069Y-34075594D02*
X63916069Y-33837499D01*
X63916069Y-33837499D02*
X63963688Y-33694642D01*
X63963688Y-33694642D02*
X64058926Y-33599404D01*
X64058926Y-33599404D02*
X64154164Y-33551785D01*
X64154164Y-33551785D02*
X64344640Y-33504166D01*
X64344640Y-33504166D02*
X64487497Y-33504166D01*
X64487497Y-33504166D02*
X64677973Y-33551785D01*
X64677973Y-33551785D02*
X64773211Y-33599404D01*
X64773211Y-33599404D02*
X64868450Y-33694642D01*
X64868450Y-33694642D02*
X64916069Y-33837499D01*
X64916069Y-33837499D02*
X64916069Y-34075594D01*
X63916069Y-32647023D02*
X63916069Y-32837499D01*
X63916069Y-32837499D02*
X63963688Y-32932737D01*
X63963688Y-32932737D02*
X64011307Y-32980356D01*
X64011307Y-32980356D02*
X64154164Y-33075594D01*
X64154164Y-33075594D02*
X64344640Y-33123213D01*
X64344640Y-33123213D02*
X64725592Y-33123213D01*
X64725592Y-33123213D02*
X64820830Y-33075594D01*
X64820830Y-33075594D02*
X64868450Y-33027975D01*
X64868450Y-33027975D02*
X64916069Y-32932737D01*
X64916069Y-32932737D02*
X64916069Y-32742261D01*
X64916069Y-32742261D02*
X64868450Y-32647023D01*
X64868450Y-32647023D02*
X64820830Y-32599404D01*
X64820830Y-32599404D02*
X64725592Y-32551785D01*
X64725592Y-32551785D02*
X64487497Y-32551785D01*
X64487497Y-32551785D02*
X64392259Y-32599404D01*
X64392259Y-32599404D02*
X64344640Y-32647023D01*
X64344640Y-32647023D02*
X64297021Y-32742261D01*
X64297021Y-32742261D02*
X64297021Y-32932737D01*
X64297021Y-32932737D02*
X64344640Y-33027975D01*
X64344640Y-33027975D02*
X64392259Y-33075594D01*
X64392259Y-33075594D02*
X64487497Y-33123213D01*
X65236069Y-38679404D02*
X64236069Y-38679404D01*
X65236069Y-38107976D02*
X64664640Y-38536547D01*
X64236069Y-38107976D02*
X64807497Y-38679404D01*
D13*
X89920833Y-73552219D02*
X89587500Y-73076028D01*
X89349405Y-73552219D02*
X89349405Y-72552219D01*
X89349405Y-72552219D02*
X89730357Y-72552219D01*
X89730357Y-72552219D02*
X89825595Y-72599838D01*
X89825595Y-72599838D02*
X89873214Y-72647457D01*
X89873214Y-72647457D02*
X89920833Y-72742695D01*
X89920833Y-72742695D02*
X89920833Y-72885552D01*
X89920833Y-72885552D02*
X89873214Y-72980790D01*
X89873214Y-72980790D02*
X89825595Y-73028409D01*
X89825595Y-73028409D02*
X89730357Y-73076028D01*
X89730357Y-73076028D02*
X89349405Y-73076028D01*
X90873214Y-72599838D02*
X90777976Y-72552219D01*
X90777976Y-72552219D02*
X90635119Y-72552219D01*
X90635119Y-72552219D02*
X90492262Y-72599838D01*
X90492262Y-72599838D02*
X90397024Y-72695076D01*
X90397024Y-72695076D02*
X90349405Y-72790314D01*
X90349405Y-72790314D02*
X90301786Y-72980790D01*
X90301786Y-72980790D02*
X90301786Y-73123647D01*
X90301786Y-73123647D02*
X90349405Y-73314123D01*
X90349405Y-73314123D02*
X90397024Y-73409361D01*
X90397024Y-73409361D02*
X90492262Y-73504600D01*
X90492262Y-73504600D02*
X90635119Y-73552219D01*
X90635119Y-73552219D02*
X90730357Y-73552219D01*
X90730357Y-73552219D02*
X90873214Y-73504600D01*
X90873214Y-73504600D02*
X90920833Y-73456980D01*
X90920833Y-73456980D02*
X90920833Y-73123647D01*
X90920833Y-73123647D02*
X90730357Y-73123647D01*
X91682738Y-73028409D02*
X91825595Y-73076028D01*
X91825595Y-73076028D02*
X91873214Y-73123647D01*
X91873214Y-73123647D02*
X91920833Y-73218885D01*
X91920833Y-73218885D02*
X91920833Y-73361742D01*
X91920833Y-73361742D02*
X91873214Y-73456980D01*
X91873214Y-73456980D02*
X91825595Y-73504600D01*
X91825595Y-73504600D02*
X91730357Y-73552219D01*
X91730357Y-73552219D02*
X91349405Y-73552219D01*
X91349405Y-73552219D02*
X91349405Y-72552219D01*
X91349405Y-72552219D02*
X91682738Y-72552219D01*
X91682738Y-72552219D02*
X91777976Y-72599838D01*
X91777976Y-72599838D02*
X91825595Y-72647457D01*
X91825595Y-72647457D02*
X91873214Y-72742695D01*
X91873214Y-72742695D02*
X91873214Y-72837933D01*
X91873214Y-72837933D02*
X91825595Y-72933171D01*
X91825595Y-72933171D02*
X91777976Y-72980790D01*
X91777976Y-72980790D02*
X91682738Y-73028409D01*
X91682738Y-73028409D02*
X91349405Y-73028409D01*
X92492262Y-72980790D02*
X92397024Y-72933171D01*
X92397024Y-72933171D02*
X92349405Y-72885552D01*
X92349405Y-72885552D02*
X92301786Y-72790314D01*
X92301786Y-72790314D02*
X92301786Y-72742695D01*
X92301786Y-72742695D02*
X92349405Y-72647457D01*
X92349405Y-72647457D02*
X92397024Y-72599838D01*
X92397024Y-72599838D02*
X92492262Y-72552219D01*
X92492262Y-72552219D02*
X92682738Y-72552219D01*
X92682738Y-72552219D02*
X92777976Y-72599838D01*
X92777976Y-72599838D02*
X92825595Y-72647457D01*
X92825595Y-72647457D02*
X92873214Y-72742695D01*
X92873214Y-72742695D02*
X92873214Y-72790314D01*
X92873214Y-72790314D02*
X92825595Y-72885552D01*
X92825595Y-72885552D02*
X92777976Y-72933171D01*
X92777976Y-72933171D02*
X92682738Y-72980790D01*
X92682738Y-72980790D02*
X92492262Y-72980790D01*
X92492262Y-72980790D02*
X92397024Y-73028409D01*
X92397024Y-73028409D02*
X92349405Y-73076028D01*
X92349405Y-73076028D02*
X92301786Y-73171266D01*
X92301786Y-73171266D02*
X92301786Y-73361742D01*
X92301786Y-73361742D02*
X92349405Y-73456980D01*
X92349405Y-73456980D02*
X92397024Y-73504600D01*
X92397024Y-73504600D02*
X92492262Y-73552219D01*
X92492262Y-73552219D02*
X92682738Y-73552219D01*
X92682738Y-73552219D02*
X92777976Y-73504600D01*
X92777976Y-73504600D02*
X92825595Y-73456980D01*
X92825595Y-73456980D02*
X92873214Y-73361742D01*
X92873214Y-73361742D02*
X92873214Y-73171266D01*
X92873214Y-73171266D02*
X92825595Y-73076028D01*
X92825595Y-73076028D02*
X92777976Y-73028409D01*
X92777976Y-73028409D02*
X92682738Y-72980790D01*
X28008333Y-73552219D02*
X27675000Y-73076028D01*
X27436905Y-73552219D02*
X27436905Y-72552219D01*
X27436905Y-72552219D02*
X27817857Y-72552219D01*
X27817857Y-72552219D02*
X27913095Y-72599838D01*
X27913095Y-72599838D02*
X27960714Y-72647457D01*
X27960714Y-72647457D02*
X28008333Y-72742695D01*
X28008333Y-72742695D02*
X28008333Y-72885552D01*
X28008333Y-72885552D02*
X27960714Y-72980790D01*
X27960714Y-72980790D02*
X27913095Y-73028409D01*
X27913095Y-73028409D02*
X27817857Y-73076028D01*
X27817857Y-73076028D02*
X27436905Y-73076028D01*
X28960714Y-72599838D02*
X28865476Y-72552219D01*
X28865476Y-72552219D02*
X28722619Y-72552219D01*
X28722619Y-72552219D02*
X28579762Y-72599838D01*
X28579762Y-72599838D02*
X28484524Y-72695076D01*
X28484524Y-72695076D02*
X28436905Y-72790314D01*
X28436905Y-72790314D02*
X28389286Y-72980790D01*
X28389286Y-72980790D02*
X28389286Y-73123647D01*
X28389286Y-73123647D02*
X28436905Y-73314123D01*
X28436905Y-73314123D02*
X28484524Y-73409361D01*
X28484524Y-73409361D02*
X28579762Y-73504600D01*
X28579762Y-73504600D02*
X28722619Y-73552219D01*
X28722619Y-73552219D02*
X28817857Y-73552219D01*
X28817857Y-73552219D02*
X28960714Y-73504600D01*
X28960714Y-73504600D02*
X29008333Y-73456980D01*
X29008333Y-73456980D02*
X29008333Y-73123647D01*
X29008333Y-73123647D02*
X28817857Y-73123647D01*
X29770238Y-73028409D02*
X29913095Y-73076028D01*
X29913095Y-73076028D02*
X29960714Y-73123647D01*
X29960714Y-73123647D02*
X30008333Y-73218885D01*
X30008333Y-73218885D02*
X30008333Y-73361742D01*
X30008333Y-73361742D02*
X29960714Y-73456980D01*
X29960714Y-73456980D02*
X29913095Y-73504600D01*
X29913095Y-73504600D02*
X29817857Y-73552219D01*
X29817857Y-73552219D02*
X29436905Y-73552219D01*
X29436905Y-73552219D02*
X29436905Y-72552219D01*
X29436905Y-72552219D02*
X29770238Y-72552219D01*
X29770238Y-72552219D02*
X29865476Y-72599838D01*
X29865476Y-72599838D02*
X29913095Y-72647457D01*
X29913095Y-72647457D02*
X29960714Y-72742695D01*
X29960714Y-72742695D02*
X29960714Y-72837933D01*
X29960714Y-72837933D02*
X29913095Y-72933171D01*
X29913095Y-72933171D02*
X29865476Y-72980790D01*
X29865476Y-72980790D02*
X29770238Y-73028409D01*
X29770238Y-73028409D02*
X29436905Y-73028409D01*
X30913095Y-72552219D02*
X30436905Y-72552219D01*
X30436905Y-72552219D02*
X30389286Y-73028409D01*
X30389286Y-73028409D02*
X30436905Y-72980790D01*
X30436905Y-72980790D02*
X30532143Y-72933171D01*
X30532143Y-72933171D02*
X30770238Y-72933171D01*
X30770238Y-72933171D02*
X30865476Y-72980790D01*
X30865476Y-72980790D02*
X30913095Y-73028409D01*
X30913095Y-73028409D02*
X30960714Y-73123647D01*
X30960714Y-73123647D02*
X30960714Y-73361742D01*
X30960714Y-73361742D02*
X30913095Y-73456980D01*
X30913095Y-73456980D02*
X30865476Y-73504600D01*
X30865476Y-73504600D02*
X30770238Y-73552219D01*
X30770238Y-73552219D02*
X30532143Y-73552219D01*
X30532143Y-73552219D02*
X30436905Y-73504600D01*
X30436905Y-73504600D02*
X30389286Y-73456980D01*
D12*
X31670833Y-25394509D02*
X32004166Y-25394509D01*
X32147023Y-25918319D02*
X31670833Y-25918319D01*
X31670833Y-25918319D02*
X31670833Y-24918319D01*
X31670833Y-24918319D02*
X32147023Y-24918319D01*
X32527976Y-25870700D02*
X32670833Y-25918319D01*
X32670833Y-25918319D02*
X32908928Y-25918319D01*
X32908928Y-25918319D02*
X33004166Y-25870700D01*
X33004166Y-25870700D02*
X33051785Y-25823080D01*
X33051785Y-25823080D02*
X33099404Y-25727842D01*
X33099404Y-25727842D02*
X33099404Y-25632604D01*
X33099404Y-25632604D02*
X33051785Y-25537366D01*
X33051785Y-25537366D02*
X33004166Y-25489747D01*
X33004166Y-25489747D02*
X32908928Y-25442128D01*
X32908928Y-25442128D02*
X32718452Y-25394509D01*
X32718452Y-25394509D02*
X32623214Y-25346890D01*
X32623214Y-25346890D02*
X32575595Y-25299271D01*
X32575595Y-25299271D02*
X32527976Y-25204033D01*
X32527976Y-25204033D02*
X32527976Y-25108795D01*
X32527976Y-25108795D02*
X32575595Y-25013557D01*
X32575595Y-25013557D02*
X32623214Y-24965938D01*
X32623214Y-24965938D02*
X32718452Y-24918319D01*
X32718452Y-24918319D02*
X32956547Y-24918319D01*
X32956547Y-24918319D02*
X33099404Y-24965938D01*
X34099404Y-25823080D02*
X34051785Y-25870700D01*
X34051785Y-25870700D02*
X33908928Y-25918319D01*
X33908928Y-25918319D02*
X33813690Y-25918319D01*
X33813690Y-25918319D02*
X33670833Y-25870700D01*
X33670833Y-25870700D02*
X33575595Y-25775461D01*
X33575595Y-25775461D02*
X33527976Y-25680223D01*
X33527976Y-25680223D02*
X33480357Y-25489747D01*
X33480357Y-25489747D02*
X33480357Y-25346890D01*
X33480357Y-25346890D02*
X33527976Y-25156414D01*
X33527976Y-25156414D02*
X33575595Y-25061176D01*
X33575595Y-25061176D02*
X33670833Y-24965938D01*
X33670833Y-24965938D02*
X33813690Y-24918319D01*
X33813690Y-24918319D02*
X33908928Y-24918319D01*
X33908928Y-24918319D02*
X34051785Y-24965938D01*
X34051785Y-24965938D02*
X34099404Y-25013557D01*
X35051785Y-25918319D02*
X34480357Y-25918319D01*
X34766071Y-25918319D02*
X34766071Y-24918319D01*
X34766071Y-24918319D02*
X34670833Y-25061176D01*
X34670833Y-25061176D02*
X34575595Y-25156414D01*
X34575595Y-25156414D02*
X34480357Y-25204033D01*
D13*
X32770833Y-35452219D02*
X32437500Y-34976028D01*
X32199405Y-35452219D02*
X32199405Y-34452219D01*
X32199405Y-34452219D02*
X32580357Y-34452219D01*
X32580357Y-34452219D02*
X32675595Y-34499838D01*
X32675595Y-34499838D02*
X32723214Y-34547457D01*
X32723214Y-34547457D02*
X32770833Y-34642695D01*
X32770833Y-34642695D02*
X32770833Y-34785552D01*
X32770833Y-34785552D02*
X32723214Y-34880790D01*
X32723214Y-34880790D02*
X32675595Y-34928409D01*
X32675595Y-34928409D02*
X32580357Y-34976028D01*
X32580357Y-34976028D02*
X32199405Y-34976028D01*
X33723214Y-34499838D02*
X33627976Y-34452219D01*
X33627976Y-34452219D02*
X33485119Y-34452219D01*
X33485119Y-34452219D02*
X33342262Y-34499838D01*
X33342262Y-34499838D02*
X33247024Y-34595076D01*
X33247024Y-34595076D02*
X33199405Y-34690314D01*
X33199405Y-34690314D02*
X33151786Y-34880790D01*
X33151786Y-34880790D02*
X33151786Y-35023647D01*
X33151786Y-35023647D02*
X33199405Y-35214123D01*
X33199405Y-35214123D02*
X33247024Y-35309361D01*
X33247024Y-35309361D02*
X33342262Y-35404600D01*
X33342262Y-35404600D02*
X33485119Y-35452219D01*
X33485119Y-35452219D02*
X33580357Y-35452219D01*
X33580357Y-35452219D02*
X33723214Y-35404600D01*
X33723214Y-35404600D02*
X33770833Y-35356980D01*
X33770833Y-35356980D02*
X33770833Y-35023647D01*
X33770833Y-35023647D02*
X33580357Y-35023647D01*
X34532738Y-34928409D02*
X34675595Y-34976028D01*
X34675595Y-34976028D02*
X34723214Y-35023647D01*
X34723214Y-35023647D02*
X34770833Y-35118885D01*
X34770833Y-35118885D02*
X34770833Y-35261742D01*
X34770833Y-35261742D02*
X34723214Y-35356980D01*
X34723214Y-35356980D02*
X34675595Y-35404600D01*
X34675595Y-35404600D02*
X34580357Y-35452219D01*
X34580357Y-35452219D02*
X34199405Y-35452219D01*
X34199405Y-35452219D02*
X34199405Y-34452219D01*
X34199405Y-34452219D02*
X34532738Y-34452219D01*
X34532738Y-34452219D02*
X34627976Y-34499838D01*
X34627976Y-34499838D02*
X34675595Y-34547457D01*
X34675595Y-34547457D02*
X34723214Y-34642695D01*
X34723214Y-34642695D02*
X34723214Y-34737933D01*
X34723214Y-34737933D02*
X34675595Y-34833171D01*
X34675595Y-34833171D02*
X34627976Y-34880790D01*
X34627976Y-34880790D02*
X34532738Y-34928409D01*
X34532738Y-34928409D02*
X34199405Y-34928409D01*
X35723214Y-35452219D02*
X35151786Y-35452219D01*
X35437500Y-35452219D02*
X35437500Y-34452219D01*
X35437500Y-34452219D02*
X35342262Y-34595076D01*
X35342262Y-34595076D02*
X35247024Y-34690314D01*
X35247024Y-34690314D02*
X35151786Y-34737933D01*
D12*
X15610416Y-24086069D02*
X15277083Y-23609878D01*
X15038988Y-24086069D02*
X15038988Y-23086069D01*
X15038988Y-23086069D02*
X15419940Y-23086069D01*
X15419940Y-23086069D02*
X15515178Y-23133688D01*
X15515178Y-23133688D02*
X15562797Y-23181307D01*
X15562797Y-23181307D02*
X15610416Y-23276545D01*
X15610416Y-23276545D02*
X15610416Y-23419402D01*
X15610416Y-23419402D02*
X15562797Y-23514640D01*
X15562797Y-23514640D02*
X15515178Y-23562259D01*
X15515178Y-23562259D02*
X15419940Y-23609878D01*
X15419940Y-23609878D02*
X15038988Y-23609878D01*
X16038988Y-23562259D02*
X16372321Y-23562259D01*
X16515178Y-24086069D02*
X16038988Y-24086069D01*
X16038988Y-24086069D02*
X16038988Y-23086069D01*
X16038988Y-23086069D02*
X16515178Y-23086069D01*
X17277083Y-23562259D02*
X16943750Y-23562259D01*
X16943750Y-24086069D02*
X16943750Y-23086069D01*
X16943750Y-23086069D02*
X17419940Y-23086069D01*
X17943750Y-23086069D02*
X17943750Y-23324164D01*
X17705655Y-23228926D02*
X17943750Y-23324164D01*
X17943750Y-23324164D02*
X18181845Y-23228926D01*
X17800893Y-23514640D02*
X17943750Y-23324164D01*
X17943750Y-23324164D02*
X18086607Y-23514640D01*
X18705655Y-23086069D02*
X18705655Y-23324164D01*
X18467560Y-23228926D02*
X18705655Y-23324164D01*
X18705655Y-23324164D02*
X18943750Y-23228926D01*
X18562798Y-23514640D02*
X18705655Y-23324164D01*
X18705655Y-23324164D02*
X18848512Y-23514640D01*
X105822916Y-24086069D02*
X105489583Y-23609878D01*
X105251488Y-24086069D02*
X105251488Y-23086069D01*
X105251488Y-23086069D02*
X105632440Y-23086069D01*
X105632440Y-23086069D02*
X105727678Y-23133688D01*
X105727678Y-23133688D02*
X105775297Y-23181307D01*
X105775297Y-23181307D02*
X105822916Y-23276545D01*
X105822916Y-23276545D02*
X105822916Y-23419402D01*
X105822916Y-23419402D02*
X105775297Y-23514640D01*
X105775297Y-23514640D02*
X105727678Y-23562259D01*
X105727678Y-23562259D02*
X105632440Y-23609878D01*
X105632440Y-23609878D02*
X105251488Y-23609878D01*
X106251488Y-23562259D02*
X106584821Y-23562259D01*
X106727678Y-24086069D02*
X106251488Y-24086069D01*
X106251488Y-24086069D02*
X106251488Y-23086069D01*
X106251488Y-23086069D02*
X106727678Y-23086069D01*
X107489583Y-23562259D02*
X107156250Y-23562259D01*
X107156250Y-24086069D02*
X107156250Y-23086069D01*
X107156250Y-23086069D02*
X107632440Y-23086069D01*
X108156250Y-23086069D02*
X108156250Y-23324164D01*
X107918155Y-23228926D02*
X108156250Y-23324164D01*
X108156250Y-23324164D02*
X108394345Y-23228926D01*
X108013393Y-23514640D02*
X108156250Y-23324164D01*
X108156250Y-23324164D02*
X108299107Y-23514640D01*
X108918155Y-23086069D02*
X108918155Y-23324164D01*
X108680060Y-23228926D02*
X108918155Y-23324164D01*
X108918155Y-23324164D02*
X109156250Y-23228926D01*
X108775298Y-23514640D02*
X108918155Y-23324164D01*
X108918155Y-23324164D02*
X109061012Y-23514640D01*
D13*
X51820833Y-73552219D02*
X51487500Y-73076028D01*
X51249405Y-73552219D02*
X51249405Y-72552219D01*
X51249405Y-72552219D02*
X51630357Y-72552219D01*
X51630357Y-72552219D02*
X51725595Y-72599838D01*
X51725595Y-72599838D02*
X51773214Y-72647457D01*
X51773214Y-72647457D02*
X51820833Y-72742695D01*
X51820833Y-72742695D02*
X51820833Y-72885552D01*
X51820833Y-72885552D02*
X51773214Y-72980790D01*
X51773214Y-72980790D02*
X51725595Y-73028409D01*
X51725595Y-73028409D02*
X51630357Y-73076028D01*
X51630357Y-73076028D02*
X51249405Y-73076028D01*
X52773214Y-72599838D02*
X52677976Y-72552219D01*
X52677976Y-72552219D02*
X52535119Y-72552219D01*
X52535119Y-72552219D02*
X52392262Y-72599838D01*
X52392262Y-72599838D02*
X52297024Y-72695076D01*
X52297024Y-72695076D02*
X52249405Y-72790314D01*
X52249405Y-72790314D02*
X52201786Y-72980790D01*
X52201786Y-72980790D02*
X52201786Y-73123647D01*
X52201786Y-73123647D02*
X52249405Y-73314123D01*
X52249405Y-73314123D02*
X52297024Y-73409361D01*
X52297024Y-73409361D02*
X52392262Y-73504600D01*
X52392262Y-73504600D02*
X52535119Y-73552219D01*
X52535119Y-73552219D02*
X52630357Y-73552219D01*
X52630357Y-73552219D02*
X52773214Y-73504600D01*
X52773214Y-73504600D02*
X52820833Y-73456980D01*
X52820833Y-73456980D02*
X52820833Y-73123647D01*
X52820833Y-73123647D02*
X52630357Y-73123647D01*
X53582738Y-73028409D02*
X53725595Y-73076028D01*
X53725595Y-73076028D02*
X53773214Y-73123647D01*
X53773214Y-73123647D02*
X53820833Y-73218885D01*
X53820833Y-73218885D02*
X53820833Y-73361742D01*
X53820833Y-73361742D02*
X53773214Y-73456980D01*
X53773214Y-73456980D02*
X53725595Y-73504600D01*
X53725595Y-73504600D02*
X53630357Y-73552219D01*
X53630357Y-73552219D02*
X53249405Y-73552219D01*
X53249405Y-73552219D02*
X53249405Y-72552219D01*
X53249405Y-72552219D02*
X53582738Y-72552219D01*
X53582738Y-72552219D02*
X53677976Y-72599838D01*
X53677976Y-72599838D02*
X53725595Y-72647457D01*
X53725595Y-72647457D02*
X53773214Y-72742695D01*
X53773214Y-72742695D02*
X53773214Y-72837933D01*
X53773214Y-72837933D02*
X53725595Y-72933171D01*
X53725595Y-72933171D02*
X53677976Y-72980790D01*
X53677976Y-72980790D02*
X53582738Y-73028409D01*
X53582738Y-73028409D02*
X53249405Y-73028409D01*
X54677976Y-72552219D02*
X54487500Y-72552219D01*
X54487500Y-72552219D02*
X54392262Y-72599838D01*
X54392262Y-72599838D02*
X54344643Y-72647457D01*
X54344643Y-72647457D02*
X54249405Y-72790314D01*
X54249405Y-72790314D02*
X54201786Y-72980790D01*
X54201786Y-72980790D02*
X54201786Y-73361742D01*
X54201786Y-73361742D02*
X54249405Y-73456980D01*
X54249405Y-73456980D02*
X54297024Y-73504600D01*
X54297024Y-73504600D02*
X54392262Y-73552219D01*
X54392262Y-73552219D02*
X54582738Y-73552219D01*
X54582738Y-73552219D02*
X54677976Y-73504600D01*
X54677976Y-73504600D02*
X54725595Y-73456980D01*
X54725595Y-73456980D02*
X54773214Y-73361742D01*
X54773214Y-73361742D02*
X54773214Y-73123647D01*
X54773214Y-73123647D02*
X54725595Y-73028409D01*
X54725595Y-73028409D02*
X54677976Y-72980790D01*
X54677976Y-72980790D02*
X54582738Y-72933171D01*
X54582738Y-72933171D02*
X54392262Y-72933171D01*
X54392262Y-72933171D02*
X54297024Y-72980790D01*
X54297024Y-72980790D02*
X54249405Y-73028409D01*
X54249405Y-73028409D02*
X54201786Y-73123647D01*
D12*
X109370833Y-64018319D02*
X109037500Y-63542128D01*
X108799405Y-64018319D02*
X108799405Y-63018319D01*
X108799405Y-63018319D02*
X109180357Y-63018319D01*
X109180357Y-63018319D02*
X109275595Y-63065938D01*
X109275595Y-63065938D02*
X109323214Y-63113557D01*
X109323214Y-63113557D02*
X109370833Y-63208795D01*
X109370833Y-63208795D02*
X109370833Y-63351652D01*
X109370833Y-63351652D02*
X109323214Y-63446890D01*
X109323214Y-63446890D02*
X109275595Y-63494509D01*
X109275595Y-63494509D02*
X109180357Y-63542128D01*
X109180357Y-63542128D02*
X108799405Y-63542128D01*
X110323214Y-64018319D02*
X109751786Y-64018319D01*
X110037500Y-64018319D02*
X110037500Y-63018319D01*
X110037500Y-63018319D02*
X109942262Y-63161176D01*
X109942262Y-63161176D02*
X109847024Y-63256414D01*
X109847024Y-63256414D02*
X109751786Y-63304033D01*
X94988393Y-121120700D02*
X95131250Y-121168319D01*
X95131250Y-121168319D02*
X95369345Y-121168319D01*
X95369345Y-121168319D02*
X95464583Y-121120700D01*
X95464583Y-121120700D02*
X95512202Y-121073080D01*
X95512202Y-121073080D02*
X95559821Y-120977842D01*
X95559821Y-120977842D02*
X95559821Y-120882604D01*
X95559821Y-120882604D02*
X95512202Y-120787366D01*
X95512202Y-120787366D02*
X95464583Y-120739747D01*
X95464583Y-120739747D02*
X95369345Y-120692128D01*
X95369345Y-120692128D02*
X95178869Y-120644509D01*
X95178869Y-120644509D02*
X95083631Y-120596890D01*
X95083631Y-120596890D02*
X95036012Y-120549271D01*
X95036012Y-120549271D02*
X94988393Y-120454033D01*
X94988393Y-120454033D02*
X94988393Y-120358795D01*
X94988393Y-120358795D02*
X95036012Y-120263557D01*
X95036012Y-120263557D02*
X95083631Y-120215938D01*
X95083631Y-120215938D02*
X95178869Y-120168319D01*
X95178869Y-120168319D02*
X95416964Y-120168319D01*
X95416964Y-120168319D02*
X95559821Y-120215938D01*
X95988393Y-121168319D02*
X95988393Y-120168319D01*
X95988393Y-120168319D02*
X96369345Y-120168319D01*
X96369345Y-120168319D02*
X96464583Y-120215938D01*
X96464583Y-120215938D02*
X96512202Y-120263557D01*
X96512202Y-120263557D02*
X96559821Y-120358795D01*
X96559821Y-120358795D02*
X96559821Y-120501652D01*
X96559821Y-120501652D02*
X96512202Y-120596890D01*
X96512202Y-120596890D02*
X96464583Y-120644509D01*
X96464583Y-120644509D02*
X96369345Y-120692128D01*
X96369345Y-120692128D02*
X95988393Y-120692128D01*
X96940774Y-120882604D02*
X97416964Y-120882604D01*
X96845536Y-121168319D02*
X97178869Y-120168319D01*
X97178869Y-120168319D02*
X97512202Y-121168319D01*
X98416964Y-121073080D02*
X98369345Y-121120700D01*
X98369345Y-121120700D02*
X98226488Y-121168319D01*
X98226488Y-121168319D02*
X98131250Y-121168319D01*
X98131250Y-121168319D02*
X97988393Y-121120700D01*
X97988393Y-121120700D02*
X97893155Y-121025461D01*
X97893155Y-121025461D02*
X97845536Y-120930223D01*
X97845536Y-120930223D02*
X97797917Y-120739747D01*
X97797917Y-120739747D02*
X97797917Y-120596890D01*
X97797917Y-120596890D02*
X97845536Y-120406414D01*
X97845536Y-120406414D02*
X97893155Y-120311176D01*
X97893155Y-120311176D02*
X97988393Y-120215938D01*
X97988393Y-120215938D02*
X98131250Y-120168319D01*
X98131250Y-120168319D02*
X98226488Y-120168319D01*
X98226488Y-120168319D02*
X98369345Y-120215938D01*
X98369345Y-120215938D02*
X98416964Y-120263557D01*
X98845536Y-120644509D02*
X99178869Y-120644509D01*
X99321726Y-121168319D02*
X98845536Y-121168319D01*
X98845536Y-121168319D02*
X98845536Y-120168319D01*
X98845536Y-120168319D02*
X99321726Y-120168319D01*
X100274107Y-121168319D02*
X99702679Y-121168319D01*
X99988393Y-121168319D02*
X99988393Y-120168319D01*
X99988393Y-120168319D02*
X99893155Y-120311176D01*
X99893155Y-120311176D02*
X99797917Y-120406414D01*
X99797917Y-120406414D02*
X99702679Y-120454033D01*
X72016069Y-34075594D02*
X71016069Y-34075594D01*
X71016069Y-34075594D02*
X71016069Y-33837499D01*
X71016069Y-33837499D02*
X71063688Y-33694642D01*
X71063688Y-33694642D02*
X71158926Y-33599404D01*
X71158926Y-33599404D02*
X71254164Y-33551785D01*
X71254164Y-33551785D02*
X71444640Y-33504166D01*
X71444640Y-33504166D02*
X71587497Y-33504166D01*
X71587497Y-33504166D02*
X71777973Y-33551785D01*
X71777973Y-33551785D02*
X71873211Y-33599404D01*
X71873211Y-33599404D02*
X71968450Y-33694642D01*
X71968450Y-33694642D02*
X72016069Y-33837499D01*
X72016069Y-33837499D02*
X72016069Y-34075594D01*
X71444640Y-32932737D02*
X71397021Y-33027975D01*
X71397021Y-33027975D02*
X71349402Y-33075594D01*
X71349402Y-33075594D02*
X71254164Y-33123213D01*
X71254164Y-33123213D02*
X71206545Y-33123213D01*
X71206545Y-33123213D02*
X71111307Y-33075594D01*
X71111307Y-33075594D02*
X71063688Y-33027975D01*
X71063688Y-33027975D02*
X71016069Y-32932737D01*
X71016069Y-32932737D02*
X71016069Y-32742261D01*
X71016069Y-32742261D02*
X71063688Y-32647023D01*
X71063688Y-32647023D02*
X71111307Y-32599404D01*
X71111307Y-32599404D02*
X71206545Y-32551785D01*
X71206545Y-32551785D02*
X71254164Y-32551785D01*
X71254164Y-32551785D02*
X71349402Y-32599404D01*
X71349402Y-32599404D02*
X71397021Y-32647023D01*
X71397021Y-32647023D02*
X71444640Y-32742261D01*
X71444640Y-32742261D02*
X71444640Y-32932737D01*
X71444640Y-32932737D02*
X71492259Y-33027975D01*
X71492259Y-33027975D02*
X71539878Y-33075594D01*
X71539878Y-33075594D02*
X71635116Y-33123213D01*
X71635116Y-33123213D02*
X71825592Y-33123213D01*
X71825592Y-33123213D02*
X71920830Y-33075594D01*
X71920830Y-33075594D02*
X71968450Y-33027975D01*
X71968450Y-33027975D02*
X72016069Y-32932737D01*
X72016069Y-32932737D02*
X72016069Y-32742261D01*
X72016069Y-32742261D02*
X71968450Y-32647023D01*
X71968450Y-32647023D02*
X71920830Y-32599404D01*
X71920830Y-32599404D02*
X71825592Y-32551785D01*
X71825592Y-32551785D02*
X71635116Y-32551785D01*
X71635116Y-32551785D02*
X71539878Y-32599404D01*
X71539878Y-32599404D02*
X71492259Y-32647023D01*
X71492259Y-32647023D02*
X71444640Y-32742261D01*
X72336069Y-38679404D02*
X71336069Y-38679404D01*
X72336069Y-38107976D02*
X71764640Y-38536547D01*
X71336069Y-38107976D02*
X71907497Y-38679404D01*
X54266069Y-34075594D02*
X53266069Y-34075594D01*
X53266069Y-34075594D02*
X53266069Y-33837499D01*
X53266069Y-33837499D02*
X53313688Y-33694642D01*
X53313688Y-33694642D02*
X53408926Y-33599404D01*
X53408926Y-33599404D02*
X53504164Y-33551785D01*
X53504164Y-33551785D02*
X53694640Y-33504166D01*
X53694640Y-33504166D02*
X53837497Y-33504166D01*
X53837497Y-33504166D02*
X54027973Y-33551785D01*
X54027973Y-33551785D02*
X54123211Y-33599404D01*
X54123211Y-33599404D02*
X54218450Y-33694642D01*
X54218450Y-33694642D02*
X54266069Y-33837499D01*
X54266069Y-33837499D02*
X54266069Y-34075594D01*
X53266069Y-33170832D02*
X53266069Y-32551785D01*
X53266069Y-32551785D02*
X53647021Y-32885118D01*
X53647021Y-32885118D02*
X53647021Y-32742261D01*
X53647021Y-32742261D02*
X53694640Y-32647023D01*
X53694640Y-32647023D02*
X53742259Y-32599404D01*
X53742259Y-32599404D02*
X53837497Y-32551785D01*
X53837497Y-32551785D02*
X54075592Y-32551785D01*
X54075592Y-32551785D02*
X54170830Y-32599404D01*
X54170830Y-32599404D02*
X54218450Y-32647023D01*
X54218450Y-32647023D02*
X54266069Y-32742261D01*
X54266069Y-32742261D02*
X54266069Y-33027975D01*
X54266069Y-33027975D02*
X54218450Y-33123213D01*
X54218450Y-33123213D02*
X54170830Y-33170832D01*
X54586069Y-38679404D02*
X53586069Y-38679404D01*
X54586069Y-38107976D02*
X54014640Y-38536547D01*
X53586069Y-38107976D02*
X54157497Y-38679404D01*
X94035714Y-83068319D02*
X94035714Y-82068319D01*
X94035714Y-82068319D02*
X94273809Y-82068319D01*
X94273809Y-82068319D02*
X94416666Y-82115938D01*
X94416666Y-82115938D02*
X94511904Y-82211176D01*
X94511904Y-82211176D02*
X94559523Y-82306414D01*
X94559523Y-82306414D02*
X94607142Y-82496890D01*
X94607142Y-82496890D02*
X94607142Y-82639747D01*
X94607142Y-82639747D02*
X94559523Y-82830223D01*
X94559523Y-82830223D02*
X94511904Y-82925461D01*
X94511904Y-82925461D02*
X94416666Y-83020700D01*
X94416666Y-83020700D02*
X94273809Y-83068319D01*
X94273809Y-83068319D02*
X94035714Y-83068319D01*
X95559523Y-83068319D02*
X94988095Y-83068319D01*
X95273809Y-83068319D02*
X95273809Y-82068319D01*
X95273809Y-82068319D02*
X95178571Y-82211176D01*
X95178571Y-82211176D02*
X95083333Y-82306414D01*
X95083333Y-82306414D02*
X94988095Y-82354033D01*
X96416666Y-82068319D02*
X96226190Y-82068319D01*
X96226190Y-82068319D02*
X96130952Y-82115938D01*
X96130952Y-82115938D02*
X96083333Y-82163557D01*
X96083333Y-82163557D02*
X95988095Y-82306414D01*
X95988095Y-82306414D02*
X95940476Y-82496890D01*
X95940476Y-82496890D02*
X95940476Y-82877842D01*
X95940476Y-82877842D02*
X95988095Y-82973080D01*
X95988095Y-82973080D02*
X96035714Y-83020700D01*
X96035714Y-83020700D02*
X96130952Y-83068319D01*
X96130952Y-83068319D02*
X96321428Y-83068319D01*
X96321428Y-83068319D02*
X96416666Y-83020700D01*
X96416666Y-83020700D02*
X96464285Y-82973080D01*
X96464285Y-82973080D02*
X96511904Y-82877842D01*
X96511904Y-82877842D02*
X96511904Y-82639747D01*
X96511904Y-82639747D02*
X96464285Y-82544509D01*
X96464285Y-82544509D02*
X96416666Y-82496890D01*
X96416666Y-82496890D02*
X96321428Y-82449271D01*
X96321428Y-82449271D02*
X96130952Y-82449271D01*
X96130952Y-82449271D02*
X96035714Y-82496890D01*
X96035714Y-82496890D02*
X95988095Y-82544509D01*
X95988095Y-82544509D02*
X95940476Y-82639747D01*
X154241666Y-132829819D02*
X153908333Y-132353628D01*
X153670238Y-132829819D02*
X153670238Y-131829819D01*
X153670238Y-131829819D02*
X154051190Y-131829819D01*
X154051190Y-131829819D02*
X154146428Y-131877438D01*
X154146428Y-131877438D02*
X154194047Y-131925057D01*
X154194047Y-131925057D02*
X154241666Y-132020295D01*
X154241666Y-132020295D02*
X154241666Y-132163152D01*
X154241666Y-132163152D02*
X154194047Y-132258390D01*
X154194047Y-132258390D02*
X154146428Y-132306009D01*
X154146428Y-132306009D02*
X154051190Y-132353628D01*
X154051190Y-132353628D02*
X153670238Y-132353628D01*
X154670238Y-132306009D02*
X155003571Y-132306009D01*
X155146428Y-132829819D02*
X154670238Y-132829819D01*
X154670238Y-132829819D02*
X154670238Y-131829819D01*
X154670238Y-131829819D02*
X155146428Y-131829819D01*
X155908333Y-132306009D02*
X155575000Y-132306009D01*
X155575000Y-132829819D02*
X155575000Y-131829819D01*
X155575000Y-131829819D02*
X156051190Y-131829819D01*
X156575000Y-131829819D02*
X156575000Y-132067914D01*
X156336905Y-131972676D02*
X156575000Y-132067914D01*
X156575000Y-132067914D02*
X156813095Y-131972676D01*
X156432143Y-132258390D02*
X156575000Y-132067914D01*
X156575000Y-132067914D02*
X156717857Y-132258390D01*
X157336905Y-131829819D02*
X157336905Y-132067914D01*
X157098810Y-131972676D02*
X157336905Y-132067914D01*
X157336905Y-132067914D02*
X157575000Y-131972676D01*
X157194048Y-132258390D02*
X157336905Y-132067914D01*
X157336905Y-132067914D02*
X157479762Y-132258390D01*
X14541666Y-132829819D02*
X14208333Y-132353628D01*
X13970238Y-132829819D02*
X13970238Y-131829819D01*
X13970238Y-131829819D02*
X14351190Y-131829819D01*
X14351190Y-131829819D02*
X14446428Y-131877438D01*
X14446428Y-131877438D02*
X14494047Y-131925057D01*
X14494047Y-131925057D02*
X14541666Y-132020295D01*
X14541666Y-132020295D02*
X14541666Y-132163152D01*
X14541666Y-132163152D02*
X14494047Y-132258390D01*
X14494047Y-132258390D02*
X14446428Y-132306009D01*
X14446428Y-132306009D02*
X14351190Y-132353628D01*
X14351190Y-132353628D02*
X13970238Y-132353628D01*
X14970238Y-132306009D02*
X15303571Y-132306009D01*
X15446428Y-132829819D02*
X14970238Y-132829819D01*
X14970238Y-132829819D02*
X14970238Y-131829819D01*
X14970238Y-131829819D02*
X15446428Y-131829819D01*
X16208333Y-132306009D02*
X15875000Y-132306009D01*
X15875000Y-132829819D02*
X15875000Y-131829819D01*
X15875000Y-131829819D02*
X16351190Y-131829819D01*
X16875000Y-131829819D02*
X16875000Y-132067914D01*
X16636905Y-131972676D02*
X16875000Y-132067914D01*
X16875000Y-132067914D02*
X17113095Y-131972676D01*
X16732143Y-132258390D02*
X16875000Y-132067914D01*
X16875000Y-132067914D02*
X17017857Y-132258390D01*
X17636905Y-131829819D02*
X17636905Y-132067914D01*
X17398810Y-131972676D02*
X17636905Y-132067914D01*
X17636905Y-132067914D02*
X17875000Y-131972676D01*
X17494048Y-132258390D02*
X17636905Y-132067914D01*
X17636905Y-132067914D02*
X17779762Y-132258390D01*
X89766069Y-34551785D02*
X88766069Y-34551785D01*
X88766069Y-34551785D02*
X88766069Y-34313690D01*
X88766069Y-34313690D02*
X88813688Y-34170833D01*
X88813688Y-34170833D02*
X88908926Y-34075595D01*
X88908926Y-34075595D02*
X89004164Y-34027976D01*
X89004164Y-34027976D02*
X89194640Y-33980357D01*
X89194640Y-33980357D02*
X89337497Y-33980357D01*
X89337497Y-33980357D02*
X89527973Y-34027976D01*
X89527973Y-34027976D02*
X89623211Y-34075595D01*
X89623211Y-34075595D02*
X89718450Y-34170833D01*
X89718450Y-34170833D02*
X89766069Y-34313690D01*
X89766069Y-34313690D02*
X89766069Y-34551785D01*
X89766069Y-33027976D02*
X89766069Y-33599404D01*
X89766069Y-33313690D02*
X88766069Y-33313690D01*
X88766069Y-33313690D02*
X88908926Y-33408928D01*
X88908926Y-33408928D02*
X89004164Y-33504166D01*
X89004164Y-33504166D02*
X89051783Y-33599404D01*
X88766069Y-32694642D02*
X88766069Y-32075595D01*
X88766069Y-32075595D02*
X89147021Y-32408928D01*
X89147021Y-32408928D02*
X89147021Y-32266071D01*
X89147021Y-32266071D02*
X89194640Y-32170833D01*
X89194640Y-32170833D02*
X89242259Y-32123214D01*
X89242259Y-32123214D02*
X89337497Y-32075595D01*
X89337497Y-32075595D02*
X89575592Y-32075595D01*
X89575592Y-32075595D02*
X89670830Y-32123214D01*
X89670830Y-32123214D02*
X89718450Y-32170833D01*
X89718450Y-32170833D02*
X89766069Y-32266071D01*
X89766069Y-32266071D02*
X89766069Y-32551785D01*
X89766069Y-32551785D02*
X89718450Y-32647023D01*
X89718450Y-32647023D02*
X89670830Y-32694642D01*
X90086069Y-38679404D02*
X89086069Y-38679404D01*
X90086069Y-38107976D02*
X89514640Y-38536547D01*
X89086069Y-38107976D02*
X89657497Y-38679404D01*
D13*
X34675892Y-111652219D02*
X34342559Y-111176028D01*
X34104464Y-111652219D02*
X34104464Y-110652219D01*
X34104464Y-110652219D02*
X34485416Y-110652219D01*
X34485416Y-110652219D02*
X34580654Y-110699838D01*
X34580654Y-110699838D02*
X34628273Y-110747457D01*
X34628273Y-110747457D02*
X34675892Y-110842695D01*
X34675892Y-110842695D02*
X34675892Y-110985552D01*
X34675892Y-110985552D02*
X34628273Y-111080790D01*
X34628273Y-111080790D02*
X34580654Y-111128409D01*
X34580654Y-111128409D02*
X34485416Y-111176028D01*
X34485416Y-111176028D02*
X34104464Y-111176028D01*
X35628273Y-110699838D02*
X35533035Y-110652219D01*
X35533035Y-110652219D02*
X35390178Y-110652219D01*
X35390178Y-110652219D02*
X35247321Y-110699838D01*
X35247321Y-110699838D02*
X35152083Y-110795076D01*
X35152083Y-110795076D02*
X35104464Y-110890314D01*
X35104464Y-110890314D02*
X35056845Y-111080790D01*
X35056845Y-111080790D02*
X35056845Y-111223647D01*
X35056845Y-111223647D02*
X35104464Y-111414123D01*
X35104464Y-111414123D02*
X35152083Y-111509361D01*
X35152083Y-111509361D02*
X35247321Y-111604600D01*
X35247321Y-111604600D02*
X35390178Y-111652219D01*
X35390178Y-111652219D02*
X35485416Y-111652219D01*
X35485416Y-111652219D02*
X35628273Y-111604600D01*
X35628273Y-111604600D02*
X35675892Y-111556980D01*
X35675892Y-111556980D02*
X35675892Y-111223647D01*
X35675892Y-111223647D02*
X35485416Y-111223647D01*
X36437797Y-111128409D02*
X36580654Y-111176028D01*
X36580654Y-111176028D02*
X36628273Y-111223647D01*
X36628273Y-111223647D02*
X36675892Y-111318885D01*
X36675892Y-111318885D02*
X36675892Y-111461742D01*
X36675892Y-111461742D02*
X36628273Y-111556980D01*
X36628273Y-111556980D02*
X36580654Y-111604600D01*
X36580654Y-111604600D02*
X36485416Y-111652219D01*
X36485416Y-111652219D02*
X36104464Y-111652219D01*
X36104464Y-111652219D02*
X36104464Y-110652219D01*
X36104464Y-110652219D02*
X36437797Y-110652219D01*
X36437797Y-110652219D02*
X36533035Y-110699838D01*
X36533035Y-110699838D02*
X36580654Y-110747457D01*
X36580654Y-110747457D02*
X36628273Y-110842695D01*
X36628273Y-110842695D02*
X36628273Y-110937933D01*
X36628273Y-110937933D02*
X36580654Y-111033171D01*
X36580654Y-111033171D02*
X36533035Y-111080790D01*
X36533035Y-111080790D02*
X36437797Y-111128409D01*
X36437797Y-111128409D02*
X36104464Y-111128409D01*
X37628273Y-111652219D02*
X37056845Y-111652219D01*
X37342559Y-111652219D02*
X37342559Y-110652219D01*
X37342559Y-110652219D02*
X37247321Y-110795076D01*
X37247321Y-110795076D02*
X37152083Y-110890314D01*
X37152083Y-110890314D02*
X37056845Y-110937933D01*
X38247321Y-110652219D02*
X38342559Y-110652219D01*
X38342559Y-110652219D02*
X38437797Y-110699838D01*
X38437797Y-110699838D02*
X38485416Y-110747457D01*
X38485416Y-110747457D02*
X38533035Y-110842695D01*
X38533035Y-110842695D02*
X38580654Y-111033171D01*
X38580654Y-111033171D02*
X38580654Y-111271266D01*
X38580654Y-111271266D02*
X38533035Y-111461742D01*
X38533035Y-111461742D02*
X38485416Y-111556980D01*
X38485416Y-111556980D02*
X38437797Y-111604600D01*
X38437797Y-111604600D02*
X38342559Y-111652219D01*
X38342559Y-111652219D02*
X38247321Y-111652219D01*
X38247321Y-111652219D02*
X38152083Y-111604600D01*
X38152083Y-111604600D02*
X38104464Y-111556980D01*
X38104464Y-111556980D02*
X38056845Y-111461742D01*
X38056845Y-111461742D02*
X38009226Y-111271266D01*
X38009226Y-111271266D02*
X38009226Y-111033171D01*
X38009226Y-111033171D02*
X38056845Y-110842695D01*
X38056845Y-110842695D02*
X38104464Y-110747457D01*
X38104464Y-110747457D02*
X38152083Y-110699838D01*
X38152083Y-110699838D02*
X38247321Y-110652219D01*
X70870833Y-54502219D02*
X70537500Y-54026028D01*
X70299405Y-54502219D02*
X70299405Y-53502219D01*
X70299405Y-53502219D02*
X70680357Y-53502219D01*
X70680357Y-53502219D02*
X70775595Y-53549838D01*
X70775595Y-53549838D02*
X70823214Y-53597457D01*
X70823214Y-53597457D02*
X70870833Y-53692695D01*
X70870833Y-53692695D02*
X70870833Y-53835552D01*
X70870833Y-53835552D02*
X70823214Y-53930790D01*
X70823214Y-53930790D02*
X70775595Y-53978409D01*
X70775595Y-53978409D02*
X70680357Y-54026028D01*
X70680357Y-54026028D02*
X70299405Y-54026028D01*
X71823214Y-53549838D02*
X71727976Y-53502219D01*
X71727976Y-53502219D02*
X71585119Y-53502219D01*
X71585119Y-53502219D02*
X71442262Y-53549838D01*
X71442262Y-53549838D02*
X71347024Y-53645076D01*
X71347024Y-53645076D02*
X71299405Y-53740314D01*
X71299405Y-53740314D02*
X71251786Y-53930790D01*
X71251786Y-53930790D02*
X71251786Y-54073647D01*
X71251786Y-54073647D02*
X71299405Y-54264123D01*
X71299405Y-54264123D02*
X71347024Y-54359361D01*
X71347024Y-54359361D02*
X71442262Y-54454600D01*
X71442262Y-54454600D02*
X71585119Y-54502219D01*
X71585119Y-54502219D02*
X71680357Y-54502219D01*
X71680357Y-54502219D02*
X71823214Y-54454600D01*
X71823214Y-54454600D02*
X71870833Y-54406980D01*
X71870833Y-54406980D02*
X71870833Y-54073647D01*
X71870833Y-54073647D02*
X71680357Y-54073647D01*
X72632738Y-53978409D02*
X72775595Y-54026028D01*
X72775595Y-54026028D02*
X72823214Y-54073647D01*
X72823214Y-54073647D02*
X72870833Y-54168885D01*
X72870833Y-54168885D02*
X72870833Y-54311742D01*
X72870833Y-54311742D02*
X72823214Y-54406980D01*
X72823214Y-54406980D02*
X72775595Y-54454600D01*
X72775595Y-54454600D02*
X72680357Y-54502219D01*
X72680357Y-54502219D02*
X72299405Y-54502219D01*
X72299405Y-54502219D02*
X72299405Y-53502219D01*
X72299405Y-53502219D02*
X72632738Y-53502219D01*
X72632738Y-53502219D02*
X72727976Y-53549838D01*
X72727976Y-53549838D02*
X72775595Y-53597457D01*
X72775595Y-53597457D02*
X72823214Y-53692695D01*
X72823214Y-53692695D02*
X72823214Y-53787933D01*
X72823214Y-53787933D02*
X72775595Y-53883171D01*
X72775595Y-53883171D02*
X72727976Y-53930790D01*
X72727976Y-53930790D02*
X72632738Y-53978409D01*
X72632738Y-53978409D02*
X72299405Y-53978409D01*
X73204167Y-53502219D02*
X73823214Y-53502219D01*
X73823214Y-53502219D02*
X73489881Y-53883171D01*
X73489881Y-53883171D02*
X73632738Y-53883171D01*
X73632738Y-53883171D02*
X73727976Y-53930790D01*
X73727976Y-53930790D02*
X73775595Y-53978409D01*
X73775595Y-53978409D02*
X73823214Y-54073647D01*
X73823214Y-54073647D02*
X73823214Y-54311742D01*
X73823214Y-54311742D02*
X73775595Y-54406980D01*
X73775595Y-54406980D02*
X73727976Y-54454600D01*
X73727976Y-54454600D02*
X73632738Y-54502219D01*
X73632738Y-54502219D02*
X73347024Y-54502219D01*
X73347024Y-54502219D02*
X73251786Y-54454600D01*
X73251786Y-54454600D02*
X73204167Y-54406980D01*
D12*
X47166069Y-34075594D02*
X46166069Y-34075594D01*
X46166069Y-34075594D02*
X46166069Y-33837499D01*
X46166069Y-33837499D02*
X46213688Y-33694642D01*
X46213688Y-33694642D02*
X46308926Y-33599404D01*
X46308926Y-33599404D02*
X46404164Y-33551785D01*
X46404164Y-33551785D02*
X46594640Y-33504166D01*
X46594640Y-33504166D02*
X46737497Y-33504166D01*
X46737497Y-33504166D02*
X46927973Y-33551785D01*
X46927973Y-33551785D02*
X47023211Y-33599404D01*
X47023211Y-33599404D02*
X47118450Y-33694642D01*
X47118450Y-33694642D02*
X47166069Y-33837499D01*
X47166069Y-33837499D02*
X47166069Y-34075594D01*
X47166069Y-32551785D02*
X47166069Y-33123213D01*
X47166069Y-32837499D02*
X46166069Y-32837499D01*
X46166069Y-32837499D02*
X46308926Y-32932737D01*
X46308926Y-32932737D02*
X46404164Y-33027975D01*
X46404164Y-33027975D02*
X46451783Y-33123213D01*
X47486069Y-38679404D02*
X46486069Y-38679404D01*
X47486069Y-38107976D02*
X46914640Y-38536547D01*
X46486069Y-38107976D02*
X47057497Y-38679404D01*
D13*
X51820833Y-54648811D02*
X51487500Y-54172620D01*
X51249405Y-54648811D02*
X51249405Y-53648811D01*
X51249405Y-53648811D02*
X51630357Y-53648811D01*
X51630357Y-53648811D02*
X51725595Y-53696430D01*
X51725595Y-53696430D02*
X51773214Y-53744049D01*
X51773214Y-53744049D02*
X51820833Y-53839287D01*
X51820833Y-53839287D02*
X51820833Y-53982144D01*
X51820833Y-53982144D02*
X51773214Y-54077382D01*
X51773214Y-54077382D02*
X51725595Y-54125001D01*
X51725595Y-54125001D02*
X51630357Y-54172620D01*
X51630357Y-54172620D02*
X51249405Y-54172620D01*
X52773214Y-53696430D02*
X52677976Y-53648811D01*
X52677976Y-53648811D02*
X52535119Y-53648811D01*
X52535119Y-53648811D02*
X52392262Y-53696430D01*
X52392262Y-53696430D02*
X52297024Y-53791668D01*
X52297024Y-53791668D02*
X52249405Y-53886906D01*
X52249405Y-53886906D02*
X52201786Y-54077382D01*
X52201786Y-54077382D02*
X52201786Y-54220239D01*
X52201786Y-54220239D02*
X52249405Y-54410715D01*
X52249405Y-54410715D02*
X52297024Y-54505953D01*
X52297024Y-54505953D02*
X52392262Y-54601192D01*
X52392262Y-54601192D02*
X52535119Y-54648811D01*
X52535119Y-54648811D02*
X52630357Y-54648811D01*
X52630357Y-54648811D02*
X52773214Y-54601192D01*
X52773214Y-54601192D02*
X52820833Y-54553572D01*
X52820833Y-54553572D02*
X52820833Y-54220239D01*
X52820833Y-54220239D02*
X52630357Y-54220239D01*
X53582738Y-54125001D02*
X53725595Y-54172620D01*
X53725595Y-54172620D02*
X53773214Y-54220239D01*
X53773214Y-54220239D02*
X53820833Y-54315477D01*
X53820833Y-54315477D02*
X53820833Y-54458334D01*
X53820833Y-54458334D02*
X53773214Y-54553572D01*
X53773214Y-54553572D02*
X53725595Y-54601192D01*
X53725595Y-54601192D02*
X53630357Y-54648811D01*
X53630357Y-54648811D02*
X53249405Y-54648811D01*
X53249405Y-54648811D02*
X53249405Y-53648811D01*
X53249405Y-53648811D02*
X53582738Y-53648811D01*
X53582738Y-53648811D02*
X53677976Y-53696430D01*
X53677976Y-53696430D02*
X53725595Y-53744049D01*
X53725595Y-53744049D02*
X53773214Y-53839287D01*
X53773214Y-53839287D02*
X53773214Y-53934525D01*
X53773214Y-53934525D02*
X53725595Y-54029763D01*
X53725595Y-54029763D02*
X53677976Y-54077382D01*
X53677976Y-54077382D02*
X53582738Y-54125001D01*
X53582738Y-54125001D02*
X53249405Y-54125001D01*
X54201786Y-53744049D02*
X54249405Y-53696430D01*
X54249405Y-53696430D02*
X54344643Y-53648811D01*
X54344643Y-53648811D02*
X54582738Y-53648811D01*
X54582738Y-53648811D02*
X54677976Y-53696430D01*
X54677976Y-53696430D02*
X54725595Y-53744049D01*
X54725595Y-53744049D02*
X54773214Y-53839287D01*
X54773214Y-53839287D02*
X54773214Y-53934525D01*
X54773214Y-53934525D02*
X54725595Y-54077382D01*
X54725595Y-54077382D02*
X54154167Y-54648811D01*
X54154167Y-54648811D02*
X54773214Y-54648811D01*
D12*
X89725595Y-44968319D02*
X89725595Y-43968319D01*
X89725595Y-43968319D02*
X90297023Y-44968319D01*
X90297023Y-44968319D02*
X90297023Y-43968319D01*
X90677976Y-43968319D02*
X91297023Y-43968319D01*
X91297023Y-43968319D02*
X90963690Y-44349271D01*
X90963690Y-44349271D02*
X91106547Y-44349271D01*
X91106547Y-44349271D02*
X91201785Y-44396890D01*
X91201785Y-44396890D02*
X91249404Y-44444509D01*
X91249404Y-44444509D02*
X91297023Y-44539747D01*
X91297023Y-44539747D02*
X91297023Y-44777842D01*
X91297023Y-44777842D02*
X91249404Y-44873080D01*
X91249404Y-44873080D02*
X91201785Y-44920700D01*
X91201785Y-44920700D02*
X91106547Y-44968319D01*
X91106547Y-44968319D02*
X90820833Y-44968319D01*
X90820833Y-44968319D02*
X90725595Y-44920700D01*
X90725595Y-44920700D02*
X90677976Y-44873080D01*
X75566069Y-34075594D02*
X74566069Y-34075594D01*
X74566069Y-34075594D02*
X74566069Y-33837499D01*
X74566069Y-33837499D02*
X74613688Y-33694642D01*
X74613688Y-33694642D02*
X74708926Y-33599404D01*
X74708926Y-33599404D02*
X74804164Y-33551785D01*
X74804164Y-33551785D02*
X74994640Y-33504166D01*
X74994640Y-33504166D02*
X75137497Y-33504166D01*
X75137497Y-33504166D02*
X75327973Y-33551785D01*
X75327973Y-33551785D02*
X75423211Y-33599404D01*
X75423211Y-33599404D02*
X75518450Y-33694642D01*
X75518450Y-33694642D02*
X75566069Y-33837499D01*
X75566069Y-33837499D02*
X75566069Y-34075594D01*
X75566069Y-33027975D02*
X75566069Y-32837499D01*
X75566069Y-32837499D02*
X75518450Y-32742261D01*
X75518450Y-32742261D02*
X75470830Y-32694642D01*
X75470830Y-32694642D02*
X75327973Y-32599404D01*
X75327973Y-32599404D02*
X75137497Y-32551785D01*
X75137497Y-32551785D02*
X74756545Y-32551785D01*
X74756545Y-32551785D02*
X74661307Y-32599404D01*
X74661307Y-32599404D02*
X74613688Y-32647023D01*
X74613688Y-32647023D02*
X74566069Y-32742261D01*
X74566069Y-32742261D02*
X74566069Y-32932737D01*
X74566069Y-32932737D02*
X74613688Y-33027975D01*
X74613688Y-33027975D02*
X74661307Y-33075594D01*
X74661307Y-33075594D02*
X74756545Y-33123213D01*
X74756545Y-33123213D02*
X74994640Y-33123213D01*
X74994640Y-33123213D02*
X75089878Y-33075594D01*
X75089878Y-33075594D02*
X75137497Y-33027975D01*
X75137497Y-33027975D02*
X75185116Y-32932737D01*
X75185116Y-32932737D02*
X75185116Y-32742261D01*
X75185116Y-32742261D02*
X75137497Y-32647023D01*
X75137497Y-32647023D02*
X75089878Y-32599404D01*
X75089878Y-32599404D02*
X74994640Y-32551785D01*
X75886069Y-38679404D02*
X74886069Y-38679404D01*
X75886069Y-38107976D02*
X75314640Y-38536547D01*
X74886069Y-38107976D02*
X75457497Y-38679404D01*
X96866069Y-34551785D02*
X95866069Y-34551785D01*
X95866069Y-34551785D02*
X95866069Y-34313690D01*
X95866069Y-34313690D02*
X95913688Y-34170833D01*
X95913688Y-34170833D02*
X96008926Y-34075595D01*
X96008926Y-34075595D02*
X96104164Y-34027976D01*
X96104164Y-34027976D02*
X96294640Y-33980357D01*
X96294640Y-33980357D02*
X96437497Y-33980357D01*
X96437497Y-33980357D02*
X96627973Y-34027976D01*
X96627973Y-34027976D02*
X96723211Y-34075595D01*
X96723211Y-34075595D02*
X96818450Y-34170833D01*
X96818450Y-34170833D02*
X96866069Y-34313690D01*
X96866069Y-34313690D02*
X96866069Y-34551785D01*
X96866069Y-33027976D02*
X96866069Y-33599404D01*
X96866069Y-33313690D02*
X95866069Y-33313690D01*
X95866069Y-33313690D02*
X96008926Y-33408928D01*
X96008926Y-33408928D02*
X96104164Y-33504166D01*
X96104164Y-33504166D02*
X96151783Y-33599404D01*
X95866069Y-32123214D02*
X95866069Y-32599404D01*
X95866069Y-32599404D02*
X96342259Y-32647023D01*
X96342259Y-32647023D02*
X96294640Y-32599404D01*
X96294640Y-32599404D02*
X96247021Y-32504166D01*
X96247021Y-32504166D02*
X96247021Y-32266071D01*
X96247021Y-32266071D02*
X96294640Y-32170833D01*
X96294640Y-32170833D02*
X96342259Y-32123214D01*
X96342259Y-32123214D02*
X96437497Y-32075595D01*
X96437497Y-32075595D02*
X96675592Y-32075595D01*
X96675592Y-32075595D02*
X96770830Y-32123214D01*
X96770830Y-32123214D02*
X96818450Y-32170833D01*
X96818450Y-32170833D02*
X96866069Y-32266071D01*
X96866069Y-32266071D02*
X96866069Y-32504166D01*
X96866069Y-32504166D02*
X96818450Y-32599404D01*
X96818450Y-32599404D02*
X96770830Y-32647023D01*
X97186069Y-38679404D02*
X96186069Y-38679404D01*
X97186069Y-38107976D02*
X96614640Y-38536547D01*
X96186069Y-38107976D02*
X96757497Y-38679404D01*
X93316069Y-34551785D02*
X92316069Y-34551785D01*
X92316069Y-34551785D02*
X92316069Y-34313690D01*
X92316069Y-34313690D02*
X92363688Y-34170833D01*
X92363688Y-34170833D02*
X92458926Y-34075595D01*
X92458926Y-34075595D02*
X92554164Y-34027976D01*
X92554164Y-34027976D02*
X92744640Y-33980357D01*
X92744640Y-33980357D02*
X92887497Y-33980357D01*
X92887497Y-33980357D02*
X93077973Y-34027976D01*
X93077973Y-34027976D02*
X93173211Y-34075595D01*
X93173211Y-34075595D02*
X93268450Y-34170833D01*
X93268450Y-34170833D02*
X93316069Y-34313690D01*
X93316069Y-34313690D02*
X93316069Y-34551785D01*
X93316069Y-33027976D02*
X93316069Y-33599404D01*
X93316069Y-33313690D02*
X92316069Y-33313690D01*
X92316069Y-33313690D02*
X92458926Y-33408928D01*
X92458926Y-33408928D02*
X92554164Y-33504166D01*
X92554164Y-33504166D02*
X92601783Y-33599404D01*
X92649402Y-32170833D02*
X93316069Y-32170833D01*
X92268450Y-32408928D02*
X92982735Y-32647023D01*
X92982735Y-32647023D02*
X92982735Y-32027976D01*
X93636069Y-38679404D02*
X92636069Y-38679404D01*
X93636069Y-38107976D02*
X93064640Y-38536547D01*
X92636069Y-38107976D02*
X93207497Y-38679404D01*
X70675595Y-44968319D02*
X70675595Y-43968319D01*
X70675595Y-43968319D02*
X71247023Y-44968319D01*
X71247023Y-44968319D02*
X71247023Y-43968319D01*
X71675595Y-44063557D02*
X71723214Y-44015938D01*
X71723214Y-44015938D02*
X71818452Y-43968319D01*
X71818452Y-43968319D02*
X72056547Y-43968319D01*
X72056547Y-43968319D02*
X72151785Y-44015938D01*
X72151785Y-44015938D02*
X72199404Y-44063557D01*
X72199404Y-44063557D02*
X72247023Y-44158795D01*
X72247023Y-44158795D02*
X72247023Y-44254033D01*
X72247023Y-44254033D02*
X72199404Y-44396890D01*
X72199404Y-44396890D02*
X71627976Y-44968319D01*
X71627976Y-44968319D02*
X72247023Y-44968319D01*
X33385417Y-102070700D02*
X33528274Y-102118319D01*
X33528274Y-102118319D02*
X33766369Y-102118319D01*
X33766369Y-102118319D02*
X33861607Y-102070700D01*
X33861607Y-102070700D02*
X33909226Y-102023080D01*
X33909226Y-102023080D02*
X33956845Y-101927842D01*
X33956845Y-101927842D02*
X33956845Y-101832604D01*
X33956845Y-101832604D02*
X33909226Y-101737366D01*
X33909226Y-101737366D02*
X33861607Y-101689747D01*
X33861607Y-101689747D02*
X33766369Y-101642128D01*
X33766369Y-101642128D02*
X33575893Y-101594509D01*
X33575893Y-101594509D02*
X33480655Y-101546890D01*
X33480655Y-101546890D02*
X33433036Y-101499271D01*
X33433036Y-101499271D02*
X33385417Y-101404033D01*
X33385417Y-101404033D02*
X33385417Y-101308795D01*
X33385417Y-101308795D02*
X33433036Y-101213557D01*
X33433036Y-101213557D02*
X33480655Y-101165938D01*
X33480655Y-101165938D02*
X33575893Y-101118319D01*
X33575893Y-101118319D02*
X33813988Y-101118319D01*
X33813988Y-101118319D02*
X33956845Y-101165938D01*
X34385417Y-102118319D02*
X34385417Y-101118319D01*
X34385417Y-101594509D02*
X34956845Y-101594509D01*
X34956845Y-102118319D02*
X34956845Y-101118319D01*
X35433036Y-102118319D02*
X35433036Y-101118319D01*
X36242559Y-101594509D02*
X35909226Y-101594509D01*
X35909226Y-102118319D02*
X35909226Y-101118319D01*
X35909226Y-101118319D02*
X36385416Y-101118319D01*
X36623512Y-101118319D02*
X37194940Y-101118319D01*
X36909226Y-102118319D02*
X36909226Y-101118319D01*
X38052083Y-102118319D02*
X37480655Y-102118319D01*
X37766369Y-102118319D02*
X37766369Y-101118319D01*
X37766369Y-101118319D02*
X37671131Y-101261176D01*
X37671131Y-101261176D02*
X37575893Y-101356414D01*
X37575893Y-101356414D02*
X37480655Y-101404033D01*
D13*
X75157142Y-92602219D02*
X74823809Y-92126028D01*
X74585714Y-92602219D02*
X74585714Y-91602219D01*
X74585714Y-91602219D02*
X74966666Y-91602219D01*
X74966666Y-91602219D02*
X75061904Y-91649838D01*
X75061904Y-91649838D02*
X75109523Y-91697457D01*
X75109523Y-91697457D02*
X75157142Y-91792695D01*
X75157142Y-91792695D02*
X75157142Y-91935552D01*
X75157142Y-91935552D02*
X75109523Y-92030790D01*
X75109523Y-92030790D02*
X75061904Y-92078409D01*
X75061904Y-92078409D02*
X74966666Y-92126028D01*
X74966666Y-92126028D02*
X74585714Y-92126028D01*
X76109523Y-91649838D02*
X76014285Y-91602219D01*
X76014285Y-91602219D02*
X75871428Y-91602219D01*
X75871428Y-91602219D02*
X75728571Y-91649838D01*
X75728571Y-91649838D02*
X75633333Y-91745076D01*
X75633333Y-91745076D02*
X75585714Y-91840314D01*
X75585714Y-91840314D02*
X75538095Y-92030790D01*
X75538095Y-92030790D02*
X75538095Y-92173647D01*
X75538095Y-92173647D02*
X75585714Y-92364123D01*
X75585714Y-92364123D02*
X75633333Y-92459361D01*
X75633333Y-92459361D02*
X75728571Y-92554600D01*
X75728571Y-92554600D02*
X75871428Y-92602219D01*
X75871428Y-92602219D02*
X75966666Y-92602219D01*
X75966666Y-92602219D02*
X76109523Y-92554600D01*
X76109523Y-92554600D02*
X76157142Y-92506980D01*
X76157142Y-92506980D02*
X76157142Y-92173647D01*
X76157142Y-92173647D02*
X75966666Y-92173647D01*
X76919047Y-92078409D02*
X77061904Y-92126028D01*
X77061904Y-92126028D02*
X77109523Y-92173647D01*
X77109523Y-92173647D02*
X77157142Y-92268885D01*
X77157142Y-92268885D02*
X77157142Y-92411742D01*
X77157142Y-92411742D02*
X77109523Y-92506980D01*
X77109523Y-92506980D02*
X77061904Y-92554600D01*
X77061904Y-92554600D02*
X76966666Y-92602219D01*
X76966666Y-92602219D02*
X76585714Y-92602219D01*
X76585714Y-92602219D02*
X76585714Y-91602219D01*
X76585714Y-91602219D02*
X76919047Y-91602219D01*
X76919047Y-91602219D02*
X77014285Y-91649838D01*
X77014285Y-91649838D02*
X77061904Y-91697457D01*
X77061904Y-91697457D02*
X77109523Y-91792695D01*
X77109523Y-91792695D02*
X77109523Y-91887933D01*
X77109523Y-91887933D02*
X77061904Y-91983171D01*
X77061904Y-91983171D02*
X77014285Y-92030790D01*
X77014285Y-92030790D02*
X76919047Y-92078409D01*
X76919047Y-92078409D02*
X76585714Y-92078409D01*
X78109523Y-92602219D02*
X77538095Y-92602219D01*
X77823809Y-92602219D02*
X77823809Y-91602219D01*
X77823809Y-91602219D02*
X77728571Y-91745076D01*
X77728571Y-91745076D02*
X77633333Y-91840314D01*
X77633333Y-91840314D02*
X77538095Y-91887933D01*
X78490476Y-91697457D02*
X78538095Y-91649838D01*
X78538095Y-91649838D02*
X78633333Y-91602219D01*
X78633333Y-91602219D02*
X78871428Y-91602219D01*
X78871428Y-91602219D02*
X78966666Y-91649838D01*
X78966666Y-91649838D02*
X79014285Y-91697457D01*
X79014285Y-91697457D02*
X79061904Y-91792695D01*
X79061904Y-91792695D02*
X79061904Y-91887933D01*
X79061904Y-91887933D02*
X79014285Y-92030790D01*
X79014285Y-92030790D02*
X78442857Y-92602219D01*
X78442857Y-92602219D02*
X79061904Y-92602219D01*
D12*
X86216069Y-34551785D02*
X85216069Y-34551785D01*
X85216069Y-34551785D02*
X85216069Y-34313690D01*
X85216069Y-34313690D02*
X85263688Y-34170833D01*
X85263688Y-34170833D02*
X85358926Y-34075595D01*
X85358926Y-34075595D02*
X85454164Y-34027976D01*
X85454164Y-34027976D02*
X85644640Y-33980357D01*
X85644640Y-33980357D02*
X85787497Y-33980357D01*
X85787497Y-33980357D02*
X85977973Y-34027976D01*
X85977973Y-34027976D02*
X86073211Y-34075595D01*
X86073211Y-34075595D02*
X86168450Y-34170833D01*
X86168450Y-34170833D02*
X86216069Y-34313690D01*
X86216069Y-34313690D02*
X86216069Y-34551785D01*
X86216069Y-33027976D02*
X86216069Y-33599404D01*
X86216069Y-33313690D02*
X85216069Y-33313690D01*
X85216069Y-33313690D02*
X85358926Y-33408928D01*
X85358926Y-33408928D02*
X85454164Y-33504166D01*
X85454164Y-33504166D02*
X85501783Y-33599404D01*
X85311307Y-32647023D02*
X85263688Y-32599404D01*
X85263688Y-32599404D02*
X85216069Y-32504166D01*
X85216069Y-32504166D02*
X85216069Y-32266071D01*
X85216069Y-32266071D02*
X85263688Y-32170833D01*
X85263688Y-32170833D02*
X85311307Y-32123214D01*
X85311307Y-32123214D02*
X85406545Y-32075595D01*
X85406545Y-32075595D02*
X85501783Y-32075595D01*
X85501783Y-32075595D02*
X85644640Y-32123214D01*
X85644640Y-32123214D02*
X86216069Y-32694642D01*
X86216069Y-32694642D02*
X86216069Y-32075595D01*
X86536069Y-38679404D02*
X85536069Y-38679404D01*
X86536069Y-38107976D02*
X85964640Y-38536547D01*
X85536069Y-38107976D02*
X86107497Y-38679404D01*
X26884524Y-63018319D02*
X27455952Y-63018319D01*
X27170238Y-64018319D02*
X27170238Y-63018319D01*
X27741667Y-63732604D02*
X28217857Y-63732604D01*
X27646429Y-64018319D02*
X27979762Y-63018319D01*
X27979762Y-63018319D02*
X28313095Y-64018319D01*
X28979762Y-63494509D02*
X29122619Y-63542128D01*
X29122619Y-63542128D02*
X29170238Y-63589747D01*
X29170238Y-63589747D02*
X29217857Y-63684985D01*
X29217857Y-63684985D02*
X29217857Y-63827842D01*
X29217857Y-63827842D02*
X29170238Y-63923080D01*
X29170238Y-63923080D02*
X29122619Y-63970700D01*
X29122619Y-63970700D02*
X29027381Y-64018319D01*
X29027381Y-64018319D02*
X28646429Y-64018319D01*
X28646429Y-64018319D02*
X28646429Y-63018319D01*
X28646429Y-63018319D02*
X28979762Y-63018319D01*
X28979762Y-63018319D02*
X29075000Y-63065938D01*
X29075000Y-63065938D02*
X29122619Y-63113557D01*
X29122619Y-63113557D02*
X29170238Y-63208795D01*
X29170238Y-63208795D02*
X29170238Y-63304033D01*
X29170238Y-63304033D02*
X29122619Y-63399271D01*
X29122619Y-63399271D02*
X29075000Y-63446890D01*
X29075000Y-63446890D02*
X28979762Y-63494509D01*
X28979762Y-63494509D02*
X28646429Y-63494509D01*
X30170238Y-64018319D02*
X29598810Y-64018319D01*
X29884524Y-64018319D02*
X29884524Y-63018319D01*
X29884524Y-63018319D02*
X29789286Y-63161176D01*
X29789286Y-63161176D02*
X29694048Y-63256414D01*
X29694048Y-63256414D02*
X29598810Y-63304033D01*
D13*
X94207142Y-92602219D02*
X93873809Y-92126028D01*
X93635714Y-92602219D02*
X93635714Y-91602219D01*
X93635714Y-91602219D02*
X94016666Y-91602219D01*
X94016666Y-91602219D02*
X94111904Y-91649838D01*
X94111904Y-91649838D02*
X94159523Y-91697457D01*
X94159523Y-91697457D02*
X94207142Y-91792695D01*
X94207142Y-91792695D02*
X94207142Y-91935552D01*
X94207142Y-91935552D02*
X94159523Y-92030790D01*
X94159523Y-92030790D02*
X94111904Y-92078409D01*
X94111904Y-92078409D02*
X94016666Y-92126028D01*
X94016666Y-92126028D02*
X93635714Y-92126028D01*
X95159523Y-91649838D02*
X95064285Y-91602219D01*
X95064285Y-91602219D02*
X94921428Y-91602219D01*
X94921428Y-91602219D02*
X94778571Y-91649838D01*
X94778571Y-91649838D02*
X94683333Y-91745076D01*
X94683333Y-91745076D02*
X94635714Y-91840314D01*
X94635714Y-91840314D02*
X94588095Y-92030790D01*
X94588095Y-92030790D02*
X94588095Y-92173647D01*
X94588095Y-92173647D02*
X94635714Y-92364123D01*
X94635714Y-92364123D02*
X94683333Y-92459361D01*
X94683333Y-92459361D02*
X94778571Y-92554600D01*
X94778571Y-92554600D02*
X94921428Y-92602219D01*
X94921428Y-92602219D02*
X95016666Y-92602219D01*
X95016666Y-92602219D02*
X95159523Y-92554600D01*
X95159523Y-92554600D02*
X95207142Y-92506980D01*
X95207142Y-92506980D02*
X95207142Y-92173647D01*
X95207142Y-92173647D02*
X95016666Y-92173647D01*
X95969047Y-92078409D02*
X96111904Y-92126028D01*
X96111904Y-92126028D02*
X96159523Y-92173647D01*
X96159523Y-92173647D02*
X96207142Y-92268885D01*
X96207142Y-92268885D02*
X96207142Y-92411742D01*
X96207142Y-92411742D02*
X96159523Y-92506980D01*
X96159523Y-92506980D02*
X96111904Y-92554600D01*
X96111904Y-92554600D02*
X96016666Y-92602219D01*
X96016666Y-92602219D02*
X95635714Y-92602219D01*
X95635714Y-92602219D02*
X95635714Y-91602219D01*
X95635714Y-91602219D02*
X95969047Y-91602219D01*
X95969047Y-91602219D02*
X96064285Y-91649838D01*
X96064285Y-91649838D02*
X96111904Y-91697457D01*
X96111904Y-91697457D02*
X96159523Y-91792695D01*
X96159523Y-91792695D02*
X96159523Y-91887933D01*
X96159523Y-91887933D02*
X96111904Y-91983171D01*
X96111904Y-91983171D02*
X96064285Y-92030790D01*
X96064285Y-92030790D02*
X95969047Y-92078409D01*
X95969047Y-92078409D02*
X95635714Y-92078409D01*
X97159523Y-92602219D02*
X96588095Y-92602219D01*
X96873809Y-92602219D02*
X96873809Y-91602219D01*
X96873809Y-91602219D02*
X96778571Y-91745076D01*
X96778571Y-91745076D02*
X96683333Y-91840314D01*
X96683333Y-91840314D02*
X96588095Y-91887933D01*
X97492857Y-91602219D02*
X98111904Y-91602219D01*
X98111904Y-91602219D02*
X97778571Y-91983171D01*
X97778571Y-91983171D02*
X97921428Y-91983171D01*
X97921428Y-91983171D02*
X98016666Y-92030790D01*
X98016666Y-92030790D02*
X98064285Y-92078409D01*
X98064285Y-92078409D02*
X98111904Y-92173647D01*
X98111904Y-92173647D02*
X98111904Y-92411742D01*
X98111904Y-92411742D02*
X98064285Y-92506980D01*
X98064285Y-92506980D02*
X98016666Y-92554600D01*
X98016666Y-92554600D02*
X97921428Y-92602219D01*
X97921428Y-92602219D02*
X97635714Y-92602219D01*
X97635714Y-92602219D02*
X97540476Y-92554600D01*
X97540476Y-92554600D02*
X97492857Y-92506980D01*
X25150892Y-130702219D02*
X24817559Y-130226028D01*
X24579464Y-130702219D02*
X24579464Y-129702219D01*
X24579464Y-129702219D02*
X24960416Y-129702219D01*
X24960416Y-129702219D02*
X25055654Y-129749838D01*
X25055654Y-129749838D02*
X25103273Y-129797457D01*
X25103273Y-129797457D02*
X25150892Y-129892695D01*
X25150892Y-129892695D02*
X25150892Y-130035552D01*
X25150892Y-130035552D02*
X25103273Y-130130790D01*
X25103273Y-130130790D02*
X25055654Y-130178409D01*
X25055654Y-130178409D02*
X24960416Y-130226028D01*
X24960416Y-130226028D02*
X24579464Y-130226028D01*
X26103273Y-129749838D02*
X26008035Y-129702219D01*
X26008035Y-129702219D02*
X25865178Y-129702219D01*
X25865178Y-129702219D02*
X25722321Y-129749838D01*
X25722321Y-129749838D02*
X25627083Y-129845076D01*
X25627083Y-129845076D02*
X25579464Y-129940314D01*
X25579464Y-129940314D02*
X25531845Y-130130790D01*
X25531845Y-130130790D02*
X25531845Y-130273647D01*
X25531845Y-130273647D02*
X25579464Y-130464123D01*
X25579464Y-130464123D02*
X25627083Y-130559361D01*
X25627083Y-130559361D02*
X25722321Y-130654600D01*
X25722321Y-130654600D02*
X25865178Y-130702219D01*
X25865178Y-130702219D02*
X25960416Y-130702219D01*
X25960416Y-130702219D02*
X26103273Y-130654600D01*
X26103273Y-130654600D02*
X26150892Y-130606980D01*
X26150892Y-130606980D02*
X26150892Y-130273647D01*
X26150892Y-130273647D02*
X25960416Y-130273647D01*
X26912797Y-130178409D02*
X27055654Y-130226028D01*
X27055654Y-130226028D02*
X27103273Y-130273647D01*
X27103273Y-130273647D02*
X27150892Y-130368885D01*
X27150892Y-130368885D02*
X27150892Y-130511742D01*
X27150892Y-130511742D02*
X27103273Y-130606980D01*
X27103273Y-130606980D02*
X27055654Y-130654600D01*
X27055654Y-130654600D02*
X26960416Y-130702219D01*
X26960416Y-130702219D02*
X26579464Y-130702219D01*
X26579464Y-130702219D02*
X26579464Y-129702219D01*
X26579464Y-129702219D02*
X26912797Y-129702219D01*
X26912797Y-129702219D02*
X27008035Y-129749838D01*
X27008035Y-129749838D02*
X27055654Y-129797457D01*
X27055654Y-129797457D02*
X27103273Y-129892695D01*
X27103273Y-129892695D02*
X27103273Y-129987933D01*
X27103273Y-129987933D02*
X27055654Y-130083171D01*
X27055654Y-130083171D02*
X27008035Y-130130790D01*
X27008035Y-130130790D02*
X26912797Y-130178409D01*
X26912797Y-130178409D02*
X26579464Y-130178409D01*
X28103273Y-130702219D02*
X27531845Y-130702219D01*
X27817559Y-130702219D02*
X27817559Y-129702219D01*
X27817559Y-129702219D02*
X27722321Y-129845076D01*
X27722321Y-129845076D02*
X27627083Y-129940314D01*
X27627083Y-129940314D02*
X27531845Y-129987933D01*
X28960416Y-130035552D02*
X28960416Y-130702219D01*
X28722321Y-129654600D02*
X28484226Y-130368885D01*
X28484226Y-130368885D02*
X29103273Y-130368885D01*
X89920833Y-54502219D02*
X89587500Y-54026028D01*
X89349405Y-54502219D02*
X89349405Y-53502219D01*
X89349405Y-53502219D02*
X89730357Y-53502219D01*
X89730357Y-53502219D02*
X89825595Y-53549838D01*
X89825595Y-53549838D02*
X89873214Y-53597457D01*
X89873214Y-53597457D02*
X89920833Y-53692695D01*
X89920833Y-53692695D02*
X89920833Y-53835552D01*
X89920833Y-53835552D02*
X89873214Y-53930790D01*
X89873214Y-53930790D02*
X89825595Y-53978409D01*
X89825595Y-53978409D02*
X89730357Y-54026028D01*
X89730357Y-54026028D02*
X89349405Y-54026028D01*
X90873214Y-53549838D02*
X90777976Y-53502219D01*
X90777976Y-53502219D02*
X90635119Y-53502219D01*
X90635119Y-53502219D02*
X90492262Y-53549838D01*
X90492262Y-53549838D02*
X90397024Y-53645076D01*
X90397024Y-53645076D02*
X90349405Y-53740314D01*
X90349405Y-53740314D02*
X90301786Y-53930790D01*
X90301786Y-53930790D02*
X90301786Y-54073647D01*
X90301786Y-54073647D02*
X90349405Y-54264123D01*
X90349405Y-54264123D02*
X90397024Y-54359361D01*
X90397024Y-54359361D02*
X90492262Y-54454600D01*
X90492262Y-54454600D02*
X90635119Y-54502219D01*
X90635119Y-54502219D02*
X90730357Y-54502219D01*
X90730357Y-54502219D02*
X90873214Y-54454600D01*
X90873214Y-54454600D02*
X90920833Y-54406980D01*
X90920833Y-54406980D02*
X90920833Y-54073647D01*
X90920833Y-54073647D02*
X90730357Y-54073647D01*
X91682738Y-53978409D02*
X91825595Y-54026028D01*
X91825595Y-54026028D02*
X91873214Y-54073647D01*
X91873214Y-54073647D02*
X91920833Y-54168885D01*
X91920833Y-54168885D02*
X91920833Y-54311742D01*
X91920833Y-54311742D02*
X91873214Y-54406980D01*
X91873214Y-54406980D02*
X91825595Y-54454600D01*
X91825595Y-54454600D02*
X91730357Y-54502219D01*
X91730357Y-54502219D02*
X91349405Y-54502219D01*
X91349405Y-54502219D02*
X91349405Y-53502219D01*
X91349405Y-53502219D02*
X91682738Y-53502219D01*
X91682738Y-53502219D02*
X91777976Y-53549838D01*
X91777976Y-53549838D02*
X91825595Y-53597457D01*
X91825595Y-53597457D02*
X91873214Y-53692695D01*
X91873214Y-53692695D02*
X91873214Y-53787933D01*
X91873214Y-53787933D02*
X91825595Y-53883171D01*
X91825595Y-53883171D02*
X91777976Y-53930790D01*
X91777976Y-53930790D02*
X91682738Y-53978409D01*
X91682738Y-53978409D02*
X91349405Y-53978409D01*
X92777976Y-53835552D02*
X92777976Y-54502219D01*
X92539881Y-53454600D02*
X92301786Y-54168885D01*
X92301786Y-54168885D02*
X92920833Y-54168885D01*
X96588392Y-130702219D02*
X96255059Y-130226028D01*
X96016964Y-130702219D02*
X96016964Y-129702219D01*
X96016964Y-129702219D02*
X96397916Y-129702219D01*
X96397916Y-129702219D02*
X96493154Y-129749838D01*
X96493154Y-129749838D02*
X96540773Y-129797457D01*
X96540773Y-129797457D02*
X96588392Y-129892695D01*
X96588392Y-129892695D02*
X96588392Y-130035552D01*
X96588392Y-130035552D02*
X96540773Y-130130790D01*
X96540773Y-130130790D02*
X96493154Y-130178409D01*
X96493154Y-130178409D02*
X96397916Y-130226028D01*
X96397916Y-130226028D02*
X96016964Y-130226028D01*
X97540773Y-129749838D02*
X97445535Y-129702219D01*
X97445535Y-129702219D02*
X97302678Y-129702219D01*
X97302678Y-129702219D02*
X97159821Y-129749838D01*
X97159821Y-129749838D02*
X97064583Y-129845076D01*
X97064583Y-129845076D02*
X97016964Y-129940314D01*
X97016964Y-129940314D02*
X96969345Y-130130790D01*
X96969345Y-130130790D02*
X96969345Y-130273647D01*
X96969345Y-130273647D02*
X97016964Y-130464123D01*
X97016964Y-130464123D02*
X97064583Y-130559361D01*
X97064583Y-130559361D02*
X97159821Y-130654600D01*
X97159821Y-130654600D02*
X97302678Y-130702219D01*
X97302678Y-130702219D02*
X97397916Y-130702219D01*
X97397916Y-130702219D02*
X97540773Y-130654600D01*
X97540773Y-130654600D02*
X97588392Y-130606980D01*
X97588392Y-130606980D02*
X97588392Y-130273647D01*
X97588392Y-130273647D02*
X97397916Y-130273647D01*
X98350297Y-130178409D02*
X98493154Y-130226028D01*
X98493154Y-130226028D02*
X98540773Y-130273647D01*
X98540773Y-130273647D02*
X98588392Y-130368885D01*
X98588392Y-130368885D02*
X98588392Y-130511742D01*
X98588392Y-130511742D02*
X98540773Y-130606980D01*
X98540773Y-130606980D02*
X98493154Y-130654600D01*
X98493154Y-130654600D02*
X98397916Y-130702219D01*
X98397916Y-130702219D02*
X98016964Y-130702219D01*
X98016964Y-130702219D02*
X98016964Y-129702219D01*
X98016964Y-129702219D02*
X98350297Y-129702219D01*
X98350297Y-129702219D02*
X98445535Y-129749838D01*
X98445535Y-129749838D02*
X98493154Y-129797457D01*
X98493154Y-129797457D02*
X98540773Y-129892695D01*
X98540773Y-129892695D02*
X98540773Y-129987933D01*
X98540773Y-129987933D02*
X98493154Y-130083171D01*
X98493154Y-130083171D02*
X98445535Y-130130790D01*
X98445535Y-130130790D02*
X98350297Y-130178409D01*
X98350297Y-130178409D02*
X98016964Y-130178409D01*
X99540773Y-130702219D02*
X98969345Y-130702219D01*
X99255059Y-130702219D02*
X99255059Y-129702219D01*
X99255059Y-129702219D02*
X99159821Y-129845076D01*
X99159821Y-129845076D02*
X99064583Y-129940314D01*
X99064583Y-129940314D02*
X98969345Y-129987933D01*
X100445535Y-129702219D02*
X99969345Y-129702219D01*
X99969345Y-129702219D02*
X99921726Y-130178409D01*
X99921726Y-130178409D02*
X99969345Y-130130790D01*
X99969345Y-130130790D02*
X100064583Y-130083171D01*
X100064583Y-130083171D02*
X100302678Y-130083171D01*
X100302678Y-130083171D02*
X100397916Y-130130790D01*
X100397916Y-130130790D02*
X100445535Y-130178409D01*
X100445535Y-130178409D02*
X100493154Y-130273647D01*
X100493154Y-130273647D02*
X100493154Y-130511742D01*
X100493154Y-130511742D02*
X100445535Y-130606980D01*
X100445535Y-130606980D02*
X100397916Y-130654600D01*
X100397916Y-130654600D02*
X100302678Y-130702219D01*
X100302678Y-130702219D02*
X100064583Y-130702219D01*
X100064583Y-130702219D02*
X99969345Y-130654600D01*
X99969345Y-130654600D02*
X99921726Y-130606980D01*
D12*
X68466069Y-34075594D02*
X67466069Y-34075594D01*
X67466069Y-34075594D02*
X67466069Y-33837499D01*
X67466069Y-33837499D02*
X67513688Y-33694642D01*
X67513688Y-33694642D02*
X67608926Y-33599404D01*
X67608926Y-33599404D02*
X67704164Y-33551785D01*
X67704164Y-33551785D02*
X67894640Y-33504166D01*
X67894640Y-33504166D02*
X68037497Y-33504166D01*
X68037497Y-33504166D02*
X68227973Y-33551785D01*
X68227973Y-33551785D02*
X68323211Y-33599404D01*
X68323211Y-33599404D02*
X68418450Y-33694642D01*
X68418450Y-33694642D02*
X68466069Y-33837499D01*
X68466069Y-33837499D02*
X68466069Y-34075594D01*
X67466069Y-33170832D02*
X67466069Y-32504166D01*
X67466069Y-32504166D02*
X68466069Y-32932737D01*
X68786069Y-38679404D02*
X67786069Y-38679404D01*
X68786069Y-38107976D02*
X68214640Y-38536547D01*
X67786069Y-38107976D02*
X68357497Y-38679404D01*
X51625595Y-44968319D02*
X51625595Y-43968319D01*
X51625595Y-43968319D02*
X52197023Y-44968319D01*
X52197023Y-44968319D02*
X52197023Y-43968319D01*
X53197023Y-44968319D02*
X52625595Y-44968319D01*
X52911309Y-44968319D02*
X52911309Y-43968319D01*
X52911309Y-43968319D02*
X52816071Y-44111176D01*
X52816071Y-44111176D02*
X52720833Y-44206414D01*
X52720833Y-44206414D02*
X52625595Y-44254033D01*
X70532738Y-63018319D02*
X70770833Y-64018319D01*
X70770833Y-64018319D02*
X70961309Y-63304033D01*
X70961309Y-63304033D02*
X71151785Y-64018319D01*
X71151785Y-64018319D02*
X71389881Y-63018319D01*
X72294642Y-64018319D02*
X71723214Y-64018319D01*
X72008928Y-64018319D02*
X72008928Y-63018319D01*
X72008928Y-63018319D02*
X71913690Y-63161176D01*
X71913690Y-63161176D02*
X71818452Y-63256414D01*
X71818452Y-63256414D02*
X71723214Y-63304033D01*
X79116069Y-34551785D02*
X78116069Y-34551785D01*
X78116069Y-34551785D02*
X78116069Y-34313690D01*
X78116069Y-34313690D02*
X78163688Y-34170833D01*
X78163688Y-34170833D02*
X78258926Y-34075595D01*
X78258926Y-34075595D02*
X78354164Y-34027976D01*
X78354164Y-34027976D02*
X78544640Y-33980357D01*
X78544640Y-33980357D02*
X78687497Y-33980357D01*
X78687497Y-33980357D02*
X78877973Y-34027976D01*
X78877973Y-34027976D02*
X78973211Y-34075595D01*
X78973211Y-34075595D02*
X79068450Y-34170833D01*
X79068450Y-34170833D02*
X79116069Y-34313690D01*
X79116069Y-34313690D02*
X79116069Y-34551785D01*
X79116069Y-33027976D02*
X79116069Y-33599404D01*
X79116069Y-33313690D02*
X78116069Y-33313690D01*
X78116069Y-33313690D02*
X78258926Y-33408928D01*
X78258926Y-33408928D02*
X78354164Y-33504166D01*
X78354164Y-33504166D02*
X78401783Y-33599404D01*
X78116069Y-32408928D02*
X78116069Y-32313690D01*
X78116069Y-32313690D02*
X78163688Y-32218452D01*
X78163688Y-32218452D02*
X78211307Y-32170833D01*
X78211307Y-32170833D02*
X78306545Y-32123214D01*
X78306545Y-32123214D02*
X78497021Y-32075595D01*
X78497021Y-32075595D02*
X78735116Y-32075595D01*
X78735116Y-32075595D02*
X78925592Y-32123214D01*
X78925592Y-32123214D02*
X79020830Y-32170833D01*
X79020830Y-32170833D02*
X79068450Y-32218452D01*
X79068450Y-32218452D02*
X79116069Y-32313690D01*
X79116069Y-32313690D02*
X79116069Y-32408928D01*
X79116069Y-32408928D02*
X79068450Y-32504166D01*
X79068450Y-32504166D02*
X79020830Y-32551785D01*
X79020830Y-32551785D02*
X78925592Y-32599404D01*
X78925592Y-32599404D02*
X78735116Y-32647023D01*
X78735116Y-32647023D02*
X78497021Y-32647023D01*
X78497021Y-32647023D02*
X78306545Y-32599404D01*
X78306545Y-32599404D02*
X78211307Y-32551785D01*
X78211307Y-32551785D02*
X78163688Y-32504166D01*
X78163688Y-32504166D02*
X78116069Y-32408928D01*
X79436069Y-38679404D02*
X78436069Y-38679404D01*
X79436069Y-38107976D02*
X78864640Y-38536547D01*
X78436069Y-38107976D02*
X79007497Y-38679404D01*
D13*
X70870833Y-73552219D02*
X70537500Y-73076028D01*
X70299405Y-73552219D02*
X70299405Y-72552219D01*
X70299405Y-72552219D02*
X70680357Y-72552219D01*
X70680357Y-72552219D02*
X70775595Y-72599838D01*
X70775595Y-72599838D02*
X70823214Y-72647457D01*
X70823214Y-72647457D02*
X70870833Y-72742695D01*
X70870833Y-72742695D02*
X70870833Y-72885552D01*
X70870833Y-72885552D02*
X70823214Y-72980790D01*
X70823214Y-72980790D02*
X70775595Y-73028409D01*
X70775595Y-73028409D02*
X70680357Y-73076028D01*
X70680357Y-73076028D02*
X70299405Y-73076028D01*
X71823214Y-72599838D02*
X71727976Y-72552219D01*
X71727976Y-72552219D02*
X71585119Y-72552219D01*
X71585119Y-72552219D02*
X71442262Y-72599838D01*
X71442262Y-72599838D02*
X71347024Y-72695076D01*
X71347024Y-72695076D02*
X71299405Y-72790314D01*
X71299405Y-72790314D02*
X71251786Y-72980790D01*
X71251786Y-72980790D02*
X71251786Y-73123647D01*
X71251786Y-73123647D02*
X71299405Y-73314123D01*
X71299405Y-73314123D02*
X71347024Y-73409361D01*
X71347024Y-73409361D02*
X71442262Y-73504600D01*
X71442262Y-73504600D02*
X71585119Y-73552219D01*
X71585119Y-73552219D02*
X71680357Y-73552219D01*
X71680357Y-73552219D02*
X71823214Y-73504600D01*
X71823214Y-73504600D02*
X71870833Y-73456980D01*
X71870833Y-73456980D02*
X71870833Y-73123647D01*
X71870833Y-73123647D02*
X71680357Y-73123647D01*
X72632738Y-73028409D02*
X72775595Y-73076028D01*
X72775595Y-73076028D02*
X72823214Y-73123647D01*
X72823214Y-73123647D02*
X72870833Y-73218885D01*
X72870833Y-73218885D02*
X72870833Y-73361742D01*
X72870833Y-73361742D02*
X72823214Y-73456980D01*
X72823214Y-73456980D02*
X72775595Y-73504600D01*
X72775595Y-73504600D02*
X72680357Y-73552219D01*
X72680357Y-73552219D02*
X72299405Y-73552219D01*
X72299405Y-73552219D02*
X72299405Y-72552219D01*
X72299405Y-72552219D02*
X72632738Y-72552219D01*
X72632738Y-72552219D02*
X72727976Y-72599838D01*
X72727976Y-72599838D02*
X72775595Y-72647457D01*
X72775595Y-72647457D02*
X72823214Y-72742695D01*
X72823214Y-72742695D02*
X72823214Y-72837933D01*
X72823214Y-72837933D02*
X72775595Y-72933171D01*
X72775595Y-72933171D02*
X72727976Y-72980790D01*
X72727976Y-72980790D02*
X72632738Y-73028409D01*
X72632738Y-73028409D02*
X72299405Y-73028409D01*
X73204167Y-72552219D02*
X73870833Y-72552219D01*
X73870833Y-72552219D02*
X73442262Y-73552219D01*
D14*
X26504485Y-52752333D02*
X27224152Y-52752333D01*
X27224152Y-52752333D02*
X27308818Y-52710000D01*
X27308818Y-52710000D02*
X27351152Y-52667666D01*
X27351152Y-52667666D02*
X27393485Y-52583000D01*
X27393485Y-52583000D02*
X27393485Y-52413666D01*
X27393485Y-52413666D02*
X27351152Y-52329000D01*
X27351152Y-52329000D02*
X27308818Y-52286666D01*
X27308818Y-52286666D02*
X27224152Y-52244333D01*
X27224152Y-52244333D02*
X26504485Y-52244333D01*
X27393485Y-51355333D02*
X27393485Y-51863333D01*
X27393485Y-51609333D02*
X26504485Y-51609333D01*
X26504485Y-51609333D02*
X26631485Y-51694000D01*
X26631485Y-51694000D02*
X26716152Y-51778667D01*
X26716152Y-51778667D02*
X26758485Y-51863333D01*
D12*
X23354700Y-56836904D02*
X23402319Y-56694047D01*
X23402319Y-56694047D02*
X23402319Y-56455952D01*
X23402319Y-56455952D02*
X23354700Y-56360714D01*
X23354700Y-56360714D02*
X23307080Y-56313095D01*
X23307080Y-56313095D02*
X23211842Y-56265476D01*
X23211842Y-56265476D02*
X23116604Y-56265476D01*
X23116604Y-56265476D02*
X23021366Y-56313095D01*
X23021366Y-56313095D02*
X22973747Y-56360714D01*
X22973747Y-56360714D02*
X22926128Y-56455952D01*
X22926128Y-56455952D02*
X22878509Y-56646428D01*
X22878509Y-56646428D02*
X22830890Y-56741666D01*
X22830890Y-56741666D02*
X22783271Y-56789285D01*
X22783271Y-56789285D02*
X22688033Y-56836904D01*
X22688033Y-56836904D02*
X22592795Y-56836904D01*
X22592795Y-56836904D02*
X22497557Y-56789285D01*
X22497557Y-56789285D02*
X22449938Y-56741666D01*
X22449938Y-56741666D02*
X22402319Y-56646428D01*
X22402319Y-56646428D02*
X22402319Y-56408333D01*
X22402319Y-56408333D02*
X22449938Y-56265476D01*
X23354700Y-55455952D02*
X23402319Y-55551190D01*
X23402319Y-55551190D02*
X23402319Y-55741666D01*
X23402319Y-55741666D02*
X23354700Y-55836904D01*
X23354700Y-55836904D02*
X23259461Y-55884523D01*
X23259461Y-55884523D02*
X22878509Y-55884523D01*
X22878509Y-55884523D02*
X22783271Y-55836904D01*
X22783271Y-55836904D02*
X22735652Y-55741666D01*
X22735652Y-55741666D02*
X22735652Y-55551190D01*
X22735652Y-55551190D02*
X22783271Y-55455952D01*
X22783271Y-55455952D02*
X22878509Y-55408333D01*
X22878509Y-55408333D02*
X22973747Y-55408333D01*
X22973747Y-55408333D02*
X23068985Y-55884523D01*
X23354700Y-54598809D02*
X23402319Y-54694047D01*
X23402319Y-54694047D02*
X23402319Y-54884523D01*
X23402319Y-54884523D02*
X23354700Y-54979761D01*
X23354700Y-54979761D02*
X23259461Y-55027380D01*
X23259461Y-55027380D02*
X22878509Y-55027380D01*
X22878509Y-55027380D02*
X22783271Y-54979761D01*
X22783271Y-54979761D02*
X22735652Y-54884523D01*
X22735652Y-54884523D02*
X22735652Y-54694047D01*
X22735652Y-54694047D02*
X22783271Y-54598809D01*
X22783271Y-54598809D02*
X22878509Y-54551190D01*
X22878509Y-54551190D02*
X22973747Y-54551190D01*
X22973747Y-54551190D02*
X23068985Y-55027380D01*
X23354700Y-53741666D02*
X23402319Y-53836904D01*
X23402319Y-53836904D02*
X23402319Y-54027380D01*
X23402319Y-54027380D02*
X23354700Y-54122618D01*
X23354700Y-54122618D02*
X23259461Y-54170237D01*
X23259461Y-54170237D02*
X22878509Y-54170237D01*
X22878509Y-54170237D02*
X22783271Y-54122618D01*
X22783271Y-54122618D02*
X22735652Y-54027380D01*
X22735652Y-54027380D02*
X22735652Y-53836904D01*
X22735652Y-53836904D02*
X22783271Y-53741666D01*
X22783271Y-53741666D02*
X22878509Y-53694047D01*
X22878509Y-53694047D02*
X22973747Y-53694047D01*
X22973747Y-53694047D02*
X23068985Y-54170237D01*
X23402319Y-52836904D02*
X22402319Y-52836904D01*
X23354700Y-52836904D02*
X23402319Y-52932142D01*
X23402319Y-52932142D02*
X23402319Y-53122618D01*
X23402319Y-53122618D02*
X23354700Y-53217856D01*
X23354700Y-53217856D02*
X23307080Y-53265475D01*
X23307080Y-53265475D02*
X23211842Y-53313094D01*
X23211842Y-53313094D02*
X22926128Y-53313094D01*
X22926128Y-53313094D02*
X22830890Y-53265475D01*
X22830890Y-53265475D02*
X22783271Y-53217856D01*
X22783271Y-53217856D02*
X22735652Y-53122618D01*
X22735652Y-53122618D02*
X22735652Y-52932142D01*
X22735652Y-52932142D02*
X22783271Y-52836904D01*
X23354700Y-51646427D02*
X23402319Y-51503570D01*
X23402319Y-51503570D02*
X23402319Y-51265475D01*
X23402319Y-51265475D02*
X23354700Y-51170237D01*
X23354700Y-51170237D02*
X23307080Y-51122618D01*
X23307080Y-51122618D02*
X23211842Y-51074999D01*
X23211842Y-51074999D02*
X23116604Y-51074999D01*
X23116604Y-51074999D02*
X23021366Y-51122618D01*
X23021366Y-51122618D02*
X22973747Y-51170237D01*
X22973747Y-51170237D02*
X22926128Y-51265475D01*
X22926128Y-51265475D02*
X22878509Y-51455951D01*
X22878509Y-51455951D02*
X22830890Y-51551189D01*
X22830890Y-51551189D02*
X22783271Y-51598808D01*
X22783271Y-51598808D02*
X22688033Y-51646427D01*
X22688033Y-51646427D02*
X22592795Y-51646427D01*
X22592795Y-51646427D02*
X22497557Y-51598808D01*
X22497557Y-51598808D02*
X22449938Y-51551189D01*
X22449938Y-51551189D02*
X22402319Y-51455951D01*
X22402319Y-51455951D02*
X22402319Y-51217856D01*
X22402319Y-51217856D02*
X22449938Y-51074999D01*
X22735652Y-50789284D02*
X22735652Y-50408332D01*
X22402319Y-50646427D02*
X23259461Y-50646427D01*
X23259461Y-50646427D02*
X23354700Y-50598808D01*
X23354700Y-50598808D02*
X23402319Y-50503570D01*
X23402319Y-50503570D02*
X23402319Y-50408332D01*
X22735652Y-49646427D02*
X23402319Y-49646427D01*
X22735652Y-50074998D02*
X23259461Y-50074998D01*
X23259461Y-50074998D02*
X23354700Y-50027379D01*
X23354700Y-50027379D02*
X23402319Y-49932141D01*
X23402319Y-49932141D02*
X23402319Y-49789284D01*
X23402319Y-49789284D02*
X23354700Y-49694046D01*
X23354700Y-49694046D02*
X23307080Y-49646427D01*
X23402319Y-48741665D02*
X22402319Y-48741665D01*
X23354700Y-48741665D02*
X23402319Y-48836903D01*
X23402319Y-48836903D02*
X23402319Y-49027379D01*
X23402319Y-49027379D02*
X23354700Y-49122617D01*
X23354700Y-49122617D02*
X23307080Y-49170236D01*
X23307080Y-49170236D02*
X23211842Y-49217855D01*
X23211842Y-49217855D02*
X22926128Y-49217855D01*
X22926128Y-49217855D02*
X22830890Y-49170236D01*
X22830890Y-49170236D02*
X22783271Y-49122617D01*
X22783271Y-49122617D02*
X22735652Y-49027379D01*
X22735652Y-49027379D02*
X22735652Y-48836903D01*
X22735652Y-48836903D02*
X22783271Y-48741665D01*
X23402319Y-48265474D02*
X22735652Y-48265474D01*
X22402319Y-48265474D02*
X22449938Y-48313093D01*
X22449938Y-48313093D02*
X22497557Y-48265474D01*
X22497557Y-48265474D02*
X22449938Y-48217855D01*
X22449938Y-48217855D02*
X22402319Y-48265474D01*
X22402319Y-48265474D02*
X22497557Y-48265474D01*
X23402319Y-47646427D02*
X23354700Y-47741665D01*
X23354700Y-47741665D02*
X23307080Y-47789284D01*
X23307080Y-47789284D02*
X23211842Y-47836903D01*
X23211842Y-47836903D02*
X22926128Y-47836903D01*
X22926128Y-47836903D02*
X22830890Y-47789284D01*
X22830890Y-47789284D02*
X22783271Y-47741665D01*
X22783271Y-47741665D02*
X22735652Y-47646427D01*
X22735652Y-47646427D02*
X22735652Y-47503570D01*
X22735652Y-47503570D02*
X22783271Y-47408332D01*
X22783271Y-47408332D02*
X22830890Y-47360713D01*
X22830890Y-47360713D02*
X22926128Y-47313094D01*
X22926128Y-47313094D02*
X23211842Y-47313094D01*
X23211842Y-47313094D02*
X23307080Y-47360713D01*
X23307080Y-47360713D02*
X23354700Y-47408332D01*
X23354700Y-47408332D02*
X23402319Y-47503570D01*
X23402319Y-47503570D02*
X23402319Y-47646427D01*
X24402319Y-53598808D02*
X25402319Y-52932142D01*
X24402319Y-52932142D02*
X25402319Y-53598808D01*
X25402319Y-52551189D02*
X24402319Y-52551189D01*
X25116604Y-52122618D02*
X25116604Y-51646428D01*
X25402319Y-52217856D02*
X24402319Y-51884523D01*
X24402319Y-51884523D02*
X25402319Y-51551190D01*
X24402319Y-51027380D02*
X24402319Y-50836904D01*
X24402319Y-50836904D02*
X24449938Y-50741666D01*
X24449938Y-50741666D02*
X24545176Y-50646428D01*
X24545176Y-50646428D02*
X24735652Y-50598809D01*
X24735652Y-50598809D02*
X25068985Y-50598809D01*
X25068985Y-50598809D02*
X25259461Y-50646428D01*
X25259461Y-50646428D02*
X25354700Y-50741666D01*
X25354700Y-50741666D02*
X25402319Y-50836904D01*
X25402319Y-50836904D02*
X25402319Y-51027380D01*
X25402319Y-51027380D02*
X25354700Y-51122618D01*
X25354700Y-51122618D02*
X25259461Y-51217856D01*
X25259461Y-51217856D02*
X25068985Y-51265475D01*
X25068985Y-51265475D02*
X24735652Y-51265475D01*
X24735652Y-51265475D02*
X24545176Y-51217856D01*
X24545176Y-51217856D02*
X24449938Y-51122618D01*
X24449938Y-51122618D02*
X24402319Y-51027380D01*
X24741368Y-121073080D02*
X24693749Y-121120700D01*
X24693749Y-121120700D02*
X24550892Y-121168319D01*
X24550892Y-121168319D02*
X24455654Y-121168319D01*
X24455654Y-121168319D02*
X24312797Y-121120700D01*
X24312797Y-121120700D02*
X24217559Y-121025461D01*
X24217559Y-121025461D02*
X24169940Y-120930223D01*
X24169940Y-120930223D02*
X24122321Y-120739747D01*
X24122321Y-120739747D02*
X24122321Y-120596890D01*
X24122321Y-120596890D02*
X24169940Y-120406414D01*
X24169940Y-120406414D02*
X24217559Y-120311176D01*
X24217559Y-120311176D02*
X24312797Y-120215938D01*
X24312797Y-120215938D02*
X24455654Y-120168319D01*
X24455654Y-120168319D02*
X24550892Y-120168319D01*
X24550892Y-120168319D02*
X24693749Y-120215938D01*
X24693749Y-120215938D02*
X24741368Y-120263557D01*
X25027083Y-120168319D02*
X25598511Y-120168319D01*
X25312797Y-121168319D02*
X25312797Y-120168319D01*
X26503273Y-121168319D02*
X26169940Y-120692128D01*
X25931845Y-121168319D02*
X25931845Y-120168319D01*
X25931845Y-120168319D02*
X26312797Y-120168319D01*
X26312797Y-120168319D02*
X26408035Y-120215938D01*
X26408035Y-120215938D02*
X26455654Y-120263557D01*
X26455654Y-120263557D02*
X26503273Y-120358795D01*
X26503273Y-120358795D02*
X26503273Y-120501652D01*
X26503273Y-120501652D02*
X26455654Y-120596890D01*
X26455654Y-120596890D02*
X26408035Y-120644509D01*
X26408035Y-120644509D02*
X26312797Y-120692128D01*
X26312797Y-120692128D02*
X25931845Y-120692128D01*
X27408035Y-121168319D02*
X26931845Y-121168319D01*
X26931845Y-121168319D02*
X26931845Y-120168319D01*
X28265178Y-121168319D02*
X27693750Y-121168319D01*
X27979464Y-121168319D02*
X27979464Y-120168319D01*
X27979464Y-120168319D02*
X27884226Y-120311176D01*
X27884226Y-120311176D02*
X27788988Y-120406414D01*
X27788988Y-120406414D02*
X27693750Y-120454033D01*
X52292261Y-64113557D02*
X52197023Y-64065938D01*
X52197023Y-64065938D02*
X52101785Y-63970700D01*
X52101785Y-63970700D02*
X51958928Y-63827842D01*
X51958928Y-63827842D02*
X51863690Y-63780223D01*
X51863690Y-63780223D02*
X51768452Y-63780223D01*
X51816071Y-64018319D02*
X51720833Y-63970700D01*
X51720833Y-63970700D02*
X51625595Y-63875461D01*
X51625595Y-63875461D02*
X51577976Y-63684985D01*
X51577976Y-63684985D02*
X51577976Y-63351652D01*
X51577976Y-63351652D02*
X51625595Y-63161176D01*
X51625595Y-63161176D02*
X51720833Y-63065938D01*
X51720833Y-63065938D02*
X51816071Y-63018319D01*
X51816071Y-63018319D02*
X52006547Y-63018319D01*
X52006547Y-63018319D02*
X52101785Y-63065938D01*
X52101785Y-63065938D02*
X52197023Y-63161176D01*
X52197023Y-63161176D02*
X52244642Y-63351652D01*
X52244642Y-63351652D02*
X52244642Y-63684985D01*
X52244642Y-63684985D02*
X52197023Y-63875461D01*
X52197023Y-63875461D02*
X52101785Y-63970700D01*
X52101785Y-63970700D02*
X52006547Y-64018319D01*
X52006547Y-64018319D02*
X51816071Y-64018319D01*
X53197023Y-64018319D02*
X52625595Y-64018319D01*
X52911309Y-64018319D02*
X52911309Y-63018319D01*
X52911309Y-63018319D02*
X52816071Y-63161176D01*
X52816071Y-63161176D02*
X52720833Y-63256414D01*
X52720833Y-63256414D02*
X52625595Y-63304033D01*
X56435714Y-82782604D02*
X56911904Y-82782604D01*
X56340476Y-83068319D02*
X56673809Y-82068319D01*
X56673809Y-82068319D02*
X57007142Y-83068319D01*
X57864285Y-83068319D02*
X57292857Y-83068319D01*
X57578571Y-83068319D02*
X57578571Y-82068319D01*
X57578571Y-82068319D02*
X57483333Y-82211176D01*
X57483333Y-82211176D02*
X57388095Y-82306414D01*
X57388095Y-82306414D02*
X57292857Y-82354033D01*
D13*
X56107142Y-92602219D02*
X55773809Y-92126028D01*
X55535714Y-92602219D02*
X55535714Y-91602219D01*
X55535714Y-91602219D02*
X55916666Y-91602219D01*
X55916666Y-91602219D02*
X56011904Y-91649838D01*
X56011904Y-91649838D02*
X56059523Y-91697457D01*
X56059523Y-91697457D02*
X56107142Y-91792695D01*
X56107142Y-91792695D02*
X56107142Y-91935552D01*
X56107142Y-91935552D02*
X56059523Y-92030790D01*
X56059523Y-92030790D02*
X56011904Y-92078409D01*
X56011904Y-92078409D02*
X55916666Y-92126028D01*
X55916666Y-92126028D02*
X55535714Y-92126028D01*
X57059523Y-91649838D02*
X56964285Y-91602219D01*
X56964285Y-91602219D02*
X56821428Y-91602219D01*
X56821428Y-91602219D02*
X56678571Y-91649838D01*
X56678571Y-91649838D02*
X56583333Y-91745076D01*
X56583333Y-91745076D02*
X56535714Y-91840314D01*
X56535714Y-91840314D02*
X56488095Y-92030790D01*
X56488095Y-92030790D02*
X56488095Y-92173647D01*
X56488095Y-92173647D02*
X56535714Y-92364123D01*
X56535714Y-92364123D02*
X56583333Y-92459361D01*
X56583333Y-92459361D02*
X56678571Y-92554600D01*
X56678571Y-92554600D02*
X56821428Y-92602219D01*
X56821428Y-92602219D02*
X56916666Y-92602219D01*
X56916666Y-92602219D02*
X57059523Y-92554600D01*
X57059523Y-92554600D02*
X57107142Y-92506980D01*
X57107142Y-92506980D02*
X57107142Y-92173647D01*
X57107142Y-92173647D02*
X56916666Y-92173647D01*
X57869047Y-92078409D02*
X58011904Y-92126028D01*
X58011904Y-92126028D02*
X58059523Y-92173647D01*
X58059523Y-92173647D02*
X58107142Y-92268885D01*
X58107142Y-92268885D02*
X58107142Y-92411742D01*
X58107142Y-92411742D02*
X58059523Y-92506980D01*
X58059523Y-92506980D02*
X58011904Y-92554600D01*
X58011904Y-92554600D02*
X57916666Y-92602219D01*
X57916666Y-92602219D02*
X57535714Y-92602219D01*
X57535714Y-92602219D02*
X57535714Y-91602219D01*
X57535714Y-91602219D02*
X57869047Y-91602219D01*
X57869047Y-91602219D02*
X57964285Y-91649838D01*
X57964285Y-91649838D02*
X58011904Y-91697457D01*
X58011904Y-91697457D02*
X58059523Y-91792695D01*
X58059523Y-91792695D02*
X58059523Y-91887933D01*
X58059523Y-91887933D02*
X58011904Y-91983171D01*
X58011904Y-91983171D02*
X57964285Y-92030790D01*
X57964285Y-92030790D02*
X57869047Y-92078409D01*
X57869047Y-92078409D02*
X57535714Y-92078409D01*
X59059523Y-92602219D02*
X58488095Y-92602219D01*
X58773809Y-92602219D02*
X58773809Y-91602219D01*
X58773809Y-91602219D02*
X58678571Y-91745076D01*
X58678571Y-91745076D02*
X58583333Y-91840314D01*
X58583333Y-91840314D02*
X58488095Y-91887933D01*
X60011904Y-92602219D02*
X59440476Y-92602219D01*
X59726190Y-92602219D02*
X59726190Y-91602219D01*
X59726190Y-91602219D02*
X59630952Y-91745076D01*
X59630952Y-91745076D02*
X59535714Y-91840314D01*
X59535714Y-91840314D02*
X59440476Y-91887933D01*
D12*
X61366069Y-34075594D02*
X60366069Y-34075594D01*
X60366069Y-34075594D02*
X60366069Y-33837499D01*
X60366069Y-33837499D02*
X60413688Y-33694642D01*
X60413688Y-33694642D02*
X60508926Y-33599404D01*
X60508926Y-33599404D02*
X60604164Y-33551785D01*
X60604164Y-33551785D02*
X60794640Y-33504166D01*
X60794640Y-33504166D02*
X60937497Y-33504166D01*
X60937497Y-33504166D02*
X61127973Y-33551785D01*
X61127973Y-33551785D02*
X61223211Y-33599404D01*
X61223211Y-33599404D02*
X61318450Y-33694642D01*
X61318450Y-33694642D02*
X61366069Y-33837499D01*
X61366069Y-33837499D02*
X61366069Y-34075594D01*
X60366069Y-32599404D02*
X60366069Y-33075594D01*
X60366069Y-33075594D02*
X60842259Y-33123213D01*
X60842259Y-33123213D02*
X60794640Y-33075594D01*
X60794640Y-33075594D02*
X60747021Y-32980356D01*
X60747021Y-32980356D02*
X60747021Y-32742261D01*
X60747021Y-32742261D02*
X60794640Y-32647023D01*
X60794640Y-32647023D02*
X60842259Y-32599404D01*
X60842259Y-32599404D02*
X60937497Y-32551785D01*
X60937497Y-32551785D02*
X61175592Y-32551785D01*
X61175592Y-32551785D02*
X61270830Y-32599404D01*
X61270830Y-32599404D02*
X61318450Y-32647023D01*
X61318450Y-32647023D02*
X61366069Y-32742261D01*
X61366069Y-32742261D02*
X61366069Y-32980356D01*
X61366069Y-32980356D02*
X61318450Y-33075594D01*
X61318450Y-33075594D02*
X61270830Y-33123213D01*
X61686069Y-38679404D02*
X60686069Y-38679404D01*
X61686069Y-38107976D02*
X61114640Y-38536547D01*
X60686069Y-38107976D02*
X61257497Y-38679404D01*
X82666069Y-34551785D02*
X81666069Y-34551785D01*
X81666069Y-34551785D02*
X81666069Y-34313690D01*
X81666069Y-34313690D02*
X81713688Y-34170833D01*
X81713688Y-34170833D02*
X81808926Y-34075595D01*
X81808926Y-34075595D02*
X81904164Y-34027976D01*
X81904164Y-34027976D02*
X82094640Y-33980357D01*
X82094640Y-33980357D02*
X82237497Y-33980357D01*
X82237497Y-33980357D02*
X82427973Y-34027976D01*
X82427973Y-34027976D02*
X82523211Y-34075595D01*
X82523211Y-34075595D02*
X82618450Y-34170833D01*
X82618450Y-34170833D02*
X82666069Y-34313690D01*
X82666069Y-34313690D02*
X82666069Y-34551785D01*
X82666069Y-33027976D02*
X82666069Y-33599404D01*
X82666069Y-33313690D02*
X81666069Y-33313690D01*
X81666069Y-33313690D02*
X81808926Y-33408928D01*
X81808926Y-33408928D02*
X81904164Y-33504166D01*
X81904164Y-33504166D02*
X81951783Y-33599404D01*
X82666069Y-32075595D02*
X82666069Y-32647023D01*
X82666069Y-32361309D02*
X81666069Y-32361309D01*
X81666069Y-32361309D02*
X81808926Y-32456547D01*
X81808926Y-32456547D02*
X81904164Y-32551785D01*
X81904164Y-32551785D02*
X81951783Y-32647023D01*
X82986069Y-38679404D02*
X81986069Y-38679404D01*
X82986069Y-38107976D02*
X82414640Y-38536547D01*
X81986069Y-38107976D02*
X82557497Y-38679404D01*
X50716069Y-34075594D02*
X49716069Y-34075594D01*
X49716069Y-34075594D02*
X49716069Y-33837499D01*
X49716069Y-33837499D02*
X49763688Y-33694642D01*
X49763688Y-33694642D02*
X49858926Y-33599404D01*
X49858926Y-33599404D02*
X49954164Y-33551785D01*
X49954164Y-33551785D02*
X50144640Y-33504166D01*
X50144640Y-33504166D02*
X50287497Y-33504166D01*
X50287497Y-33504166D02*
X50477973Y-33551785D01*
X50477973Y-33551785D02*
X50573211Y-33599404D01*
X50573211Y-33599404D02*
X50668450Y-33694642D01*
X50668450Y-33694642D02*
X50716069Y-33837499D01*
X50716069Y-33837499D02*
X50716069Y-34075594D01*
X49811307Y-33123213D02*
X49763688Y-33075594D01*
X49763688Y-33075594D02*
X49716069Y-32980356D01*
X49716069Y-32980356D02*
X49716069Y-32742261D01*
X49716069Y-32742261D02*
X49763688Y-32647023D01*
X49763688Y-32647023D02*
X49811307Y-32599404D01*
X49811307Y-32599404D02*
X49906545Y-32551785D01*
X49906545Y-32551785D02*
X50001783Y-32551785D01*
X50001783Y-32551785D02*
X50144640Y-32599404D01*
X50144640Y-32599404D02*
X50716069Y-33170832D01*
X50716069Y-33170832D02*
X50716069Y-32551785D01*
X51036069Y-38679404D02*
X50036069Y-38679404D01*
X51036069Y-38107976D02*
X50464640Y-38536547D01*
X50036069Y-38107976D02*
X50607497Y-38679404D01*
X57816069Y-34075594D02*
X56816069Y-34075594D01*
X56816069Y-34075594D02*
X56816069Y-33837499D01*
X56816069Y-33837499D02*
X56863688Y-33694642D01*
X56863688Y-33694642D02*
X56958926Y-33599404D01*
X56958926Y-33599404D02*
X57054164Y-33551785D01*
X57054164Y-33551785D02*
X57244640Y-33504166D01*
X57244640Y-33504166D02*
X57387497Y-33504166D01*
X57387497Y-33504166D02*
X57577973Y-33551785D01*
X57577973Y-33551785D02*
X57673211Y-33599404D01*
X57673211Y-33599404D02*
X57768450Y-33694642D01*
X57768450Y-33694642D02*
X57816069Y-33837499D01*
X57816069Y-33837499D02*
X57816069Y-34075594D01*
X57149402Y-32647023D02*
X57816069Y-32647023D01*
X56768450Y-32885118D02*
X57482735Y-33123213D01*
X57482735Y-33123213D02*
X57482735Y-32504166D01*
X58136069Y-38679404D02*
X57136069Y-38679404D01*
X58136069Y-38107976D02*
X57564640Y-38536547D01*
X57136069Y-38107976D02*
X57707497Y-38679404D01*
D13*
X108970833Y-73552219D02*
X108637500Y-73076028D01*
X108399405Y-73552219D02*
X108399405Y-72552219D01*
X108399405Y-72552219D02*
X108780357Y-72552219D01*
X108780357Y-72552219D02*
X108875595Y-72599838D01*
X108875595Y-72599838D02*
X108923214Y-72647457D01*
X108923214Y-72647457D02*
X108970833Y-72742695D01*
X108970833Y-72742695D02*
X108970833Y-72885552D01*
X108970833Y-72885552D02*
X108923214Y-72980790D01*
X108923214Y-72980790D02*
X108875595Y-73028409D01*
X108875595Y-73028409D02*
X108780357Y-73076028D01*
X108780357Y-73076028D02*
X108399405Y-73076028D01*
X109923214Y-72599838D02*
X109827976Y-72552219D01*
X109827976Y-72552219D02*
X109685119Y-72552219D01*
X109685119Y-72552219D02*
X109542262Y-72599838D01*
X109542262Y-72599838D02*
X109447024Y-72695076D01*
X109447024Y-72695076D02*
X109399405Y-72790314D01*
X109399405Y-72790314D02*
X109351786Y-72980790D01*
X109351786Y-72980790D02*
X109351786Y-73123647D01*
X109351786Y-73123647D02*
X109399405Y-73314123D01*
X109399405Y-73314123D02*
X109447024Y-73409361D01*
X109447024Y-73409361D02*
X109542262Y-73504600D01*
X109542262Y-73504600D02*
X109685119Y-73552219D01*
X109685119Y-73552219D02*
X109780357Y-73552219D01*
X109780357Y-73552219D02*
X109923214Y-73504600D01*
X109923214Y-73504600D02*
X109970833Y-73456980D01*
X109970833Y-73456980D02*
X109970833Y-73123647D01*
X109970833Y-73123647D02*
X109780357Y-73123647D01*
X110732738Y-73028409D02*
X110875595Y-73076028D01*
X110875595Y-73076028D02*
X110923214Y-73123647D01*
X110923214Y-73123647D02*
X110970833Y-73218885D01*
X110970833Y-73218885D02*
X110970833Y-73361742D01*
X110970833Y-73361742D02*
X110923214Y-73456980D01*
X110923214Y-73456980D02*
X110875595Y-73504600D01*
X110875595Y-73504600D02*
X110780357Y-73552219D01*
X110780357Y-73552219D02*
X110399405Y-73552219D01*
X110399405Y-73552219D02*
X110399405Y-72552219D01*
X110399405Y-72552219D02*
X110732738Y-72552219D01*
X110732738Y-72552219D02*
X110827976Y-72599838D01*
X110827976Y-72599838D02*
X110875595Y-72647457D01*
X110875595Y-72647457D02*
X110923214Y-72742695D01*
X110923214Y-72742695D02*
X110923214Y-72837933D01*
X110923214Y-72837933D02*
X110875595Y-72933171D01*
X110875595Y-72933171D02*
X110827976Y-72980790D01*
X110827976Y-72980790D02*
X110732738Y-73028409D01*
X110732738Y-73028409D02*
X110399405Y-73028409D01*
X111447024Y-73552219D02*
X111637500Y-73552219D01*
X111637500Y-73552219D02*
X111732738Y-73504600D01*
X111732738Y-73504600D02*
X111780357Y-73456980D01*
X111780357Y-73456980D02*
X111875595Y-73314123D01*
X111875595Y-73314123D02*
X111923214Y-73123647D01*
X111923214Y-73123647D02*
X111923214Y-72742695D01*
X111923214Y-72742695D02*
X111875595Y-72647457D01*
X111875595Y-72647457D02*
X111827976Y-72599838D01*
X111827976Y-72599838D02*
X111732738Y-72552219D01*
X111732738Y-72552219D02*
X111542262Y-72552219D01*
X111542262Y-72552219D02*
X111447024Y-72599838D01*
X111447024Y-72599838D02*
X111399405Y-72647457D01*
X111399405Y-72647457D02*
X111351786Y-72742695D01*
X111351786Y-72742695D02*
X111351786Y-72980790D01*
X111351786Y-72980790D02*
X111399405Y-73076028D01*
X111399405Y-73076028D02*
X111447024Y-73123647D01*
X111447024Y-73123647D02*
X111542262Y-73171266D01*
X111542262Y-73171266D02*
X111732738Y-73171266D01*
X111732738Y-73171266D02*
X111827976Y-73123647D01*
X111827976Y-73123647D02*
X111875595Y-73076028D01*
X111875595Y-73076028D02*
X111923214Y-72980790D01*
D12*
X75438095Y-83020700D02*
X75580952Y-83068319D01*
X75580952Y-83068319D02*
X75819047Y-83068319D01*
X75819047Y-83068319D02*
X75914285Y-83020700D01*
X75914285Y-83020700D02*
X75961904Y-82973080D01*
X75961904Y-82973080D02*
X76009523Y-82877842D01*
X76009523Y-82877842D02*
X76009523Y-82782604D01*
X76009523Y-82782604D02*
X75961904Y-82687366D01*
X75961904Y-82687366D02*
X75914285Y-82639747D01*
X75914285Y-82639747D02*
X75819047Y-82592128D01*
X75819047Y-82592128D02*
X75628571Y-82544509D01*
X75628571Y-82544509D02*
X75533333Y-82496890D01*
X75533333Y-82496890D02*
X75485714Y-82449271D01*
X75485714Y-82449271D02*
X75438095Y-82354033D01*
X75438095Y-82354033D02*
X75438095Y-82258795D01*
X75438095Y-82258795D02*
X75485714Y-82163557D01*
X75485714Y-82163557D02*
X75533333Y-82115938D01*
X75533333Y-82115938D02*
X75628571Y-82068319D01*
X75628571Y-82068319D02*
X75866666Y-82068319D01*
X75866666Y-82068319D02*
X76009523Y-82115938D01*
X76961904Y-83068319D02*
X76390476Y-83068319D01*
X76676190Y-83068319D02*
X76676190Y-82068319D01*
X76676190Y-82068319D02*
X76580952Y-82211176D01*
X76580952Y-82211176D02*
X76485714Y-82306414D01*
X76485714Y-82306414D02*
X76390476Y-82354033D01*
X89797024Y-63494509D02*
X90130357Y-63494509D01*
X90273214Y-64018319D02*
X89797024Y-64018319D01*
X89797024Y-64018319D02*
X89797024Y-63018319D01*
X89797024Y-63018319D02*
X90273214Y-63018319D01*
X91225595Y-64018319D02*
X90654167Y-64018319D01*
X90939881Y-64018319D02*
X90939881Y-63018319D01*
X90939881Y-63018319D02*
X90844643Y-63161176D01*
X90844643Y-63161176D02*
X90749405Y-63256414D01*
X90749405Y-63256414D02*
X90654167Y-63304033D01*
%TO.C,D6*%
D15*
X65461250Y-34617500D02*
X67701250Y-34617500D01*
X65461250Y-34737500D02*
X67701250Y-34737500D01*
X65461250Y-34857500D02*
X67701250Y-34857500D01*
X66581250Y-29297500D02*
X66581250Y-31217500D01*
X66581250Y-37377500D02*
X66581250Y-35457500D01*
X65461250Y-31217500D02*
X67701250Y-31217500D01*
X67701250Y-35457500D01*
X65461250Y-35457500D01*
X65461250Y-31217500D01*
%TO.C,ESC1*%
X26352500Y-26352500D02*
X40322500Y-26352500D01*
X26352500Y-40322500D02*
X26352500Y-26352500D01*
X40322500Y-26352500D02*
X40322500Y-40322500D01*
X40322500Y-40322500D02*
X26352500Y-40322500D01*
%TO.C,R1*%
X102552500Y-64452500D02*
X116522500Y-64452500D01*
X102552500Y-78422500D02*
X102552500Y-64452500D01*
X116522500Y-64452500D02*
X116522500Y-78422500D01*
X116522500Y-78422500D02*
X102552500Y-78422500D01*
%TO.C,SPACE1*%
X90646250Y-121602500D02*
X104616250Y-121602500D01*
X90646250Y-135572500D02*
X90646250Y-121602500D01*
X104616250Y-121602500D02*
X104616250Y-135572500D01*
X104616250Y-135572500D02*
X90646250Y-135572500D01*
%TO.C,D8*%
X72561250Y-34617500D02*
X74801250Y-34617500D01*
X72561250Y-34737500D02*
X74801250Y-34737500D01*
X72561250Y-34857500D02*
X74801250Y-34857500D01*
X73681250Y-29297500D02*
X73681250Y-31217500D01*
X73681250Y-37377500D02*
X73681250Y-35457500D01*
X72561250Y-31217500D02*
X74801250Y-31217500D01*
X74801250Y-35457500D01*
X72561250Y-35457500D01*
X72561250Y-31217500D01*
%TO.C,D3*%
X54811250Y-34617500D02*
X57051250Y-34617500D01*
X54811250Y-34737500D02*
X57051250Y-34737500D01*
X54811250Y-34857500D02*
X57051250Y-34857500D01*
X55931250Y-29297500D02*
X55931250Y-31217500D01*
X55931250Y-37377500D02*
X55931250Y-35457500D01*
X54811250Y-31217500D02*
X57051250Y-31217500D01*
X57051250Y-35457500D01*
X54811250Y-35457500D01*
X54811250Y-31217500D01*
%TO.C,D16*%
X88265000Y-83502500D02*
X102235000Y-83502500D01*
X88265000Y-97472500D02*
X88265000Y-83502500D01*
X102235000Y-83502500D02*
X102235000Y-97472500D01*
X102235000Y-97472500D02*
X88265000Y-97472500D01*
%TO.C,D13*%
X90311250Y-34617500D02*
X92551250Y-34617500D01*
X90311250Y-34737500D02*
X92551250Y-34737500D01*
X90311250Y-34857500D02*
X92551250Y-34857500D01*
X91431250Y-29297500D02*
X91431250Y-31217500D01*
X91431250Y-37377500D02*
X91431250Y-35457500D01*
X90311250Y-31217500D02*
X92551250Y-31217500D01*
X92551250Y-35457500D01*
X90311250Y-35457500D01*
X90311250Y-31217500D01*
%TO.C,D1*%
X47711250Y-34617500D02*
X49951250Y-34617500D01*
X47711250Y-34737500D02*
X49951250Y-34737500D01*
X47711250Y-34857500D02*
X49951250Y-34857500D01*
X48831250Y-29297500D02*
X48831250Y-31217500D01*
X48831250Y-37377500D02*
X48831250Y-35457500D01*
X47711250Y-31217500D02*
X49951250Y-31217500D01*
X49951250Y-35457500D01*
X47711250Y-35457500D01*
X47711250Y-31217500D01*
%TO.C,N3*%
X83502500Y-45402500D02*
X97472500Y-45402500D01*
X83502500Y-59372500D02*
X83502500Y-45402500D01*
X97472500Y-45402500D02*
X97472500Y-59372500D01*
X97472500Y-59372500D02*
X83502500Y-59372500D01*
%TO.C,D9*%
X76111250Y-34617500D02*
X78351250Y-34617500D01*
X76111250Y-34737500D02*
X78351250Y-34737500D01*
X76111250Y-34857500D02*
X78351250Y-34857500D01*
X77231250Y-29297500D02*
X77231250Y-31217500D01*
X77231250Y-37377500D02*
X77231250Y-35457500D01*
X76111250Y-31217500D02*
X78351250Y-31217500D01*
X78351250Y-35457500D01*
X76111250Y-35457500D01*
X76111250Y-31217500D01*
%TO.C,D15*%
X97411250Y-34617500D02*
X99651250Y-34617500D01*
X97411250Y-34737500D02*
X99651250Y-34737500D01*
X97411250Y-34857500D02*
X99651250Y-34857500D01*
X98531250Y-29297500D02*
X98531250Y-31217500D01*
X98531250Y-37377500D02*
X98531250Y-35457500D01*
X97411250Y-31217500D02*
X99651250Y-31217500D01*
X99651250Y-35457500D01*
X97411250Y-35457500D01*
X97411250Y-31217500D01*
%TO.C,D14*%
X93861250Y-34617500D02*
X96101250Y-34617500D01*
X93861250Y-34737500D02*
X96101250Y-34737500D01*
X93861250Y-34857500D02*
X96101250Y-34857500D01*
X94981250Y-29297500D02*
X94981250Y-31217500D01*
X94981250Y-37377500D02*
X94981250Y-35457500D01*
X93861250Y-31217500D02*
X96101250Y-31217500D01*
X96101250Y-35457500D01*
X93861250Y-35457500D01*
X93861250Y-31217500D01*
%TO.C,N2*%
X64452500Y-45402500D02*
X78422500Y-45402500D01*
X64452500Y-59372500D02*
X64452500Y-45402500D01*
X78422500Y-45402500D02*
X78422500Y-59372500D01*
X78422500Y-59372500D02*
X64452500Y-59372500D01*
%TO.C,SHIFT1*%
X28733750Y-102552500D02*
X42703750Y-102552500D01*
X28733750Y-116522500D02*
X28733750Y-102552500D01*
X42703750Y-102552500D02*
X42703750Y-116522500D01*
X42703750Y-116522500D02*
X28733750Y-116522500D01*
%TO.C,D12*%
X86761250Y-34617500D02*
X89001250Y-34617500D01*
X86761250Y-34737500D02*
X89001250Y-34737500D01*
X86761250Y-34857500D02*
X89001250Y-34857500D01*
X87881250Y-29297500D02*
X87881250Y-31217500D01*
X87881250Y-37377500D02*
X87881250Y-35457500D01*
X86761250Y-31217500D02*
X89001250Y-31217500D01*
X89001250Y-35457500D01*
X86761250Y-35457500D01*
X86761250Y-31217500D01*
%TO.C,TAB1*%
X21590000Y-64452500D02*
X35560000Y-64452500D01*
X21590000Y-78422500D02*
X21590000Y-64452500D01*
X35560000Y-64452500D02*
X35560000Y-78422500D01*
X35560000Y-78422500D02*
X21590000Y-78422500D01*
%TO.C,D7*%
X69011250Y-34617500D02*
X71251250Y-34617500D01*
X69011250Y-34737500D02*
X71251250Y-34737500D01*
X69011250Y-34857500D02*
X71251250Y-34857500D01*
X70131250Y-29297500D02*
X70131250Y-31217500D01*
X70131250Y-37377500D02*
X70131250Y-35457500D01*
X69011250Y-31217500D02*
X71251250Y-31217500D01*
X71251250Y-35457500D01*
X69011250Y-35457500D01*
X69011250Y-31217500D01*
%TO.C,N1*%
X45402500Y-45402500D02*
X59372500Y-45402500D01*
X45402500Y-59372500D02*
X45402500Y-45402500D01*
X59372500Y-45402500D02*
X59372500Y-59372500D01*
X59372500Y-59372500D02*
X45402500Y-59372500D01*
%TO.C,W1*%
X64452500Y-64452500D02*
X78422500Y-64452500D01*
X64452500Y-78422500D02*
X64452500Y-64452500D01*
X78422500Y-64452500D02*
X78422500Y-78422500D01*
X78422500Y-78422500D02*
X64452500Y-78422500D01*
%TO.C,D10*%
X79661250Y-34617500D02*
X81901250Y-34617500D01*
X79661250Y-34737500D02*
X81901250Y-34737500D01*
X79661250Y-34857500D02*
X81901250Y-34857500D01*
X80781250Y-29297500D02*
X80781250Y-31217500D01*
X80781250Y-37377500D02*
X80781250Y-35457500D01*
X79661250Y-31217500D02*
X81901250Y-31217500D01*
X81901250Y-35457500D01*
X79661250Y-35457500D01*
X79661250Y-31217500D01*
%TO.C,U1*%
D16*
X12523470Y-47575000D02*
X19876770Y-47575000D01*
X12523470Y-56575000D02*
X12523470Y-47575000D01*
X13948410Y-45175000D02*
X13948410Y-58975000D01*
X15947500Y-60975000D02*
X32947500Y-60975000D01*
X19876770Y-47575000D02*
X19876770Y-56575000D01*
X19876770Y-56575000D02*
X12523470Y-56575000D01*
X32947500Y-43175000D02*
X15947500Y-43175000D01*
X34947500Y-58975000D02*
X34947500Y-45175000D01*
D15*
X13947500Y-45175000D02*
G75*
G02*
X15947500Y-43175000I2044610J-44610D01*
G01*
X15947500Y-60975000D02*
G75*
G02*
X13947500Y-58975000I44612J2044612D01*
G01*
X32947500Y-43175000D02*
G75*
G02*
X34947500Y-45175000I0J-2000000D01*
G01*
X34947500Y-58975000D02*
G75*
G02*
X32947500Y-60975000I-2044857J44857D01*
G01*
D17*
X15774500Y-63075000D02*
G75*
G02*
X15520500Y-63075000I-127000J0D01*
G01*
X15520500Y-63075000D02*
G75*
G02*
X15774500Y-63075000I127000J0D01*
G01*
D18*
X15885795Y-60962715D02*
X15837027Y-60959667D01*
X15788006Y-60955603D01*
X15885795Y-60962715D01*
X32969074Y-43185508D02*
X33018350Y-43187287D01*
X33067118Y-43190335D01*
X33116139Y-43194399D01*
X33164907Y-43199732D01*
X33213675Y-43206336D01*
X33262190Y-43213956D01*
X33310450Y-43222847D01*
X33358455Y-43232752D01*
X32969074Y-43185508D01*
%TO.C,CTRL1*%
D15*
X19208750Y-121602500D02*
X33178750Y-121602500D01*
X19208750Y-135572500D02*
X19208750Y-121602500D01*
X33178750Y-121602500D02*
X33178750Y-135572500D01*
X33178750Y-135572500D02*
X19208750Y-135572500D01*
%TO.C,Q1*%
X45402500Y-64452500D02*
X59372500Y-64452500D01*
X45402500Y-78422500D02*
X45402500Y-64452500D01*
X59372500Y-64452500D02*
X59372500Y-78422500D01*
X59372500Y-78422500D02*
X45402500Y-78422500D01*
%TO.C,A1*%
X50165000Y-83502500D02*
X64135000Y-83502500D01*
X50165000Y-97472500D02*
X50165000Y-83502500D01*
X64135000Y-83502500D02*
X64135000Y-97472500D01*
X64135000Y-97472500D02*
X50165000Y-97472500D01*
%TO.C,D5*%
X61911250Y-34617500D02*
X64151250Y-34617500D01*
X61911250Y-34737500D02*
X64151250Y-34737500D01*
X61911250Y-34857500D02*
X64151250Y-34857500D01*
X63031250Y-29297500D02*
X63031250Y-31217500D01*
X63031250Y-37377500D02*
X63031250Y-35457500D01*
X61911250Y-31217500D02*
X64151250Y-31217500D01*
X64151250Y-35457500D01*
X61911250Y-35457500D01*
X61911250Y-31217500D01*
%TO.C,D11*%
X83211250Y-34617500D02*
X85451250Y-34617500D01*
X83211250Y-34737500D02*
X85451250Y-34737500D01*
X83211250Y-34857500D02*
X85451250Y-34857500D01*
X84331250Y-29297500D02*
X84331250Y-31217500D01*
X84331250Y-37377500D02*
X84331250Y-35457500D01*
X83211250Y-31217500D02*
X85451250Y-31217500D01*
X85451250Y-35457500D01*
X83211250Y-35457500D01*
X83211250Y-31217500D01*
%TO.C,D2*%
X51261250Y-34617500D02*
X53501250Y-34617500D01*
X51261250Y-34737500D02*
X53501250Y-34737500D01*
X51261250Y-34857500D02*
X53501250Y-34857500D01*
X52381250Y-29297500D02*
X52381250Y-31217500D01*
X52381250Y-37377500D02*
X52381250Y-35457500D01*
X51261250Y-31217500D02*
X53501250Y-31217500D01*
X53501250Y-35457500D01*
X51261250Y-35457500D01*
X51261250Y-31217500D01*
%TO.C,D4*%
X58361250Y-34617500D02*
X60601250Y-34617500D01*
X58361250Y-34737500D02*
X60601250Y-34737500D01*
X58361250Y-34857500D02*
X60601250Y-34857500D01*
X59481250Y-29297500D02*
X59481250Y-31217500D01*
X59481250Y-37377500D02*
X59481250Y-35457500D01*
X58361250Y-31217500D02*
X60601250Y-31217500D01*
X60601250Y-35457500D01*
X58361250Y-35457500D01*
X58361250Y-31217500D01*
%TO.C,S1*%
X69215000Y-83502500D02*
X83185000Y-83502500D01*
X69215000Y-97472500D02*
X69215000Y-83502500D01*
X83185000Y-83502500D02*
X83185000Y-97472500D01*
X83185000Y-97472500D02*
X69215000Y-97472500D01*
%TO.C,E1*%
X83502500Y-64452500D02*
X97472500Y-64452500D01*
X83502500Y-78422500D02*
X83502500Y-64452500D01*
X97472500Y-64452500D02*
X97472500Y-78422500D01*
X97472500Y-78422500D02*
X83502500Y-78422500D01*
%TD*%
M02*
